ISO-10303-21;
HEADER;
FILE_DESCRIPTION (( 'STEP AP203' ),
    '1' );
FILE_NAME ('D5 - wires track.STEP',
    '2026-05-07T09:38:35',
    ( '' ),
    ( '' ),
    'SwSTEP 2.0',
    'SolidWorks 2025',
    '' );
FILE_SCHEMA (( 'CONFIG_CONTROL_DESIGN' ));
ENDSEC;

DATA;
#1 = DIRECTION ( 'NONE',  ( -0.000000000000000000, -0.000000000000000000, -1.000000000000000000 ) ) ;
#2 = ORIENTED_EDGE ( 'NONE', *, *, #53, .F. ) ;
#3 = EDGE_CURVE ( 'NONE', #197, #90, #473, .T. ) ;
#4 = FACE_OUTER_BOUND ( 'NONE', #538, .T. ) ;
#5 = DIRECTION ( 'NONE',  ( 0.000000000000000000, 1.000000000000000000, -0.000000000000000000 ) ) ;
#6 = DIRECTION ( 'NONE',  ( 1.000000000000000000, 0.000000000000000000, 0.000000000000000000 ) ) ;
#7 = VERTEX_POINT ( 'NONE', #102 ) ;
#8 = AXIS2_PLACEMENT_3D ( 'NONE', #48, #498, #455 ) ;
#9 = AXIS2_PLACEMENT_3D ( 'NONE', #475, #191, #470 ) ;
#10 = DIRECTION ( 'NONE',  ( -0.000000000000000000, 0.000000000000000000, -1.000000000000000000 ) ) ;
#11 = ORIENTED_EDGE ( 'NONE', *, *, #273, .F. ) ;
#12 = PLANE ( 'NONE',  #569 ) ;
#13 = ORIENTED_EDGE ( 'NONE', *, *, #409, .T. ) ;
#14 = DIRECTION ( 'NONE',  ( -1.000000000000000000, -3.703541051174831253E-17, 0.000000000000000000 ) ) ;
#15 = PRODUCT_DEFINITION ( 'UNKNOWN', '', #660, #628 ) ;
#16 = CARTESIAN_POINT ( 'NONE',  ( -7.999999999999998224, 1.999999999999999556, 10.00000000000000000 ) ) ;
#17 = VERTEX_POINT ( 'NONE', #211 ) ;
#18 = LINE ( 'NONE', #517, #206 ) ;
#19 = VECTOR ( 'NONE', #447, 1000.000000000000000 ) ;
#20 = CIRCLE ( 'NONE', #79, 1.000000000000000000 ) ;
#21 = FACE_OUTER_BOUND ( 'NONE', #52, .T. ) ;
#22 = EDGE_LOOP ( 'NONE', ( #297, #30, #499, #631 ) ) ;
#23 = ADVANCED_FACE ( 'NONE', ( #162, #50 ), #327, .T. ) ;
#24 = LINE ( 'NONE', #692, #215 ) ;
#25 = LINE ( 'NONE', #688, #417 ) ;
#26 = APPLICATION_PROTOCOL_DEFINITION ( 'international standard', 'config_control_design', 1994, #175 ) ;
#27 = DIRECTION ( 'NONE',  ( 1.574545884618025235E-16, 1.000000000000000000, -0.000000000000000000 ) ) ;
#28 = ORIENTED_EDGE ( 'NONE', *, *, #292, .T. ) ;
#29 = CARTESIAN_POINT ( 'NONE',  ( 22.00000000000000355, 2.089722925104964876E-16, 0.000000000000000000 ) ) ;
#30 = ORIENTED_EDGE ( 'NONE', *, *, #284, .F. ) ;
#31 = FACE_OUTER_BOUND ( 'NONE', #637, .T. ) ;
#32 = ORIENTED_EDGE ( 'NONE', *, *, #505, .F. ) ;
#33 = EDGE_CURVE ( 'NONE', #503, #197, #280, .T. ) ;
#34 = DIRECTION ( 'NONE',  ( -0.000000000000000000, -1.000000000000000000, -0.000000000000000000 ) ) ;
#35 = CIRCLE ( 'NONE', #648, 1.000000000000000888 ) ;
#36 = APPROVAL_STATUS ( 'not_yet_approved' ) ;
#37 = CC_DESIGN_APPROVAL ( #247, ( #15 ) ) ;
#38 = CARTESIAN_POINT ( 'NONE',  ( 0.000000000000000000, 0.000000000000000000, 10.00000000000000000 ) ) ;
#39 = EDGE_LOOP ( 'NONE', ( #482, #451, #380, #239, #177, #540, #28, #472, #101, #635, #667, #460, #11, #476 ) ) ;
#40 = AXIS2_PLACEMENT_3D ( 'NONE', #550, #46, #158 ) ;
#41 = CIRCLE ( 'NONE', #583, 1.000000000000000888 ) ;
#42 = CALENDAR_DATE ( 2026, 7, 5 ) ;
#43 = EDGE_CURVE ( 'NONE', #604, #294, #458, .T. ) ;
#44 = CARTESIAN_POINT ( 'NONE',  ( -8.000000000000000000, -2.962832840939865002E-16, 10.00000000000000000 ) ) ;
#45 = ORIENTED_EDGE ( 'NONE', *, *, #542, .F. ) ;
#46 = DIRECTION ( 'NONE',  ( 0.000000000000000000, 1.000000000000000000, 0.000000000000000000 ) ) ;
#47 = CALENDAR_DATE ( 2026, 7, 5 ) ;
#48 = CARTESIAN_POINT ( 'NONE',  ( 0.000000000000000000, 0.000000000000000000, 10.00000000000000000 ) ) ;
#49 = VERTEX_POINT ( 'NONE', #112 ) ;
#50 = FACE_OUTER_BOUND ( 'NONE', #496, .T. ) ;
#51 = LINE ( 'NONE', #385, #532 ) ;
#52 = EDGE_LOOP ( 'NONE', ( #564, #343, #448, #298 ) ) ;
#53 = EDGE_CURVE ( 'NONE', #7, #503, #509, .T. ) ;
#54 = CARTESIAN_POINT ( 'NONE',  ( 14.00000000000000178, 0.000000000000000000, 10.00000000000000000 ) ) ;
#55 = VECTOR ( 'NONE', #370, 1000.000000000000000 ) ;
#56 = DATE_TIME_ROLE ( 'creation_date' ) ;
#57 = DIRECTION ( 'NONE',  ( 0.000000000000000000, 1.000000000000000000, 0.000000000000000000 ) ) ;
#58 = ORIENTED_EDGE ( 'NONE', *, *, #174, .F. ) ;
#59 = PLANE ( 'NONE',  #522 ) ;
#60 = ORIENTED_EDGE ( 'NONE', *, *, #88, .F. ) ;
#61 = EDGE_CURVE ( 'NONE', #664, #90, #504, .T. ) ;
#62 = PLANE ( 'NONE',  #192 ) ;
#63 = EDGE_LOOP ( 'NONE', ( #85, #554 ) ) ;
#64 = DIRECTION ( 'NONE',  ( 3.703541051174831253E-17, -1.000000000000000000, 0.000000000000000000 ) ) ;
#65 =( GEOMETRIC_REPRESENTATION_CONTEXT ( 3 ) GLOBAL_UNCERTAINTY_ASSIGNED_CONTEXT ( ( #352 ) ) GLOBAL_UNIT_ASSIGNED_CONTEXT ( ( #426, #91, #432 ) ) REPRESENTATION_CONTEXT ( 'NONE', 'WORKASPACE' ) );
#66 = VECTOR ( 'NONE', #14, 1000.000000000000000 ) ;
#67 = EDGE_CURVE ( 'NONE', #464, #712, #639, .T. ) ;
#68 = LINE ( 'NONE', #574, #695 ) ;
#69 = VERTEX_POINT ( 'NONE', #555 ) ;
#70 = CARTESIAN_POINT ( 'NONE',  ( 18.00000000000000355, -1.734723475976807094E-15, 3.999999999999998224 ) ) ;
#71 = FACE_BOUND ( 'NONE', #444, .T. ) ;
#72 = ORIENTED_EDGE ( 'NONE', *, *, #421, .T. ) ;
#73 = PRODUCT ( 'D5 - wires track', 'D5 - wires track', '', ( #248 ) ) ;
#74 = CARTESIAN_POINT ( 'NONE',  ( 2.000000000000000000, -3.149091769236050470E-16, 10.00000000000000000 ) ) ;
#75 = CIRCLE ( 'NONE', #356, 1.000000000000000000 ) ;
#76 = EDGE_CURVE ( 'NONE', #658, #290, #625, .T. ) ;
#77 = AXIS2_PLACEMENT_3D ( 'NONE', #698, #709, #262 ) ;
#78 = LOCAL_TIME ( 11, 38, 35.00000000000000000, #615 ) ;
#79 = AXIS2_PLACEMENT_3D ( 'NONE', #477, #696, #397 ) ;
#80 = PLANE ( 'NONE',  #591 ) ;
#81 = DIRECTION ( 'NONE',  ( 8.673617379884035472E-16, 1.000000000000000000, 0.000000000000000000 ) ) ;
#82 = CARTESIAN_POINT ( 'NONE',  ( 18.00000000000000355, 1.999999999999999556, 1.999999999999990008 ) ) ;
#83 = FACE_BOUND ( 'NONE', #332, .T. ) ;
#84 = LINE ( 'NONE', #479, #488 ) ;
#85 = ORIENTED_EDGE ( 'NONE', *, *, #267, .T. ) ;
#86 = CARTESIAN_POINT ( 'NONE',  ( 2.000000000000000444, 4.000000000000000000, 10.00000000000000000 ) ) ;
#87 = CONICAL_SURFACE ( 'NONE', #659, 1.000000000000001776, 0.7853981633974500554 ) ;
#88 = EDGE_CURVE ( 'NONE', #226, #658, #633, .T. ) ;
#89 = CARTESIAN_POINT ( 'NONE',  ( -1.084202172485504681E-16, 2.000000000000000000, 10.00000000000000000 ) ) ;
#90 = VERTEX_POINT ( 'NONE', #694 ) ;
#91 =( NAMED_UNIT ( * ) PLANE_ANGLE_UNIT ( ) SI_UNIT ( $, .RADIAN. ) );
#92 = LINE ( 'NONE', #317, #391 ) ;
#93 = LINE ( 'NONE', #645, #261 ) ;
#94 = CARTESIAN_POINT ( 'NONE',  ( 3.469446951953614189E-16, 4.000000000000000000, 10.00000000000000000 ) ) ;
#95 = ORIENTED_EDGE ( 'NONE', *, *, #205, .F. ) ;
#96 = ADVANCED_FACE ( 'NONE', ( #244 ), #144, .F. ) ;
#97 = CC_DESIGN_PERSON_AND_ORGANIZATION_ASSIGNMENT ( #108, #675, ( #365 ) ) ;
#98 = AXIS2_PLACEMENT_3D ( 'NONE', #621, #238, #10 ) ;
#99 = LOCAL_TIME ( 11, 38, 35.00000000000000000, #114 ) ;
#100 = CARTESIAN_POINT ( 'NONE',  ( 18.00000000000000355, -3.469446951953614189E-15, 3.999999999999998224 ) ) ;
#101 = ORIENTED_EDGE ( 'NONE', *, *, #454, .T. ) ;
#102 = CARTESIAN_POINT ( 'NONE',  ( 13.00000000000000178, 7.000000000000000000, 10.00000000000000000 ) ) ;
#103 = LINE ( 'NONE', #156, #705 ) ;
#104 = ORIENTED_EDGE ( 'NONE', *, *, #367, .T. ) ;
#105 = DIRECTION ( 'NONE',  ( 0.000000000000000000, -0.000000000000000000, -1.000000000000000000 ) ) ;
#106 = CARTESIAN_POINT ( 'NONE',  ( 13.00000000000000178, 7.000000000000000000, 0.000000000000000000 ) ) ;
#107 = ORIENTED_EDGE ( 'NONE', *, *, #198, .F. ) ;
#108 = PERSON_AND_ORGANIZATION ( #490, #251 ) ;
#109 = CARTESIAN_POINT ( 'NONE',  ( 22.00000000000000355, 1.999999999999999556, 10.00000000000000000 ) ) ;
#110 = ORIENTED_EDGE ( 'NONE', *, *, #227, .T. ) ;
#111 = AXIS2_PLACEMENT_3D ( 'NONE', #38, #264, #374 ) ;
#112 = CARTESIAN_POINT ( 'NONE',  ( 0.000000000000000000, 2.000000000000000000, 0.000000000000000000 ) ) ;
#113 = AXIS2_PLACEMENT_3D ( 'NONE', #653, #34, #430 ) ;
#114 = COORDINATED_UNIVERSAL_TIME_OFFSET ( 1, 0, .AHEAD. ) ;
#115 = CARTESIAN_POINT ( 'NONE',  ( 0.000000000000000000, 2.000000000000000000, 10.00000000000000000 ) ) ;
#116 = ORIENTED_EDGE ( 'NONE', *, *, #53, .T. ) ;
#117 = DIRECTION ( 'NONE',  ( 8.659560562354947649E-17, 0.7071067811865464625, -0.7071067811865486830 ) ) ;
#118 = EDGE_LOOP ( 'NONE', ( #386, #401, #32, #383 ) ) ;
#119 = EDGE_CURVE ( 'NONE', #214, #707, #25, .T. ) ;
#120 = CARTESIAN_POINT ( 'NONE',  ( -0.000000000000000000, 1.999999999999999556, 0.000000000000000000 ) ) ;
#121 = ORIENTED_EDGE ( 'NONE', *, *, #316, .F. ) ;
#122 = LINE ( 'NONE', #185, #489 ) ;
#123 = AXIS2_PLACEMENT_3D ( 'NONE', #89, #362, #434 ) ;
#124 = CC_DESIGN_SECURITY_CLASSIFICATION ( #365, ( #660 ) ) ;
#125 = DIRECTION ( 'NONE',  ( 1.000000000000000000, 3.703541051174831253E-17, 0.000000000000000000 ) ) ;
#126 = ORIENTED_EDGE ( 'NONE', *, *, #43, .F. ) ;
#127 = PLANE ( 'NONE',  #469 ) ;
#128 = ADVANCED_FACE ( 'NONE', ( #636 ), #406, .T. ) ;
#129 = ORIENTED_EDGE ( 'NONE', *, *, #182, .F. ) ;
#130 = CARTESIAN_POINT ( 'NONE',  ( 18.00000000000000355, -3.469446951953614189E-15, 5.000000000000000000 ) ) ;
#131 = CARTESIAN_POINT ( 'NONE',  ( -7.999999999999998224, 1.999999999999999556, 0.000000000000000000 ) ) ;
#132 = DIRECTION ( 'NONE',  ( -0.000000000000000000, -1.000000000000000000, -0.000000000000000000 ) ) ;
#133 = ORIENTED_EDGE ( 'NONE', *, *, #541, .F. ) ;
#134 = VECTOR ( 'NONE', #281, 1000.000000000000000 ) ;
#135 = APPROVAL_PERSON_ORGANIZATION ( #285, #491, #453 ) ;
#136 = VECTOR ( 'NONE', #703, 1000.000000000000000 ) ;
#137 = LINE ( 'NONE', #120, #414 ) ;
#138 = DIRECTION ( 'NONE',  ( 1.574545884618025235E-16, 1.000000000000000000, -0.000000000000000000 ) ) ;
#139 = EDGE_CURVE ( 'NONE', #294, #279, #240, .T. ) ;
#140 = CARTESIAN_POINT ( 'NONE',  ( 18.00000000000000355, 1.999999999999999556, 8.000000000000010658 ) ) ;
#141 = ADVANCED_FACE ( 'NONE', ( #299 ), #348, .F. ) ;
#142 = LINE ( 'NONE', #312, #708 ) ;
#143 = VECTOR ( 'NONE', #289, 1000.000000000000000 ) ;
#144 = CONICAL_SURFACE ( 'NONE', #9, 1.000000000000000000, 0.7853981633974498333 ) ;
#145 = DIRECTION ( 'NONE',  ( 0.000000000000000000, 0.000000000000000000, 1.000000000000000000 ) ) ;
#146 = DIRECTION ( 'NONE',  ( -0.000000000000000000, -0.000000000000000000, 1.000000000000000000 ) ) ;
#147 = ADVANCED_FACE ( 'NONE', ( #83, #520 ), #127, .F. ) ;
#148 = DIRECTION ( 'NONE',  ( 0.000000000000000000, 1.000000000000000000, 0.000000000000000000 ) ) ;
#149 = ORIENTED_EDGE ( 'NONE', *, *, #641, .F. ) ;
#150 = APPROVAL ( #551, 'UNSPECIFIED' ) ;
#151 = LINE ( 'NONE', #590, #276 ) ;
#152 = CARTESIAN_POINT ( 'NONE',  ( 18.00000000000000355, -1.734723475976807094E-15, 5.000000000000000000 ) ) ;
#153 = ORIENTED_EDGE ( 'NONE', *, *, #308, .F. ) ;
#154 = AXIS2_PLACEMENT_3D ( 'NONE', #647, #319, #485 ) ;
#155 = APPROVAL_ROLE ( '' ) ;
#156 = CARTESIAN_POINT ( 'NONE',  ( 18.00000000000000355, -1.734723475976807094E-15, 6.000000000000001776 ) ) ;
#157 = ORIENTED_EDGE ( 'NONE', *, *, #462, .F. ) ;
#158 = DIRECTION ( 'NONE',  ( 0.000000000000000000, -0.000000000000000000, 1.000000000000000000 ) ) ;
#159 = PERSON_AND_ORGANIZATION_ROLE ( 'creator' ) ;
#160 = DIRECTION ( 'NONE',  ( 0.000000000000000000, -0.000000000000000000, 1.000000000000000000 ) ) ;
#161 = VERTEX_POINT ( 'NONE', #246 ) ;
#162 = FACE_BOUND ( 'NONE', #63, .T. ) ;
#163 = PRODUCT_RELATED_PRODUCT_CATEGORY ( 'detail', '', ( #73 ) ) ;
#164 = DIRECTION ( 'NONE',  ( -1.000000000000000000, 8.673617379884035472E-17, 0.000000000000000000 ) ) ;
#165 = ORIENTED_EDGE ( 'NONE', *, *, #119, .F. ) ;
#166 = CONICAL_SURFACE ( 'NONE', #440, 1.000000000000000000, 0.7853981633974498333 ) ;
#167 = CARTESIAN_POINT ( 'NONE',  ( 2.000000000000000000, -2.168404344971008868E-16, 10.00000000000000000 ) ) ;
#168 = EDGE_LOOP ( 'NONE', ( #269, #508, #413, #608 ) ) ;
#169 = CC_DESIGN_APPROVAL ( #491, ( #660 ) ) ;
#170 = CIRCLE ( 'NONE', #263, 1.000000000000000888 ) ;
#171 = APPROVAL_DATE_TIME ( #442, #150 ) ;
#172 = CARTESIAN_POINT ( 'NONE',  ( 12.00000000000000000, -1.889455061541630085E-15, 10.00000000000000000 ) ) ;
#173 = ORIENTED_EDGE ( 'NONE', *, *, #398, .T. ) ;
#174 = EDGE_CURVE ( 'NONE', #226, #557, #41, .T. ) ;
#175 = APPLICATION_CONTEXT ( 'configuration controlled 3d designs of mechanical parts and assemblies' ) ;
#176 = DIRECTION ( 'NONE',  ( 0.000000000000000000, 0.000000000000000000, -1.000000000000000000 ) ) ;
#177 = ORIENTED_EDGE ( 'NONE', *, *, #321, .F. ) ;
#178 = DIRECTION ( 'NONE',  ( -0.000000000000000000, 0.000000000000000000, 1.000000000000000000 ) ) ;
#179 = EDGE_LOOP ( 'NONE', ( #369, #549, #575, #373 ) ) ;
#180 = LINE ( 'NONE', #589, #136 ) ;
#181 = VECTOR ( 'NONE', #371, 1000.000000000000000 ) ;
#182 = EDGE_CURVE ( 'NONE', #557, #226, #170, .T. ) ;
#183 = DIRECTION ( 'NONE',  ( -0.000000000000000000, -0.000000000000000000, -1.000000000000000000 ) ) ;
#184 = EDGE_LOOP ( 'NONE', ( #439, #210, #330, #697 ) ) ;
#185 = CARTESIAN_POINT ( 'NONE',  ( 0.000000000000000000, 0.000000000000000000, 0.000000000000000000 ) ) ;
#186 = FACE_OUTER_BOUND ( 'NONE', #218, .T. ) ;
#187 = CARTESIAN_POINT ( 'NONE',  ( -0.000000000000000000, 0.000000000000000000, 0.000000000000000000 ) ) ;
#188 = CYLINDRICAL_SURFACE ( 'NONE', #546, 1.000000000000000000 ) ;
#189 = ORIENTED_EDGE ( 'NONE', *, *, #88, .T. ) ;
#190 = EDGE_CURVE ( 'NONE', #493, #49, #18, .T. ) ;
#191 = DIRECTION ( 'NONE',  ( 0.000000000000000000, 1.000000000000000000, 0.000000000000000000 ) ) ;
#192 = AXIS2_PLACEMENT_3D ( 'NONE', #556, #450, #164 ) ;
#193 = LOCAL_TIME ( 11, 38, 35.00000000000000000, #334 ) ;
#194 = FACE_OUTER_BOUND ( 'NONE', #168, .T. ) ;
#195 = ORIENTED_EDGE ( 'NONE', *, *, #693, .F. ) ;
#196 = DIRECTION ( 'NONE',  ( 1.084202172485504434E-16, 1.000000000000000000, 0.000000000000000000 ) ) ;
#197 = VERTEX_POINT ( 'NONE', #250 ) ;
#198 = EDGE_CURVE ( 'NONE', #712, #464, #20, .T. ) ;
#199 = DIRECTION ( 'NONE',  ( 1.000000000000000000, -1.574545884618025235E-16, 0.000000000000000000 ) ) ;
#200 = FACE_BOUND ( 'NONE', #516, .T. ) ;
#201 = CARTESIAN_POINT ( 'NONE',  ( 22.00000000000000355, 2.089722925104964876E-16, 10.00000000000000000 ) ) ;
#202 = VERTEX_POINT ( 'NONE', #623 ) ;
#203 = DIRECTION ( 'NONE',  ( 5.421010862427523403E-17, -1.000000000000000000, 0.000000000000000000 ) ) ;
#204 = EDGE_CURVE ( 'NONE', #49, #596, #122, .T. ) ;
#205 = EDGE_CURVE ( 'NONE', #346, #514, #295, .T. ) ;
#206 = VECTOR ( 'NONE', #579, 1000.000000000000000 ) ;
#207 = DIRECTION ( 'NONE',  ( 0.000000000000000000, -1.000000000000000000, 0.000000000000000000 ) ) ;
#208 = ORIENTED_EDGE ( 'NONE', *, *, #669, .T. ) ;
#209 = FACE_OUTER_BOUND ( 'NONE', #315, .T. ) ;
#210 = ORIENTED_EDGE ( 'NONE', *, *, #433, .T. ) ;
#211 = CARTESIAN_POINT ( 'NONE',  ( -8.000000000000000000, -2.962832840939865002E-16, 10.00000000000000000 ) ) ;
#212 = APPROVAL_DATE_TIME ( #609, #247 ) ;
#213 = LINE ( 'NONE', #109, #500 ) ;
#214 = VERTEX_POINT ( 'NONE', #682 ) ;
#215 = VECTOR ( 'NONE', #582, 1000.000000000000000 ) ;
#216 = PERSON_AND_ORGANIZATION ( #490, #251 ) ;
#217 = CARTESIAN_POINT ( 'NONE',  ( 0.000000000000000000, 0.000000000000000000, 0.000000000000000000 ) ) ;
#218 = EDGE_LOOP ( 'NONE', ( #133, #622, #408, #2 ) ) ;
#219 = VECTOR ( 'NONE', #5, 1000.000000000000000 ) ;
#220 = EDGE_CURVE ( 'NONE', #49, #643, #180, .T. ) ;
#221 = APPROVAL_ROLE ( '' ) ;
#222 = LINE ( 'NONE', #331, #19 ) ;
#223 = ORIENTED_EDGE ( 'NONE', *, *, #309, .F. ) ;
#224 = SECURITY_CLASSIFICATION_LEVEL ( 'unclassified' ) ;
#225 = CARTESIAN_POINT ( 'NONE',  ( 1.000000000000000000, 7.000000000000000000, 10.00000000000000000 ) ) ;
#226 = VERTEX_POINT ( 'NONE', #100 ) ;
#227 = EDGE_CURVE ( 'NONE', #351, #287, #142, .T. ) ;
#228 = PLANE ( 'NONE',  #8 ) ;
#229 = ORIENTED_EDGE ( 'NONE', *, *, #67, .F. ) ;
#230 = CC_DESIGN_APPROVAL ( #150, ( #365 ) ) ;
#231 = AXIS2_PLACEMENT_3D ( 'NONE', #605, #105, #275 ) ;
#232 = VECTOR ( 'NONE', #196, 1000.000000000000000 ) ;
#233 = DIRECTION ( 'NONE',  ( 1.000000000000000000, 0.000000000000000000, 0.000000000000000000 ) ) ;
#234 = ORIENTED_EDGE ( 'NONE', *, *, #174, .T. ) ;
#235 = CARTESIAN_POINT ( 'NONE',  ( 18.00000000000000355, -3.469446951953614189E-15, 6.000000000000001776 ) ) ;
#236 = ORIENTED_EDGE ( 'NONE', *, *, #701, .T. ) ;
#237 = CARTESIAN_POINT ( 'NONE',  ( 2.000000000000000444, 4.000000000000000000, 10.00000000000000000 ) ) ;
#238 = DIRECTION ( 'NONE',  ( 1.000000000000000000, 0.000000000000000000, -0.000000000000000000 ) ) ;
#239 = ORIENTED_EDGE ( 'NONE', *, *, #521, .T. ) ;
#240 = LINE ( 'NONE', #187, #66 ) ;
#241 = CIRCLE ( 'NONE', #452, 1.000000000000000000 ) ;
#242 = VECTOR ( 'NONE', #706, 1000.000000000000000 ) ;
#243 = FACE_OUTER_BOUND ( 'NONE', #118, .T. ) ;
#244 = FACE_OUTER_BOUND ( 'NONE', #601, .T. ) ;
#245 = DIRECTION ( 'NONE',  ( -1.000000000000000000, 0.000000000000000000, 0.000000000000000000 ) ) ;
#246 = CARTESIAN_POINT ( 'NONE',  ( -3.999999999999999112, 2.000000000000000000, 8.000000000000007105 ) ) ;
#247 = APPROVAL ( #36, 'UNSPECIFIED' ) ;
#248 = MECHANICAL_CONTEXT ( 'NONE', #175, 'mechanical' ) ;
#249 = EDGE_CURVE ( 'NONE', #17, #279, #649, .T. ) ;
#250 = CARTESIAN_POINT ( 'NONE',  ( 14.00000000000000178, 6.000000000000000000, 0.000000000000000000 ) ) ;
#251 = ORGANIZATION ( 'UNSPECIFIED', 'UNSPECIFIED', '' ) ;
#252 = DIRECTION ( 'NONE',  ( -1.084202172485504434E-16, -1.000000000000000000, 0.000000000000000000 ) ) ;
#253 = DIRECTION ( 'NONE',  ( 1.000000000000000000, -1.574545884618025235E-16, 0.000000000000000000 ) ) ;
#254 = VERTEX_POINT ( 'NONE', #322 ) ;
#255 = PERSON_AND_ORGANIZATION_ROLE ( 'design_owner' ) ;
#256 = DIRECTION ( 'NONE',  ( 1.000000000000000000, 0.000000000000000000, 0.000000000000000000 ) ) ;
#257 = ORIENTED_EDGE ( 'NONE', *, *, #284, .T. ) ;
#258 = CARTESIAN_POINT ( 'NONE',  ( 14.00000000000000178, 0.000000000000000000, 0.000000000000000000 ) ) ;
#259 = CARTESIAN_POINT ( 'NONE',  ( 22.00000000000000355, 0.000000000000000000, 10.00000000000000000 ) ) ;
#260 = ORIENTED_EDGE ( 'NONE', *, *, #684, .T. ) ;
#261 = VECTOR ( 'NONE', #588, 1000.000000000000000 ) ;
#262 = DIRECTION ( 'NONE',  ( 0.000000000000000000, 0.000000000000000000, 1.000000000000000000 ) ) ;
#263 = AXIS2_PLACEMENT_3D ( 'NONE', #640, #138, #530 ) ;
#264 = DIRECTION ( 'NONE',  ( -1.000000000000000000, 0.000000000000000000, 0.000000000000000000 ) ) ;
#265 = EDGE_LOOP ( 'NONE', ( #679, #95, #416, #375 ) ) ;
#266 = PERSON_AND_ORGANIZATION_ROLE ( 'design_supplier' ) ;
#267 = EDGE_CURVE ( 'NONE', #290, #658, #428, .T. ) ;
#268 = DIRECTION ( 'NONE',  ( -0.000000000000000000, -0.000000000000000000, -1.000000000000000000 ) ) ;
#269 = ORIENTED_EDGE ( 'NONE', *, *, #693, .T. ) ;
#270 = CALENDAR_DATE ( 2026, 7, 5 ) ;
#271 = FACE_OUTER_BOUND ( 'NONE', #39, .T. ) ;
#272 = ORIENTED_EDGE ( 'NONE', *, *, #198, .T. ) ;
#273 = EDGE_CURVE ( 'NONE', #599, #715, #651, .T. ) ;
#274 = CARTESIAN_POINT ( 'NONE',  ( 18.00000000000000355, 1.999999999999999556, 5.000000000000000000 ) ) ;
#275 = DIRECTION ( 'NONE',  ( 1.000000000000000000, 0.000000000000000000, 0.000000000000000000 ) ) ;
#276 = VECTOR ( 'NONE', #199, 1000.000000000000000 ) ;
#277 = COORDINATED_UNIVERSAL_TIME_OFFSET ( 1, 0, .AHEAD. ) ;
#278 = LINE ( 'NONE', #619, #683 ) ;
#279 = VERTEX_POINT ( 'NONE', #700 ) ;
#280 = CIRCLE ( 'NONE', #231, 1.000000000000000888 ) ;
#281 = DIRECTION ( 'NONE',  ( 0.000000000000000000, 0.000000000000000000, -1.000000000000000000 ) ) ;
#282 = ORIENTED_EDGE ( 'NONE', *, *, #139, .F. ) ;
#283 = CARTESIAN_POINT ( 'NONE',  ( 2.000000000000000000, -3.149091769236050470E-16, 10.00000000000000000 ) ) ;
#284 = EDGE_CURVE ( 'NONE', #627, #643, #595, .T. ) ;
#285 = PERSON_AND_ORGANIZATION ( #490, #251 ) ;
#286 = DIRECTION ( 'NONE',  ( -0.000000000000000000, 0.000000000000000000, 1.000000000000000000 ) ) ;
#287 = VERTEX_POINT ( 'NONE', #29 ) ;
#288 = CONICAL_SURFACE ( 'NONE', #580, 1.000000000000001776, 0.7853981633974500554 ) ;
#289 = DIRECTION ( 'NONE',  ( 1.084202172485504434E-16, 1.000000000000000000, 0.000000000000000000 ) ) ;
#290 = VERTEX_POINT ( 'NONE', #140 ) ;
#291 = DIRECTION ( 'NONE',  ( 1.000000000000000000, 3.703541051174831869E-17, 0.000000000000000000 ) ) ;
#292 = EDGE_CURVE ( 'NONE', #627, #17, #92, .T. ) ;
#293 = DIRECTION ( 'NONE',  ( 1.000000000000000000, 0.000000000000000000, 0.000000000000000000 ) ) ;
#294 = VERTEX_POINT ( 'NONE', #598 ) ;
#295 = LINE ( 'NONE', #237, #674 ) ;
#296 = DIRECTION ( 'NONE',  ( 3.703541051174831253E-17, -1.000000000000000000, 0.000000000000000000 ) ) ;
#297 = ORIENTED_EDGE ( 'NONE', *, *, #220, .T. ) ;
#298 = ORIENTED_EDGE ( 'NONE', *, *, #445, .T. ) ;
#299 = FACE_OUTER_BOUND ( 'NONE', #484, .T. ) ;
#300 = CC_DESIGN_PERSON_AND_ORGANIZATION_ASSIGNMENT ( #506, #266, ( #660 ) ) ;
#301 = FACE_OUTER_BOUND ( 'NONE', #396, .T. ) ;
#302 = CARTESIAN_POINT ( 'NONE',  ( 12.00000000000000000, 0.000000000000000000, 10.00000000000000000 ) ) ;
#303 = CIRCLE ( 'NONE', #387, 3.000000000000005329 ) ;
#304 = AXIS2_PLACEMENT_3D ( 'NONE', #274, #132, #361 ) ;
#305 = VECTOR ( 'NONE', #268, 1000.000000000000000 ) ;
#306 = CARTESIAN_POINT ( 'NONE',  ( 0.000000000000000000, 0.000000000000000000, 10.00000000000000000 ) ) ;
#307 = DIRECTION ( 'NONE',  ( 0.000000000000000000, 1.000000000000000000, -0.000000000000000000 ) ) ;
#308 = EDGE_CURVE ( 'NONE', #214, #287, #486, .T. ) ;
#309 = EDGE_CURVE ( 'NONE', #69, #161, #547, .T. ) ;
#310 = EDGE_LOOP ( 'NONE', ( #431, #116, #420, #236 ) ) ;
#311 = DIRECTION ( 'NONE',  ( 1.574545884618025235E-16, 1.000000000000000000, -0.000000000000000000 ) ) ;
#312 = CARTESIAN_POINT ( 'NONE',  ( 22.00000000000000355, 0.000000000000000000, 0.000000000000000000 ) ) ;
#313 = AXIS2_PLACEMENT_3D ( 'NONE', #586, #410, #81 ) ;
#314 = LINE ( 'NONE', #258, #324 ) ;
#315 = EDGE_LOOP ( 'NONE', ( #60, #129, #393, #677 ) ) ;
#316 = EDGE_CURVE ( 'NONE', #294, #514, #495, .T. ) ;
#317 = CARTESIAN_POINT ( 'NONE',  ( -8.000000000000000000, 6.938893903907228378E-15, 10.00000000000000000 ) ) ;
#318 = ORIENTED_EDGE ( 'NONE', *, *, #573, .T. ) ;
#319 = DIRECTION ( 'NONE',  ( 0.000000000000000000, 0.000000000000000000, 1.000000000000000000 ) ) ;
#320 = LINE ( 'NONE', #544, #466 ) ;
#321 = EDGE_CURVE ( 'NONE', #493, #202, #427, .T. ) ;
#322 = CARTESIAN_POINT ( 'NONE',  ( 12.00000000000000000, 3.999999999999999112, 10.00000000000000000 ) ) ;
#323 = ORIENTED_EDGE ( 'NONE', *, *, #33, .T. ) ;
#324 = VECTOR ( 'NONE', #531, 1000.000000000000000 ) ;
#325 = CARTESIAN_POINT ( 'NONE',  ( 22.00000000000000355, 1.999999999999999556, 0.000000000000000000 ) ) ;
#326 = ORIENTED_EDGE ( 'NONE', *, *, #220, .F. ) ;
#327 = PLANE ( 'NONE',  #40 ) ;
#328 = ADVANCED_FACE ( 'NONE', ( #209 ), #288, .F. ) ;
#329 = LINE ( 'NONE', #603, #333 ) ;
#330 = ORIENTED_EDGE ( 'NONE', *, *, #662, .F. ) ;
#331 = CARTESIAN_POINT ( 'NONE',  ( 3.469446951953614189E-16, 4.000000000000000000, 0.000000000000000000 ) ) ;
#332 = EDGE_LOOP ( 'NONE', ( #353, #234 ) ) ;
#333 = VECTOR ( 'NONE', #676, 1000.000000000000000 ) ;
#334 = COORDINATED_UNIVERSAL_TIME_OFFSET ( 1, 0, .AHEAD. ) ;
#335 = CARTESIAN_POINT ( 'NONE',  ( 12.00000000000000000, -1.889455061541630085E-15, 10.00000000000000000 ) ) ;
#336 = ORIENTED_EDGE ( 'NONE', *, *, #338, .F. ) ;
#337 = AXIS2_PLACEMENT_3D ( 'NONE', #483, #203, #711 ) ;
#338 = EDGE_CURVE ( 'NONE', #346, #254, #372, .T. ) ;
#339 = ADVANCED_FACE ( 'NONE', ( #200, #644 ), #363, .F. ) ;
#340 = CARTESIAN_POINT ( 'NONE',  ( 1.000000000000000000, 6.000000000000000000, 0.000000000000000000 ) ) ;
#341 = DIRECTION ( 'NONE',  ( 0.000000000000000000, 0.000000000000000000, -1.000000000000000000 ) ) ;
#342 = LINE ( 'NONE', #666, #364 ) ;
#343 = ORIENTED_EDGE ( 'NONE', *, *, #398, .F. ) ;
#344 = EDGE_CURVE ( 'NONE', #687, #503, #320, .T. ) ;
#345 = CARTESIAN_POINT ( 'NONE',  ( 0.000000000000000000, 1.999999999999999556, 10.00000000000000000 ) ) ;
#346 = VERTEX_POINT ( 'NONE', #86 ) ;
#347 = APPROVAL_PERSON_ORGANIZATION ( #497, #150, #155 ) ;
#348 = PLANE ( 'NONE',  #313 ) ;
#349 = ADVANCED_FACE ( 'NONE', ( #31 ), #539, .T. ) ;
#350 = DIRECTION ( 'NONE',  ( 1.000000000000000000, 0.000000000000000000, 0.000000000000000000 ) ) ;
#351 = VERTEX_POINT ( 'NONE', #325 ) ;
#352 = UNCERTAINTY_MEASURE_WITH_UNIT (LENGTH_MEASURE( 1.000000000000000082E-05 ), #426, 'distance_accuracy_value', 'NONE');
#353 = ORIENTED_EDGE ( 'NONE', *, *, #182, .T. ) ;
#354 = DIRECTION ( 'NONE',  ( -1.000000000000000000, 1.574545884618024989E-16, 0.000000000000000000 ) ) ;
#355 = FACE_OUTER_BOUND ( 'NONE', #184, .T. ) ;
#356 = AXIS2_PLACEMENT_3D ( 'NONE', #340, #510, #6 ) ;
#357 = EDGE_CURVE ( 'NONE', #202, #596, #600, .T. ) ;
#358 = VECTOR ( 'NONE', #207, 1000.000000000000000 ) ;
#359 = DIRECTION ( 'NONE',  ( 0.000000000000000000, 1.000000000000000000, 0.000000000000000000 ) ) ;
#360 = ORIENTED_EDGE ( 'NONE', *, *, #384, .F. ) ;
#361 = DIRECTION ( 'NONE',  ( 0.000000000000000000, 0.000000000000000000, 1.000000000000000000 ) ) ;
#362 = DIRECTION ( 'NONE',  ( 5.421010862427523403E-17, -1.000000000000000000, 0.000000000000000000 ) ) ;
#363 = PLANE ( 'NONE',  #123 ) ;
#364 = VECTOR ( 'NONE', #566, 1000.000000000000000 ) ;
#365 = SECURITY_CLASSIFICATION ( '', '', #224 ) ;
#366 = VECTOR ( 'NONE', #576, 1000.000000000000000 ) ;
#367 = EDGE_CURVE ( 'NONE', #604, #17, #51, .T. ) ;
#368 = DIRECTION ( 'NONE',  ( 0.000000000000000000, -1.000000000000000000, 0.000000000000000000 ) ) ;
#369 = ORIENTED_EDGE ( 'NONE', *, *, #308, .T. ) ;
#370 = DIRECTION ( 'NONE',  ( -0.000000000000000000, -0.000000000000000000, 1.000000000000000000 ) ) ;
#371 = DIRECTION ( 'NONE',  ( -8.673617379884035472E-16, -1.000000000000000000, 0.000000000000000000 ) ) ;
#372 = LINE ( 'NONE', #94, #525 ) ;
#373 = ORIENTED_EDGE ( 'NONE', *, *, #462, .T. ) ;
#374 = DIRECTION ( 'NONE',  ( 0.000000000000000000, 0.000000000000000000, 1.000000000000000000 ) ) ;
#375 = ORIENTED_EDGE ( 'NONE', *, *, #43, .T. ) ;
#376 = VECTOR ( 'NONE', #183, 1000.000000000000000 ) ;
#377 = ADVANCED_FACE ( 'NONE', ( #4 ), #87, .F. ) ;
#378 = COORDINATED_UNIVERSAL_TIME_OFFSET ( 1, 0, .AHEAD. ) ;
#379 = DIRECTION ( 'NONE',  ( 0.000000000000000000, 1.000000000000000000, 0.000000000000000000 ) ) ;
#380 = ORIENTED_EDGE ( 'NONE', *, *, #529, .F. ) ;
#381 = DATE_AND_TIME ( #388, #78 ) ;
#382 = DIRECTION ( 'NONE',  ( -0.000000000000000000, -0.000000000000000000, -1.000000000000000000 ) ) ;
#383 = ORIENTED_EDGE ( 'NONE', *, *, #357, .F. ) ;
#384 = EDGE_CURVE ( 'NONE', #557, #290, #103, .T. ) ;
#385 = CARTESIAN_POINT ( 'NONE',  ( 0.000000000000000000, 0.000000000000000000, 10.00000000000000000 ) ) ;
#386 = ORIENTED_EDGE ( 'NONE', *, *, #521, .F. ) ;
#387 = AXIS2_PLACEMENT_3D ( 'NONE', #513, #630, #233 ) ;
#388 = CALENDAR_DATE ( 2026, 7, 5 ) ;
#389 = FACE_OUTER_BOUND ( 'NONE', #411, .T. ) ;
#390 = VERTEX_POINT ( 'NONE', #225 ) ;
#391 = VECTOR ( 'NONE', #537, 1000.000000000000000 ) ;
#392 = DIRECTION ( 'NONE',  ( 0.000000000000000000, 0.000000000000000000, 1.000000000000000000 ) ) ;
#393 = ORIENTED_EDGE ( 'NONE', *, *, #384, .T. ) ;
#394 = ADVANCED_FACE ( 'NONE', ( #663 ), #59, .T. ) ;
#395 = LINE ( 'NONE', #345, #399 ) ;
#396 = EDGE_LOOP ( 'NONE', ( #282, #126, #104, #487 ) ) ;
#397 = DIRECTION ( 'NONE',  ( 1.000000000000000000, 3.703541051174831869E-17, 0.000000000000000000 ) ) ;
#398 = EDGE_CURVE ( 'NONE', #599, #351, #213, .T. ) ;
#399 = VECTOR ( 'NONE', #626, 1000.000000000000000 ) ;
#400 = DIRECTION ( 'NONE',  ( -1.000000000000000000, 1.084202172485504434E-16, 0.000000000000000000 ) ) ;
#401 = ORIENTED_EDGE ( 'NONE', *, *, #701, .F. ) ;
#402 = APPROVAL_PERSON_ORGANIZATION ( #543, #247, #221 ) ;
#403 = CARTESIAN_POINT ( 'NONE',  ( 1.000000000000000000, 6.000000000000000000, 10.00000000000000000 ) ) ;
#404 = VERTEX_POINT ( 'NONE', #172 ) ;
#405 = ORIENTED_EDGE ( 'NONE', *, *, #139, .T. ) ;
#406 = PLANE ( 'NONE',  #602 ) ;
#407 = CARTESIAN_POINT ( 'NONE',  ( 0.000000000000000000, 6.000000000000000000, 0.000000000000000000 ) ) ;
#408 = ORIENTED_EDGE ( 'NONE', *, *, #33, .F. ) ;
#409 = EDGE_CURVE ( 'NONE', #514, #707, #222, .T. ) ;
#410 = DIRECTION ( 'NONE',  ( 1.000000000000000000, -8.673617379884035472E-16, 0.000000000000000000 ) ) ;
#411 = EDGE_LOOP ( 'NONE', ( #652, #323, #195, #681, #110, #153, #478, #578, #121, #405, #524, #326, #654, #545 ) ) ;
#412 = CARTESIAN_POINT ( 'NONE',  ( 13.00000000000000178, 6.000000000000000000, 10.00000000000000000 ) ) ;
#413 = ORIENTED_EDGE ( 'NONE', *, *, #61, .F. ) ;
#414 = VECTOR ( 'NONE', #459, 1000.000000000000000 ) ;
#415 = CARTESIAN_POINT ( 'NONE',  ( 0.000000000000000000, 0.000000000000000000, 10.00000000000000000 ) ) ;
#416 = ORIENTED_EDGE ( 'NONE', *, *, #454, .F. ) ;
#417 = VECTOR ( 'NONE', #307, 1000.000000000000000 ) ;
#418 = PERSON_AND_ORGANIZATION ( #490, #251 ) ;
#419 = CARTESIAN_POINT ( 'NONE',  ( -7.999999999999998224, 1.999999999999999556, 10.00000000000000000 ) ) ;
#420 = ORIENTED_EDGE ( 'NONE', *, *, #344, .F. ) ;
#421 = EDGE_CURVE ( 'NONE', #404, #254, #329, .T. ) ;
#422 = CARTESIAN_POINT ( 'NONE',  ( -3.999999999999999112, 0.000000000000000000, 4.000000000000000000 ) ) ;
#423 = ORIENTED_EDGE ( 'NONE', *, *, #292, .F. ) ;
#424 = DIRECTION ( 'NONE',  ( 1.000000000000000000, -8.673617379884035472E-17, 0.000000000000000000 ) ) ;
#425 = CC_DESIGN_PERSON_AND_ORGANIZATION_ASSIGNMENT ( #418, #255, ( #73 ) ) ;
#426 =( LENGTH_UNIT ( ) NAMED_UNIT ( * ) SI_UNIT ( .MILLI., .METRE. ) );
#427 = LINE ( 'NONE', #492, #242 ) ;
#428 = CIRCLE ( 'NONE', #113, 3.000000000000010658 ) ;
#429 = APPLICATION_PROTOCOL_DEFINITION ( 'international standard', 'config_control_design', 1994, #646 ) ;
#430 = DIRECTION ( 'NONE',  ( 0.000000000000000000, 0.000000000000000000, 1.000000000000000000 ) ) ;
#431 = ORIENTED_EDGE ( 'NONE', *, *, #529, .T. ) ;
#432 =( NAMED_UNIT ( * ) SI_UNIT ( $, .STERADIAN. ) SOLID_ANGLE_UNIT ( ) );
#433 = EDGE_CURVE ( 'NONE', #712, #69, #278, .T. ) ;
#434 = DIRECTION ( 'NONE',  ( 1.000000000000000000, 5.421010862427523403E-17, 0.000000000000000000 ) ) ;
#435 = ORIENTED_EDGE ( 'NONE', *, *, #662, .T. ) ;
#436 = CC_DESIGN_DATE_AND_TIME_ASSIGNMENT ( #381, #56, ( #15 ) ) ;
#437 = PERSON_AND_ORGANIZATION_ROLE ( 'creator' ) ;
#438 = LINE ( 'NONE', #335, #559 ) ;
#439 = ORIENTED_EDGE ( 'NONE', *, *, #67, .T. ) ;
#440 = AXIS2_PLACEMENT_3D ( 'NONE', #638, #359, #585 ) ;
#441 = LOCAL_TIME ( 11, 38, 35.00000000000000000, #378 ) ;
#442 = DATE_AND_TIME ( #665, #581 ) ;
#443 = CARTESIAN_POINT ( 'NONE',  ( 1.000000000000000000, 6.000000000000000000, 10.00000000000000000 ) ) ;
#444 = EDGE_LOOP ( 'NONE', ( #229, #107 ) ) ;
#445 = EDGE_CURVE ( 'NONE', #715, #287, #342, .T. ) ;
#446 = DATE_TIME_ROLE ( 'classification_date' ) ;
#447 = DIRECTION ( 'NONE',  ( 1.000000000000000000, -8.673617379884035472E-17, 0.000000000000000000 ) ) ;
#448 = ORIENTED_EDGE ( 'NONE', *, *, #273, .T. ) ;
#449 = ADVANCED_FACE ( 'NONE', ( #553 ), #62, .F. ) ;
#450 = DIRECTION ( 'NONE',  ( 8.673617379884035472E-17, 1.000000000000000000, -0.000000000000000000 ) ) ;
#451 = ORIENTED_EDGE ( 'NONE', *, *, #541, .T. ) ;
#452 = AXIS2_PLACEMENT_3D ( 'NONE', #443, #607, #474 ) ;
#453 = APPROVAL_ROLE ( '' ) ;
#454 = EDGE_CURVE ( 'NONE', #604, #346, #671, .T. ) ;
#455 = DIRECTION ( 'NONE',  ( 1.000000000000000000, 0.000000000000000000, 0.000000000000000000 ) ) ;
#456 = ORIENTED_EDGE ( 'NONE', *, *, #205, .T. ) ;
#457 = VECTOR ( 'NONE', #253, 1000.000000000000000 ) ;
#458 = LINE ( 'NONE', #283, #661 ) ;
#459 = DIRECTION ( 'NONE',  ( 1.000000000000000000, 0.000000000000000000, 0.000000000000000000 ) ) ;
#460 = ORIENTED_EDGE ( 'NONE', *, *, #710, .T. ) ;
#461 = ADVANCED_FACE ( 'NONE', ( #389 ), #616, .F. ) ;
#462 = EDGE_CURVE ( 'NONE', #404, #214, #438, .T. ) ;
#463 = CARTESIAN_POINT ( 'NONE',  ( 2.000000000000000000, -2.168404344971008868E-16, 10.00000000000000000 ) ) ;
#464 = VERTEX_POINT ( 'NONE', #561 ) ;
#465 = DIRECTION ( 'NONE',  ( -0.000000000000000000, -0.000000000000000000, -1.000000000000000000 ) ) ;
#466 = VECTOR ( 'NONE', #256, 1000.000000000000000 ) ;
#467 = DIRECTION ( 'NONE',  ( 0.000000000000000000, -0.000000000000000000, 1.000000000000000000 ) ) ;
#468 = VERTEX_POINT ( 'NONE', #657 ) ;
#469 = AXIS2_PLACEMENT_3D ( 'NONE', #415, #311, #528 ) ;
#470 = DIRECTION ( 'NONE',  ( 0.000000000000000000, 0.000000000000000000, 1.000000000000000000 ) ) ;
#471 = CARTESIAN_POINT ( 'NONE',  ( 22.00000000000000355, 1.999999999999999556, 10.00000000000000000 ) ) ;
#472 = ORIENTED_EDGE ( 'NONE', *, *, #367, .F. ) ;
#473 = LINE ( 'NONE', #632, #55 ) ;
#474 = DIRECTION ( 'NONE',  ( 1.000000000000000000, 0.000000000000000000, 0.000000000000000000 ) ) ;
#475 = CARTESIAN_POINT ( 'NONE',  ( -3.999999999999999112, 0.000000000000000000, 5.000000000000000000 ) ) ;
#476 = ORIENTED_EDGE ( 'NONE', *, *, #669, .F. ) ;
#477 = CARTESIAN_POINT ( 'NONE',  ( -3.999999999999999112, 0.000000000000000000, 5.000000000000000000 ) ) ;
#478 = ORIENTED_EDGE ( 'NONE', *, *, #119, .T. ) ;
#479 = CARTESIAN_POINT ( 'NONE',  ( 1.000000000000000000, 7.000000000000000000, 10.00000000000000000 ) ) ;
#480 = CARTESIAN_POINT ( 'NONE',  ( 0.000000000000000000, 0.000000000000000000, 0.000000000000000000 ) ) ;
#481 = CC_DESIGN_PERSON_AND_ORGANIZATION_ASSIGNMENT ( #668, #159, ( #660 ) ) ;
#482 = ORIENTED_EDGE ( 'NONE', *, *, #61, .T. ) ;
#483 = CARTESIAN_POINT ( 'NONE',  ( -3.999999999999999112, 2.000000000000000000, 5.000000000000000000 ) ) ;
#484 = EDGE_LOOP ( 'NONE', ( #260, #617, #423, #257 ) ) ;
#485 = DIRECTION ( 'NONE',  ( 1.000000000000000000, 0.000000000000000000, 0.000000000000000000 ) ) ;
#486 = LINE ( 'NONE', #480, #457 ) ;
#487 = ORIENTED_EDGE ( 'NONE', *, *, #249, .T. ) ;
#488 = VECTOR ( 'NONE', #146, 1000.000000000000000 ) ;
#489 = VECTOR ( 'NONE', #572, 1000.000000000000000 ) ;
#490 = PERSON ( 'UNSPECIFIED', 'UNSPECIFIED', 'UNSPECIFIED', ('UNSPECIFIED'), ('UNSPECIFIED'), ('UNSPECIFIED') ) ;
#491 = APPROVAL ( #713, 'UNSPECIFIED' ) ;
#492 = CARTESIAN_POINT ( 'NONE',  ( 0.000000000000000000, 0.000000000000000000, 10.00000000000000000 ) ) ;
#493 = VERTEX_POINT ( 'NONE', #115 ) ;
#494 = DATE_AND_TIME ( #42, #99 ) ;
#495 = LINE ( 'NONE', #592, #232 ) ;
#496 = EDGE_LOOP ( 'NONE', ( #45, #149, #208, #173 ) ) ;
#497 = PERSON_AND_ORGANIZATION ( #490, #251 ) ;
#498 = DIRECTION ( 'NONE',  ( -0.000000000000000000, 0.000000000000000000, 1.000000000000000000 ) ) ;
#499 = ORIENTED_EDGE ( 'NONE', *, *, #716, .F. ) ;
#500 = VECTOR ( 'NONE', #382, 1000.000000000000000 ) ;
#501 = DATE_AND_TIME ( #47, #441 ) ;
#502 = CARTESIAN_POINT ( 'NONE',  ( 0.000000000000000000, 7.000000000000000000, 10.00000000000000000 ) ) ;
#503 = VERTEX_POINT ( 'NONE', #106 ) ;
#504 = LINE ( 'NONE', #54, #219 ) ;
#505 = EDGE_CURVE ( 'NONE', #596, #687, #75, .T. ) ;
#506 = PERSON_AND_ORGANIZATION ( #490, #251 ) ;
#507 = DIRECTION ( 'NONE',  ( -1.000000000000000000, -3.703541051174831253E-17, 0.000000000000000000 ) ) ;
#508 = ORIENTED_EDGE ( 'NONE', *, *, #3, .T. ) ;
#509 = LINE ( 'NONE', #568, #685 ) ;
#510 = DIRECTION ( 'NONE',  ( 0.000000000000000000, -0.000000000000000000, -1.000000000000000000 ) ) ;
#511 = ORIENTED_EDGE ( 'NONE', *, *, #190, .F. ) ;
#512 = ADVANCED_FACE ( 'NONE', ( #271 ), #228, .T. ) ;
#513 = CARTESIAN_POINT ( 'NONE',  ( -3.999999999999999112, 2.000000000000000000, 5.000000000000000000 ) ) ;
#514 = VERTEX_POINT ( 'NONE', #717 ) ;
#515 = CARTESIAN_POINT ( 'NONE',  ( 14.00000000000000178, 1.999999999999999556, 10.00000000000000000 ) ) ;
#516 = EDGE_LOOP ( 'NONE', ( #435, #571 ) ) ;
#517 = CARTESIAN_POINT ( 'NONE',  ( 0.000000000000000000, 2.000000000000000000, 10.00000000000000000 ) ) ;
#518 = CARTESIAN_POINT ( 'NONE',  ( 13.00000000000000178, 6.000000000000000000, 10.00000000000000000 ) ) ;
#519 = ORIENTED_EDGE ( 'NONE', *, *, #573, .F. ) ;
#520 = FACE_OUTER_BOUND ( 'NONE', #179, .T. ) ;
#521 = EDGE_CURVE ( 'NONE', #390, #202, #241, .T. ) ;
#522 = AXIS2_PLACEMENT_3D ( 'NONE', #502, #57, #160 ) ;
#523 = CARTESIAN_POINT ( 'NONE',  ( 12.00000000000000000, 3.999999999999999112, 10.00000000000000000 ) ) ;
#524 = ORIENTED_EDGE ( 'NONE', *, *, #684, .F. ) ;
#525 = VECTOR ( 'NONE', #424, 1000.000000000000000 ) ;
#526 = DIRECTION ( 'NONE',  ( -1.000000000000000000, 0.000000000000000000, 0.000000000000000000 ) ) ;
#527 = CARTESIAN_POINT ( 'NONE',  ( 14.00000000000000178, 1.999999999999999556, 10.00000000000000000 ) ) ;
#528 = DIRECTION ( 'NONE',  ( -1.000000000000000000, 1.574545884618025235E-16, 0.000000000000000000 ) ) ;
#529 = EDGE_CURVE ( 'NONE', #390, #7, #24, .T. ) ;
#530 = DIRECTION ( 'NONE',  ( -1.000000000000000000, 1.574545884618024989E-16, 0.000000000000000000 ) ) ;
#531 = DIRECTION ( 'NONE',  ( 0.000000000000000000, 1.000000000000000000, -0.000000000000000000 ) ) ;
#532 = VECTOR ( 'NONE', #507, 1000.000000000000000 ) ;
#533 = ADVANCED_FACE ( 'NONE', ( #243 ), #188, .T. ) ;
#534 = DIRECTION ( 'NONE',  ( -0.000000000000000000, -0.000000000000000000, -1.000000000000000000 ) ) ;
#535 = ORIENTED_EDGE ( 'NONE', *, *, #204, .F. ) ;
#536 = CARTESIAN_POINT ( 'NONE',  ( 1.000000000000000000, 7.000000000000000000, 0.000000000000000000 ) ) ;
#537 = DIRECTION ( 'NONE',  ( -8.673617379884035472E-16, -1.000000000000000000, 0.000000000000000000 ) ) ;
#538 = EDGE_LOOP ( 'NONE', ( #58, #189, #699, #360 ) ) ;
#539 = PLANE ( 'NONE',  #111 ) ;
#540 = ORIENTED_EDGE ( 'NONE', *, *, #716, .T. ) ;
#541 = EDGE_CURVE ( 'NONE', #90, #7, #35, .T. ) ;
#542 = EDGE_CURVE ( 'NONE', #468, #351, #137, .T. ) ;
#543 = PERSON_AND_ORGANIZATION ( #490, #251 ) ;
#544 = CARTESIAN_POINT ( 'NONE',  ( -0.000000000000000000, 7.000000000000000000, 0.000000000000000000 ) ) ;
#545 = ORIENTED_EDGE ( 'NONE', *, *, #505, .T. ) ;
#546 = AXIS2_PLACEMENT_3D ( 'NONE', #403, #176, #245 ) ;
#547 = CIRCLE ( 'NONE', #337, 3.000000000000005329 ) ;
#548 = CARTESIAN_POINT ( 'NONE',  ( 0.000000000000000000, 6.000000000000000000, 10.00000000000000000 ) ) ;
#549 = ORIENTED_EDGE ( 'NONE', *, *, #445, .F. ) ;
#550 = CARTESIAN_POINT ( 'NONE',  ( 0.000000000000000000, 1.999999999999999556, 10.00000000000000000 ) ) ;
#551 = APPROVAL_STATUS ( 'not_yet_approved' ) ;
#552 = EDGE_CURVE ( 'NONE', #464, #161, #68, .T. ) ;
#553 = FACE_OUTER_BOUND ( 'NONE', #718, .T. ) ;
#554 = ORIENTED_EDGE ( 'NONE', *, *, #76, .T. ) ;
#555 = CARTESIAN_POINT ( 'NONE',  ( -3.999999999999999112, 2.000000000000000000, 1.999999999999994005 ) ) ;
#556 = CARTESIAN_POINT ( 'NONE',  ( 3.469446951953614189E-16, 4.000000000000000000, 10.00000000000000000 ) ) ;
#557 = VERTEX_POINT ( 'NONE', #235 ) ;
#558 = ADVANCED_FACE ( 'NONE', ( #21 ), #680, .T. ) ;
#559 = VECTOR ( 'NONE', #1, 1000.000000000000000 ) ;
#560 = SHAPE_DEFINITION_REPRESENTATION ( #689, #704 ) ;
#561 = CARTESIAN_POINT ( 'NONE',  ( -3.999999999999999112, 0.000000000000000000, 6.000000000000000000 ) ) ;
#562 = ORIENTED_EDGE ( 'NONE', *, *, #552, .T. ) ;
#563 = CARTESIAN_POINT ( 'NONE',  ( 18.00000000000000355, -1.734723475976807094E-15, 5.000000000000000000 ) ) ;
#564 = ORIENTED_EDGE ( 'NONE', *, *, #227, .F. ) ;
#565 = CARTESIAN_POINT ( 'NONE',  ( -3.999999999999999112, 0.000000000000000000, 5.000000000000000000 ) ) ;
#566 = DIRECTION ( 'NONE',  ( -0.000000000000000000, -0.000000000000000000, -1.000000000000000000 ) ) ;
#567 = ORIENTED_EDGE ( 'NONE', *, *, #433, .F. ) ;
#568 = CARTESIAN_POINT ( 'NONE',  ( 13.00000000000000178, 7.000000000000000000, 0.000000000000000000 ) ) ;
#569 = AXIS2_PLACEMENT_3D ( 'NONE', #463, #400, #252 ) ;
#570 = FACE_OUTER_BOUND ( 'NONE', #265, .T. ) ;
#571 = ORIENTED_EDGE ( 'NONE', *, *, #309, .T. ) ;
#572 = DIRECTION ( 'NONE',  ( 0.000000000000000000, 1.000000000000000000, -0.000000000000000000 ) ) ;
#573 = EDGE_CURVE ( 'NONE', #254, #707, #577, .T. ) ;
#574 = CARTESIAN_POINT ( 'NONE',  ( -3.999999999999999112, 0.000000000000000000, 6.000000000000000000 ) ) ;
#575 = ORIENTED_EDGE ( 'NONE', *, *, #710, .F. ) ;
#576 = DIRECTION ( 'NONE',  ( 8.659560562354948882E-17, 0.7071067811865463515, -0.7071067811865487940 ) ) ;
#577 = LINE ( 'NONE', #523, #376 ) ;
#578 = ORIENTED_EDGE ( 'NONE', *, *, #409, .F. ) ;
#579 = DIRECTION ( 'NONE',  ( -0.000000000000000000, -0.000000000000000000, -1.000000000000000000 ) ) ;
#580 = AXIS2_PLACEMENT_3D ( 'NONE', #152, #148, #145 ) ;
#581 = LOCAL_TIME ( 11, 38, 35.00000000000000000, #277 ) ;
#582 = DIRECTION ( 'NONE',  ( 1.000000000000000000, 0.000000000000000000, 0.000000000000000000 ) ) ;
#583 = AXIS2_PLACEMENT_3D ( 'NONE', #130, #27, #354 ) ;
#584 = DIRECTION ( 'NONE',  ( 0.000000000000000000, 0.000000000000000000, 1.000000000000000000 ) ) ;
#585 = DIRECTION ( 'NONE',  ( 0.000000000000000000, 0.000000000000000000, 1.000000000000000000 ) ) ;
#586 = CARTESIAN_POINT ( 'NONE',  ( -8.000000000000000000, 6.938893903907228378E-15, 10.00000000000000000 ) ) ;
#587 = ADVANCED_FACE ( 'NONE', ( #71, #301 ), #80, .T. ) ;
#588 = DIRECTION ( 'NONE',  ( -1.000000000000000000, -5.421010862427523403E-17, 0.000000000000000000 ) ) ;
#589 = CARTESIAN_POINT ( 'NONE',  ( -1.084202172485504681E-16, 2.000000000000000000, 0.000000000000000000 ) ) ;
#590 = CARTESIAN_POINT ( 'NONE',  ( 0.000000000000000000, 0.000000000000000000, 10.00000000000000000 ) ) ;
#591 = AXIS2_PLACEMENT_3D ( 'NONE', #306, #296, #125 ) ;
#592 = CARTESIAN_POINT ( 'NONE',  ( 2.000000000000000000, -2.168404344971008868E-16, 0.000000000000000000 ) ) ;
#593 = CLOSED_SHELL ( 'NONE', ( #655, #377, #339, #141, #587, #670, #449, #128, #147, #558, #23, #691, #394, #349, #512, #461, #328, #96, #618, #533 ) ) ;
#594 = PLANE ( 'NONE',  #77 ) ;
#595 = LINE ( 'NONE', #419, #305 ) ;
#596 = VERTEX_POINT ( 'NONE', #407 ) ;
#597 = CARTESIAN_POINT ( 'NONE',  ( 12.00000000000000000, 3.999999999999999112, 0.000000000000000000 ) ) ;
#598 = CARTESIAN_POINT ( 'NONE',  ( 2.000000000000000000, -3.149091769236050470E-16, 0.000000000000000000 ) ) ;
#599 = VERTEX_POINT ( 'NONE', #471 ) ;
#600 = LINE ( 'NONE', #548, #134 ) ;
#601 = EDGE_LOOP ( 'NONE', ( #567, #272, #562, #223 ) ) ;
#602 = AXIS2_PLACEMENT_3D ( 'NONE', #302, #526, #584 ) ;
#603 = CARTESIAN_POINT ( 'NONE',  ( 12.00000000000000000, 0.000000000000000000, 10.00000000000000000 ) ) ;
#604 = VERTEX_POINT ( 'NONE', #74 ) ;
#605 = CARTESIAN_POINT ( 'NONE',  ( 13.00000000000000178, 6.000000000000000000, 0.000000000000000000 ) ) ;
#606 = CC_DESIGN_PERSON_AND_ORGANIZATION_ASSIGNMENT ( #216, #437, ( #15 ) ) ;
#607 = DIRECTION ( 'NONE',  ( -0.000000000000000000, 0.000000000000000000, 1.000000000000000000 ) ) ;
#608 = ORIENTED_EDGE ( 'NONE', *, *, #641, .T. ) ;
#609 = DATE_AND_TIME ( #270, #193 ) ;
#610 = DIRECTION ( 'NONE',  ( 0.000000000000000000, 0.7071067811865463515, 0.7071067811865487940 ) ) ;
#611 = ORIENTED_EDGE ( 'NONE', *, *, #321, .T. ) ;
#612 = VECTOR ( 'NONE', #686, 1000.000000000000000 ) ;
#613 = AXIS2_PLACEMENT_3D ( 'NONE', #565, #64, #291 ) ;
#614 = VECTOR ( 'NONE', #534, 1000.000000000000000 ) ;
#615 = COORDINATED_UNIVERSAL_TIME_OFFSET ( 1, 0, .AHEAD. ) ;
#616 = PLANE ( 'NONE',  #719 ) ;
#617 = ORIENTED_EDGE ( 'NONE', *, *, #249, .F. ) ;
#618 = ADVANCED_FACE ( 'NONE', ( #186 ), #690, .T. ) ;
#619 = CARTESIAN_POINT ( 'NONE',  ( -3.999999999999999112, 0.000000000000000000, 4.000000000000000000 ) ) ;
#620 = EDGE_LOOP ( 'NONE', ( #165, #157, #72, #318 ) ) ;
#621 = CARTESIAN_POINT ( 'NONE',  ( 22.00000000000000355, 0.000000000000000000, 10.00000000000000000 ) ) ;
#622 = ORIENTED_EDGE ( 'NONE', *, *, #3, .F. ) ;
#623 = CARTESIAN_POINT ( 'NONE',  ( 0.000000000000000000, 6.000000000000000000, 10.00000000000000000 ) ) ;
#624 = AXIS2_PLACEMENT_3D ( 'NONE', #518, #467, #293 ) ;
#625 = CIRCLE ( 'NONE', #304, 3.000000000000010658 ) ;
#626 = DIRECTION ( 'NONE',  ( 1.000000000000000000, 0.000000000000000000, 0.000000000000000000 ) ) ;
#627 = VERTEX_POINT ( 'NONE', #16 ) ;
#628 = DESIGN_CONTEXT ( 'detailed design', #646, 'design' ) ;
#629 = CC_DESIGN_DATE_AND_TIME_ASSIGNMENT ( #501, #446, ( #365 ) ) ;
#630 = DIRECTION ( 'NONE',  ( 5.421010862427523403E-17, -1.000000000000000000, 0.000000000000000000 ) ) ;
#631 = ORIENTED_EDGE ( 'NONE', *, *, #190, .T. ) ;
#632 = CARTESIAN_POINT ( 'NONE',  ( 14.00000000000000178, 6.000000000000000000, 10.00000000000000000 ) ) ;
#633 = LINE ( 'NONE', #70, #366 ) ;
#634 = LINE ( 'NONE', #527, #612 ) ;
#635 = ORIENTED_EDGE ( 'NONE', *, *, #338, .T. ) ;
#636 = FACE_OUTER_BOUND ( 'NONE', #620, .T. ) ;
#637 = EDGE_LOOP ( 'NONE', ( #611, #672, #535, #511 ) ) ;
#638 = CARTESIAN_POINT ( 'NONE',  ( -3.999999999999999112, 0.000000000000000000, 5.000000000000000000 ) ) ;
#639 = CIRCLE ( 'NONE', #613, 1.000000000000000000 ) ;
#640 = CARTESIAN_POINT ( 'NONE',  ( 18.00000000000000355, -3.469446951953614189E-15, 5.000000000000000000 ) ) ;
#641 = EDGE_CURVE ( 'NONE', #664, #468, #634, .T. ) ;
#642 = CARTESIAN_POINT ( 'NONE',  ( -8.000000000000000000, 6.938893903907228378E-15, 0.000000000000000000 ) ) ;
#643 = VERTEX_POINT ( 'NONE', #131 ) ;
#644 = FACE_OUTER_BOUND ( 'NONE', #22, .T. ) ;
#645 = CARTESIAN_POINT ( 'NONE',  ( -1.084202172485504681E-16, 2.000000000000000000, 10.00000000000000000 ) ) ;
#646 = APPLICATION_CONTEXT ( 'configuration controlled 3d designs of mechanical parts and assemblies' ) ;
#647 = CARTESIAN_POINT ( 'NONE',  ( 0.000000000000000000, 0.000000000000000000, 0.000000000000000000 ) ) ;
#648 = AXIS2_PLACEMENT_3D ( 'NONE', #412, #178, #350 ) ;
#649 = LINE ( 'NONE', #44, #614 ) ;
#650 = MANIFOLD_SOLID_BREP ( 'Fillet1', #593 ) ;
#651 = LINE ( 'NONE', #259, #358 ) ;
#652 = ORIENTED_EDGE ( 'NONE', *, *, #344, .T. ) ;
#653 = CARTESIAN_POINT ( 'NONE',  ( 18.00000000000000355, 1.999999999999999556, 5.000000000000000000 ) ) ;
#654 = ORIENTED_EDGE ( 'NONE', *, *, #204, .T. ) ;
#655 = ADVANCED_FACE ( 'NONE', ( #355 ), #166, .F. ) ;
#656 = APPROVAL_DATE_TIME ( #494, #491 ) ;
#657 = CARTESIAN_POINT ( 'NONE',  ( 14.00000000000000178, 1.999999999999999556, 0.000000000000000000 ) ) ;
#658 = VERTEX_POINT ( 'NONE', #82 ) ;
#659 = AXIS2_PLACEMENT_3D ( 'NONE', #563, #379, #392 ) ;
#660 = PRODUCT_DEFINITION_FORMATION_WITH_SPECIFIED_SOURCE ( 'ANY', '', #73, .NOT_KNOWN. ) ;
#661 = VECTOR ( 'NONE', #673, 1000.000000000000000 ) ;
#662 = EDGE_CURVE ( 'NONE', #161, #69, #303, .T. ) ;
#663 = FACE_OUTER_BOUND ( 'NONE', #310, .T. ) ;
#664 = VERTEX_POINT ( 'NONE', #515 ) ;
#665 = CALENDAR_DATE ( 2026, 7, 5 ) ;
#666 = CARTESIAN_POINT ( 'NONE',  ( 22.00000000000000355, 2.089722925104964876E-16, 10.00000000000000000 ) ) ;
#667 = ORIENTED_EDGE ( 'NONE', *, *, #421, .F. ) ;
#668 = PERSON_AND_ORGANIZATION ( #490, #251 ) ;
#669 = EDGE_CURVE ( 'NONE', #664, #599, #395, .T. ) ;
#670 = ADVANCED_FACE ( 'NONE', ( #570 ), #12, .F. ) ;
#671 = LINE ( 'NONE', #167, #143 ) ;
#672 = ORIENTED_EDGE ( 'NONE', *, *, #357, .T. ) ;
#673 = DIRECTION ( 'NONE',  ( -0.000000000000000000, -0.000000000000000000, -1.000000000000000000 ) ) ;
#674 = VECTOR ( 'NONE', #465, 1000.000000000000000 ) ;
#675 = PERSON_AND_ORGANIZATION_ROLE ( 'classification_officer' ) ;
#676 = DIRECTION ( 'NONE',  ( 0.000000000000000000, 1.000000000000000000, -0.000000000000000000 ) ) ;
#677 = ORIENTED_EDGE ( 'NONE', *, *, #76, .F. ) ;
#678 = DIRECTION ( 'NONE',  ( 0.000000000000000000, 0.7071067811865464625, 0.7071067811865486830 ) ) ;
#679 = ORIENTED_EDGE ( 'NONE', *, *, #316, .T. ) ;
#680 = PLANE ( 'NONE',  #98 ) ;
#681 = ORIENTED_EDGE ( 'NONE', *, *, #542, .T. ) ;
#682 = CARTESIAN_POINT ( 'NONE',  ( 12.00000000000000000, -1.889455061541630085E-15, 0.000000000000000000 ) ) ;
#683 = VECTOR ( 'NONE', #117, 999.9999999999998863 ) ;
#684 = EDGE_CURVE ( 'NONE', #643, #279, #702, .T. ) ;
#685 = VECTOR ( 'NONE', #341, 1000.000000000000000 ) ;
#686 = DIRECTION ( 'NONE',  ( -0.000000000000000000, -0.000000000000000000, -1.000000000000000000 ) ) ;
#687 = VERTEX_POINT ( 'NONE', #536 ) ;
#688 = CARTESIAN_POINT ( 'NONE',  ( 12.00000000000000000, 0.000000000000000000, 0.000000000000000000 ) ) ;
#689 = PRODUCT_DEFINITION_SHAPE ( 'NONE', 'NONE',  #15 ) ;
#690 = CYLINDRICAL_SURFACE ( 'NONE', #624, 1.000000000000000888 ) ;
#691 = ADVANCED_FACE ( 'NONE', ( #194 ), #594, .F. ) ;
#692 = CARTESIAN_POINT ( 'NONE',  ( 0.000000000000000000, 7.000000000000000000, 10.00000000000000000 ) ) ;
#693 = EDGE_CURVE ( 'NONE', #468, #197, #314, .T. ) ;
#694 = CARTESIAN_POINT ( 'NONE',  ( 14.00000000000000178, 6.000000000000000000, 10.00000000000000000 ) ) ;
#695 = VECTOR ( 'NONE', #678, 999.9999999999998863 ) ;
#696 = DIRECTION ( 'NONE',  ( 3.703541051174831253E-17, -1.000000000000000000, 0.000000000000000000 ) ) ;
#697 = ORIENTED_EDGE ( 'NONE', *, *, #552, .F. ) ;
#698 = CARTESIAN_POINT ( 'NONE',  ( 14.00000000000000178, 0.000000000000000000, 10.00000000000000000 ) ) ;
#699 = ORIENTED_EDGE ( 'NONE', *, *, #267, .F. ) ;
#700 = CARTESIAN_POINT ( 'NONE',  ( -8.000000000000000000, -2.962832840939865002E-16, 0.000000000000000000 ) ) ;
#701 = EDGE_CURVE ( 'NONE', #687, #390, #84, .T. ) ;
#702 = LINE ( 'NONE', #642, #181 ) ;
#703 = DIRECTION ( 'NONE',  ( -1.000000000000000000, -5.421010862427523403E-17, 0.000000000000000000 ) ) ;
#704 = ADVANCED_BREP_SHAPE_REPRESENTATION ( 'D5 - wires track', ( #650, #154 ), #65 ) ;
#705 = VECTOR ( 'NONE', #610, 1000.000000000000000 ) ;
#706 = DIRECTION ( 'NONE',  ( 0.000000000000000000, 1.000000000000000000, -0.000000000000000000 ) ) ;
#707 = VERTEX_POINT ( 'NONE', #597 ) ;
#708 = VECTOR ( 'NONE', #368, 1000.000000000000000 ) ;
#709 = DIRECTION ( 'NONE',  ( -1.000000000000000000, 0.000000000000000000, 0.000000000000000000 ) ) ;
#710 = EDGE_CURVE ( 'NONE', #404, #715, #151, .T. ) ;
#711 = DIRECTION ( 'NONE',  ( 1.000000000000000000, 0.000000000000000000, 0.000000000000000000 ) ) ;
#712 = VERTEX_POINT ( 'NONE', #422 ) ;
#713 = APPROVAL_STATUS ( 'not_yet_approved' ) ;
#714 = DIRECTION ( 'NONE',  ( 1.000000000000000000, 0.000000000000000000, 0.000000000000000000 ) ) ;
#715 = VERTEX_POINT ( 'NONE', #201 ) ;
#716 = EDGE_CURVE ( 'NONE', #493, #627, #93, .T. ) ;
#717 = CARTESIAN_POINT ( 'NONE',  ( 2.000000000000000444, 4.000000000000000000, 0.000000000000000000 ) ) ;
#718 = EDGE_LOOP ( 'NONE', ( #13, #519, #336, #456 ) ) ;
#719 = AXIS2_PLACEMENT_3D ( 'NONE', #217, #286, #714 ) ;
ENDSEC;
END-ISO-10303-21;
