ISO-10303-21;
HEADER;
FILE_DESCRIPTION (( 'STEP AP203' ),
    '1' );
FILE_NAME ('D5 - IR slider for the track.STEP',
    '2026-05-07T09:34:37',
    ( '' ),
    ( '' ),
    'SwSTEP 2.0',
    'SolidWorks 2025',
    '' );
FILE_SCHEMA (( 'CONFIG_CONTROL_DESIGN' ));
ENDSEC;

DATA;
#1 = DIRECTION ( 'NONE',  ( 0.000000000000000000, 1.000000000000000000, -0.000000000000000000 ) ) ;
#2 = CARTESIAN_POINT ( 'NONE',  ( -0.000000000000000000, 2.000000000000000000, 0.000000000000000000 ) ) ;
#3 = AXIS2_PLACEMENT_3D ( 'NONE', #695, #535, #1153 ) ;
#4 = CARTESIAN_POINT ( 'NONE',  ( 2.700000000000001066, 2.000000000000000000, 3.000000000000000000 ) ) ;
#5 = EDGE_LOOP ( 'NONE', ( #285, #586, #697, #339, #1018 ) ) ;
#6 = ORIENTED_EDGE ( 'NONE', *, *, #639, .T. ) ;
#7 = CARTESIAN_POINT ( 'NONE',  ( 3.700000000000001066, 1.000000000000001776, 17.49999999999999645 ) ) ;
#8 = LINE ( 'NONE', #566, #528 ) ;
#9 = EDGE_CURVE ( 'NONE', #323, #457, #316, .T. ) ;
#10 = LINE ( 'NONE', #372, #398 ) ;
#11 = AXIS2_PLACEMENT_3D ( 'NONE', #1107, #642, #1005 ) ;
#12 = ORIENTED_EDGE ( 'NONE', *, *, #265, .T. ) ;
#13 = CARTESIAN_POINT ( 'NONE',  ( -0.000000000000000000, 2.000000000000000000, 0.000000000000000000 ) ) ;
#14 = DIRECTION ( 'NONE',  ( -0.000000000000000000, -0.000000000000000000, 1.000000000000000000 ) ) ;
#15 = DIRECTION ( 'NONE',  ( 0.000000000000000000, -0.000000000000000000, 1.000000000000000000 ) ) ;
#16 = APPROVAL ( #420, 'UNSPECIFIED' ) ;
#17 = VERTEX_POINT ( 'NONE', #441 ) ;
#18 = CARTESIAN_POINT ( 'NONE',  ( 3.700000000000001510, 1.000000000000001776, 17.49999999999999645 ) ) ;
#19 = LINE ( 'NONE', #2, #311 ) ;
#20 = DIRECTION ( 'NONE',  ( 1.000000000000000000, 0.000000000000000000, 0.000000000000000000 ) ) ;
#21 = ORIENTED_EDGE ( 'NONE', *, *, #205, .T. ) ;
#22 = DIRECTION ( 'NONE',  ( 1.000000000000000000, 0.000000000000000000, 0.000000000000000000 ) ) ;
#23 = CARTESIAN_POINT ( 'NONE',  ( 16.29999999999999716, 10.94000000000000128, 3.000000000000000000 ) ) ;
#24 = VERTEX_POINT ( 'NONE', #540 ) ;
#25 = EDGE_CURVE ( 'NONE', #317, #457, #342, .T. ) ;
#26 = VECTOR ( 'NONE', #1, 1000.000000000000000 ) ;
#27 = LINE ( 'NONE', #1026, #557 ) ;
#28 = DIRECTION ( 'NONE',  ( 1.000000000000000000, 0.000000000000000000, 0.000000000000000000 ) ) ;
#29 = ORIENTED_EDGE ( 'NONE', *, *, #483, .T. ) ;
#30 = ORIENTED_EDGE ( 'NONE', *, *, #613, .T. ) ;
#31 = CC_DESIGN_PERSON_AND_ORGANIZATION_ASSIGNMENT ( #629, #978, ( #496 ) ) ;
#32 = LINE ( 'NONE', #575, #409 ) ;
#33 = DIRECTION ( 'NONE',  ( 1.000000000000000000, 0.000000000000000000, 0.000000000000000000 ) ) ;
#34 = ORIENTED_EDGE ( 'NONE', *, *, #680, .F. ) ;
#35 = EDGE_LOOP ( 'NONE', ( #229, #885, #34, #564 ) ) ;
#36 = DIRECTION ( 'NONE',  ( 1.000000000000000000, 0.000000000000000000, 0.000000000000000000 ) ) ;
#37 = AXIS2_PLACEMENT_3D ( 'NONE', #1092, #644, #826 ) ;
#38 = LINE ( 'NONE', #222, #60 ) ;
#39 = ADVANCED_FACE ( 'NONE', ( #351 ), #171, .F. ) ;
#40 = DIRECTION ( 'NONE',  ( -0.000000000000000000, -0.000000000000000000, 1.000000000000000000 ) ) ;
#41 = ORIENTED_EDGE ( 'NONE', *, *, #619, .T. ) ;
#42 = ORIENTED_EDGE ( 'NONE', *, *, #977, .F. ) ;
#43 =( NAMED_UNIT ( * ) SI_UNIT ( $, .STERADIAN. ) SOLID_ANGLE_UNIT ( ) );
#44 = CC_DESIGN_APPROVAL ( #16, ( #1074 ) ) ;
#45 = VECTOR ( 'NONE', #20, 1000.000000000000000 ) ;
#46 = CARTESIAN_POINT ( 'NONE',  ( 4.700000000000000178, 4.599999999999999645, -1.500000000000000000 ) ) ;
#47 = LINE ( 'NONE', #845, #665 ) ;
#48 = VECTOR ( 'NONE', #896, 1000.000000000000000 ) ;
#49 = VERTEX_POINT ( 'NONE', #982 ) ;
#50 = ORIENTED_EDGE ( 'NONE', *, *, #1167, .F. ) ;
#51 = AXIS2_PLACEMENT_3D ( 'NONE', #428, #694, #329 ) ;
#52 = SECURITY_CLASSIFICATION_LEVEL ( 'unclassified' ) ;
#53 = CARTESIAN_POINT ( 'NONE',  ( 20.00000000000000000, 2.000000000000000000, 3.000000000000000000 ) ) ;
#54 = LINE ( 'NONE', #127, #429 ) ;
#55 = ORIENTED_EDGE ( 'NONE', *, *, #651, .T. ) ;
#56 = EDGE_LOOP ( 'NONE', ( #145, #50, #444, #128 ) ) ;
#57 = VECTOR ( 'NONE', #718, 1000.000000000000000 ) ;
#58 = CARTESIAN_POINT ( 'NONE',  ( 15.30000000000000071, 4.599999999999999645, -1.500000000000000000 ) ) ;
#59 = CARTESIAN_POINT ( 'NONE',  ( 2.700000000000001066, 4.900000000000000355, 3.000000000000000000 ) ) ;
#60 = VECTOR ( 'NONE', #389, 1000.000000000000000 ) ;
#61 = CARTESIAN_POINT ( 'NONE',  ( 3.700000000000001510, 4.400235508076455084E-16, 17.49999999999999645 ) ) ;
#62 = VERTEX_POINT ( 'NONE', #900 ) ;
#63 = EDGE_CURVE ( 'NONE', #901, #591, #524, .T. ) ;
#64 = VECTOR ( 'NONE', #825, 1000.000000000000000 ) ;
#65 = FACE_OUTER_BOUND ( 'NONE', #289, .T. ) ;
#66 = CARTESIAN_POINT ( 'NONE',  ( 0.000000000000000000, 4.900000000000000355, 3.000000000000000000 ) ) ;
#67 = DIRECTION ( 'NONE',  ( -1.000000000000000000, 0.000000000000000000, -0.000000000000000000 ) ) ;
#68 = EDGE_LOOP ( 'NONE', ( #918, #1001, #801, #312 ) ) ;
#69 = DATE_AND_TIME ( #887, #678 ) ;
#70 = EDGE_CURVE ( 'NONE', #412, #353, #327, .T. ) ;
#71 = PLANE ( 'NONE',  #354 ) ;
#72 = LINE ( 'NONE', #701, #269 ) ;
#73 = EDGE_CURVE ( 'NONE', #527, #935, #166, .T. ) ;
#74 = CARTESIAN_POINT ( 'NONE',  ( 15.30000000000000071, 0.000000000000000000, -1.500000000000000000 ) ) ;
#75 = ORIENTED_EDGE ( 'NONE', *, *, #977, .T. ) ;
#76 = CARTESIAN_POINT ( 'NONE',  ( 0.000000000000000000, 9.940000000000001279, 17.49999999999999645 ) ) ;
#77 = PLANE ( 'NONE',  #3 ) ;
#78 = DIRECTION ( 'NONE',  ( -0.000000000000000000, 0.000000000000000000, 1.000000000000000000 ) ) ;
#79 = EDGE_CURVE ( 'NONE', #438, #366, #785, .T. ) ;
#80 = ORIENTED_EDGE ( 'NONE', *, *, #952, .T. ) ;
#81 = ORIENTED_EDGE ( 'NONE', *, *, #377, .T. ) ;
#82 = DIRECTION ( 'NONE',  ( -0.000000000000000000, -0.000000000000000000, 1.000000000000000000 ) ) ;
#83 = CARTESIAN_POINT ( 'NONE',  ( 4.700000000000000178, 2.000000000000000000, 3.000000000000000444 ) ) ;
#84 = CARTESIAN_POINT ( 'NONE',  ( 2.700000000000000178, 10.94000000000000128, 18.50000000000000000 ) ) ;
#85 = ADVANCED_FACE ( 'NONE', ( #611 ), #1149, .T. ) ;
#86 = AXIS2_PLACEMENT_3D ( 'NONE', #90, #742, #292 ) ;
#87 = EDGE_LOOP ( 'NONE', ( #212, #41, #646, #581, #158 ) ) ;
#88 = AXIS2_PLACEMENT_3D ( 'NONE', #740, #1101, #921 ) ;
#89 = CARTESIAN_POINT ( 'NONE',  ( 20.00000000000000000, 2.000000000000000000, 0.000000000000000000 ) ) ;
#90 = CARTESIAN_POINT ( 'NONE',  ( 0.000000000000000000, 1.000000000000001776, 17.49999999999999645 ) ) ;
#91 = ORIENTED_EDGE ( 'NONE', *, *, #63, .T. ) ;
#92 = VERTEX_POINT ( 'NONE', #1172 ) ;
#93 = ADVANCED_FACE ( 'NONE', ( #262 ), #519, .T. ) ;
#94 = LINE ( 'NONE', #454, #26 ) ;
#95 = CARTESIAN_POINT ( 'NONE',  ( 20.00000000000000000, 6.900000000000000355, -1.500000000000000000 ) ) ;
#96 = CARTESIAN_POINT ( 'NONE',  ( 17.30000000000000071, 4.900000000000000355, 3.000000000000000000 ) ) ;
#97 = ORIENTED_EDGE ( 'NONE', *, *, #587, .T. ) ;
#98 = AXIS2_PLACEMENT_3D ( 'NONE', #841, #132, #233 ) ;
#99 = EDGE_CURVE ( 'NONE', #640, #962, #808, .T. ) ;
#100 = EDGE_CURVE ( 'NONE', #935, #489, #387, .T. ) ;
#101 = DIRECTION ( 'NONE',  ( 1.000000000000000000, 0.000000000000000000, 0.000000000000000000 ) ) ;
#102 = DIRECTION ( 'NONE',  ( 1.000000000000000000, 0.000000000000000000, 0.000000000000000000 ) ) ;
#103 = LINE ( 'NONE', #206, #599 ) ;
#104 = VECTOR ( 'NONE', #199, 1000.000000000000000 ) ;
#105 = ORIENTED_EDGE ( 'NONE', *, *, #393, .F. ) ;
#106 = APPROVAL_PERSON_ORGANIZATION ( #388, #580, #306 ) ;
#107 = LINE ( 'NONE', #554, #600 ) ;
#108 = LINE ( 'NONE', #1091, #620 ) ;
#109 = FACE_OUTER_BOUND ( 'NONE', #686, .T. ) ;
#110 = AXIS2_PLACEMENT_3D ( 'NONE', #76, #705, #875 ) ;
#111 = ADVANCED_FACE ( 'NONE', ( #719 ), #975, .T. ) ;
#112 = ORIENTED_EDGE ( 'NONE', *, *, #622, .F. ) ;
#113 = PLANE ( 'NONE',  #576 ) ;
#114 = DIRECTION ( 'NONE',  ( 1.000000000000000000, 0.000000000000000000, 0.000000000000000000 ) ) ;
#115 = VECTOR ( 'NONE', #40, 1000.000000000000000 ) ;
#116 = EDGE_CURVE ( 'NONE', #189, #733, #1056, .T. ) ;
#117 = ORIENTED_EDGE ( 'NONE', *, *, #116, .T. ) ;
#118 = FACE_OUTER_BOUND ( 'NONE', #817, .T. ) ;
#119 = LINE ( 'NONE', #1119, #728 ) ;
#120 = LINE ( 'NONE', #934, #943 ) ;
#121 = ORIENTED_EDGE ( 'NONE', *, *, #256, .F. ) ;
#122 = VECTOR ( 'NONE', #14, 1000.000000000000000 ) ;
#123 = ORIENTED_EDGE ( 'NONE', *, *, #587, .F. ) ;
#124 = DIRECTION ( 'NONE',  ( 1.000000000000000000, 0.000000000000000000, 0.000000000000000000 ) ) ;
#125 = AXIS2_PLACEMENT_3D ( 'NONE', #830, #198, #101 ) ;
#126 = CARTESIAN_POINT ( 'NONE',  ( 4.700000000000000178, 9.000000000000001776, 8.900000000000000355 ) ) ;
#127 = CARTESIAN_POINT ( 'NONE',  ( 2.700000000000000178, 10.94000000000000128, 3.000000000000000000 ) ) ;
#128 = ORIENTED_EDGE ( 'NONE', *, *, #469, .F. ) ;
#129 = ORIENTED_EDGE ( 'NONE', *, *, #881, .F. ) ;
#130 = EDGE_CURVE ( 'NONE', #208, #235, #969, .T. ) ;
#131 = DIRECTION ( 'NONE',  ( 0.000000000000000000, -0.000000000000000000, -1.000000000000000000 ) ) ;
#132 = DIRECTION ( 'NONE',  ( 0.000000000000000000, -1.000000000000000000, 0.000000000000000000 ) ) ;
#133 = DIRECTION ( 'NONE',  ( 1.000000000000000000, 0.000000000000000000, 0.000000000000000000 ) ) ;
#134 = ORIENTED_EDGE ( 'NONE', *, *, #25, .T. ) ;
#135 = EDGE_LOOP ( 'NONE', ( #1136, #268, #1144, #304 ) ) ;
#136 = DIRECTION ( 'NONE',  ( 0.000000000000000000, -1.000000000000000000, 0.000000000000000000 ) ) ;
#137 = ADVANCED_FACE ( 'NONE', ( #423 ), #877, .T. ) ;
#138 = DIRECTION ( 'NONE',  ( -0.000000000000000000, -0.000000000000000000, 1.000000000000000000 ) ) ;
#139 = CARTESIAN_POINT ( 'NONE',  ( -0.000000000000000000, 6.900000000000000355, 0.000000000000000000 ) ) ;
#140 = ORIENTED_EDGE ( 'NONE', *, *, #369, .F. ) ;
#141 = EDGE_LOOP ( 'NONE', ( #691, #1155, #618, #585 ) ) ;
#142 = PLANE ( 'NONE',  #264 ) ;
#143 = DIRECTION ( 'NONE',  ( -0.000000000000000000, 1.000000000000000000, -0.000000000000000000 ) ) ;
#144 = VECTOR ( 'NONE', #67, 1000.000000000000000 ) ;
#145 = ORIENTED_EDGE ( 'NONE', *, *, #100, .T. ) ;
#146 = ADVANCED_FACE ( 'NONE', ( #337 ), #708, .T. ) ;
#147 = VERTEX_POINT ( 'NONE', #376 ) ;
#148 = CIRCLE ( 'NONE', #965, 1.000000000000000888 ) ;
#149 = DIRECTION ( 'NONE',  ( 1.000000000000000000, 0.000000000000000000, 0.000000000000000000 ) ) ;
#150 = DIRECTION ( 'NONE',  ( 1.000000000000000000, -0.000000000000000000, -0.000000000000000000 ) ) ;
#151 = DIRECTION ( 'NONE',  ( -1.000000000000000000, 0.000000000000000000, 0.000000000000000000 ) ) ;
#152 = EDGE_CURVE ( 'NONE', #591, #235, #358, .T. ) ;
#153 = ORIENTED_EDGE ( 'NONE', *, *, #247, .F. ) ;
#154 = VECTOR ( 'NONE', #143, 1000.000000000000000 ) ;
#155 = FACE_OUTER_BOUND ( 'NONE', #822, .T. ) ;
#156 = DIRECTION ( 'NONE',  ( -1.000000000000000000, 0.000000000000000000, 0.000000000000000000 ) ) ;
#157 = DIRECTION ( 'NONE',  ( -0.000000000000000000, -0.000000000000000000, 1.000000000000000000 ) ) ;
#158 = ORIENTED_EDGE ( 'NONE', *, *, #491, .F. ) ;
#159 = AXIS2_PLACEMENT_3D ( 'NONE', #777, #400, #1043 ) ;
#160 = VERTEX_POINT ( 'NONE', #653 ) ;
#161 = ADVANCED_FACE ( 'NONE', ( #1017 ), #200, .F. ) ;
#162 = COORDINATED_UNIVERSAL_TIME_OFFSET ( 1, 0, .AHEAD. ) ;
#163 = CIRCLE ( 'NONE', #11, 1.000000000000000888 ) ;
#164 = AXIS2_PLACEMENT_3D ( 'NONE', #313, #136, #502 ) ;
#165 = FACE_OUTER_BOUND ( 'NONE', #793, .T. ) ;
#166 = LINE ( 'NONE', #792, #1021 ) ;
#167 = ORIENTED_EDGE ( 'NONE', *, *, #606, .T. ) ;
#168 = EDGE_CURVE ( 'NONE', #147, #951, #456, .T. ) ;
#169 = CYLINDRICAL_SURFACE ( 'NONE', #110, 1.000000000000000888 ) ;
#170 = CARTESIAN_POINT ( 'NONE',  ( 0.000000000000000000, 0.000000000000000000, -1.500000000000000000 ) ) ;
#171 = PLANE ( 'NONE',  #352 ) ;
#172 = ORIENTED_EDGE ( 'NONE', *, *, #344, .T. ) ;
#173 = PERSON_AND_ORGANIZATION_ROLE ( 'design_supplier' ) ;
#174 = CARTESIAN_POINT ( 'NONE',  ( 0.000000000000000000, 2.000000000000000000, 3.000000000000000000 ) ) ;
#175 = ADVANCED_FACE ( 'NONE', ( #109 ), #731, .F. ) ;
#176 = DIRECTION ( 'NONE',  ( -0.000000000000000000, 0.000000000000000000, -1.000000000000000000 ) ) ;
#177 = DIRECTION ( 'NONE',  ( 0.000000000000000000, 0.000000000000000000, 1.000000000000000000 ) ) ;
#178 = ORIENTED_EDGE ( 'NONE', *, *, #393, .T. ) ;
#179 = LINE ( 'NONE', #818, #330 ) ;
#180 = LINE ( 'NONE', #724, #675 ) ;
#181 = CARTESIAN_POINT ( 'NONE',  ( 0.000000000000000000, 6.900000000000000355, -1.500000000000000000 ) ) ;
#182 = ORIENTED_EDGE ( 'NONE', *, *, #881, .T. ) ;
#183 = EDGE_CURVE ( 'NONE', #396, #49, #476, .T. ) ;
#184 = ORIENTED_EDGE ( 'NONE', *, *, #809, .F. ) ;
#185 = AXIS2_PLACEMENT_3D ( 'NONE', #18, #286, #1090 ) ;
#186 = LINE ( 'NONE', #898, #752 ) ;
#187 = DIRECTION ( 'NONE',  ( 0.000000000000000000, -0.000000000000000000, -1.000000000000000000 ) ) ;
#188 = DIRECTION ( 'NONE',  ( -0.000000000000000000, -1.000000000000000000, -0.000000000000000000 ) ) ;
#189 = VERTEX_POINT ( 'NONE', #814 ) ;
#190 = ORIENTED_EDGE ( 'NONE', *, *, #1077, .F. ) ;
#191 = ADVANCED_FACE ( 'NONE', ( #747 ), #1180, .T. ) ;
#192 = CARTESIAN_POINT ( 'NONE',  ( 2.700000000000000178, 10.94000000000000128, 3.000000000000000000 ) ) ;
#193 = LINE ( 'NONE', #555, #1094 ) ;
#194 = LINE ( 'NONE', #1022, #349 ) ;
#195 = ORIENTED_EDGE ( 'NONE', *, *, #1099, .T. ) ;
#196 = EDGE_CURVE ( 'NONE', #864, #236, #1012, .T. ) ;
#197 = EDGE_CURVE ( 'NONE', #864, #930, #194, .T. ) ;
#198 = DIRECTION ( 'NONE',  ( 0.000000000000000000, -0.000000000000000000, -1.000000000000000000 ) ) ;
#199 = DIRECTION ( 'NONE',  ( -0.000000000000000000, -0.000000000000000000, 1.000000000000000000 ) ) ;
#200 = PLANE ( 'NONE',  #260 ) ;
#201 = VERTEX_POINT ( 'NONE', #658 ) ;
#202 = APPROVAL_PERSON_ORGANIZATION ( #1169, #16, #530 ) ;
#203 = VECTOR ( 'NONE', #924, 1000.000000000000000 ) ;
#204 = CARTESIAN_POINT ( 'NONE',  ( 15.30000000000000071, 0.000000000000000000, -1.500000000000000000 ) ) ;
#205 = EDGE_CURVE ( 'NONE', #49, #945, #103, .T. ) ;
#206 = CARTESIAN_POINT ( 'NONE',  ( 17.30000000000000071, 1.000000000000000888, 18.50000000000000000 ) ) ;
#207 = VECTOR ( 'NONE', #531, 1000.000000000000000 ) ;
#208 = VERTEX_POINT ( 'NONE', #96 ) ;
#209 = PLANE ( 'NONE',  #305 ) ;
#210 = DIRECTION ( 'NONE',  ( 0.000000000000000000, -0.000000000000000000, 1.000000000000000000 ) ) ;
#211 = VECTOR ( 'NONE', #974, 1000.000000000000000 ) ;
#212 = ORIENTED_EDGE ( 'NONE', *, *, #838, .F. ) ;
#213 = CIRCLE ( 'NONE', #879, 1.000000000000000888 ) ;
#214 = PERSON_AND_ORGANIZATION ( #1062, #259 ) ;
#215 = LINE ( 'NONE', #955, #1068 ) ;
#216 = CARTESIAN_POINT ( 'NONE',  ( 0.000000000000000000, 4.900000000000000355, 3.000000000000000000 ) ) ;
#217 = ORIENTED_EDGE ( 'NONE', *, *, #1032, .F. ) ;
#218 = VECTOR ( 'NONE', #1016, 1000.000000000000000 ) ;
#219 = EDGE_CURVE ( 'NONE', #1181, #92, #277, .T. ) ;
#220 = ORIENTED_EDGE ( 'NONE', *, *, #383, .T. ) ;
#221 = CARTESIAN_POINT ( 'NONE',  ( 2.700000000000000178, 10.94000000000000128, 17.49999999999999645 ) ) ;
#222 = CARTESIAN_POINT ( 'NONE',  ( 0.000000000000000000, 0.000000000000000000, -1.500000000000000000 ) ) ;
#223 = CARTESIAN_POINT ( 'NONE',  ( 16.29999999999999716, 1.000000000000000888, 2.999999999999999112 ) ) ;
#224 = ORIENTED_EDGE ( 'NONE', *, *, #787, .F. ) ;
#225 = ORIENTED_EDGE ( 'NONE', *, *, #668, .F. ) ;
#226 = ADVANCED_FACE ( 'NONE', ( #832 ), #725, .T. ) ;
#227 = CARTESIAN_POINT ( 'NONE',  ( -0.000000000000000000, 2.000000000000000000, 18.50000000000000000 ) ) ;
#228 = DIRECTION ( 'NONE',  ( -0.000000000000000000, -0.000000000000000000, 1.000000000000000000 ) ) ;
#229 = ORIENTED_EDGE ( 'NONE', *, *, #613, .F. ) ;
#230 = ORIENTED_EDGE ( 'NONE', *, *, #130, .F. ) ;
#231 = CARTESIAN_POINT ( 'NONE',  ( 0.000000000000000000, 0.000000000000000000, 0.000000000000000000 ) ) ;
#232 = EDGE_CURVE ( 'NONE', #1061, #748, #551, .T. ) ;
#233 = DIRECTION ( 'NONE',  ( 0.000000000000000000, 0.000000000000000000, -1.000000000000000000 ) ) ;
#234 = CARTESIAN_POINT ( 'NONE',  ( 4.700000000000000178, 2.000000000000000000, 18.50000000000000000 ) ) ;
#235 = VERTEX_POINT ( 'NONE', #820 ) ;
#236 = VERTEX_POINT ( 'NONE', #4 ) ;
#237 = PERSON_AND_ORGANIZATION_ROLE ( 'creator' ) ;
#238 = DIRECTION ( 'NONE',  ( 1.000000000000000000, 0.000000000000000000, 0.000000000000000000 ) ) ;
#239 = AXIS2_PLACEMENT_3D ( 'NONE', #870, #408, #210 ) ;
#240 = ADVANCED_FACE ( 'NONE', ( #912 ), #365, .T. ) ;
#241 = LINE ( 'NONE', #1164, #57 ) ;
#242 = AXIS2_PLACEMENT_3D ( 'NONE', #617, #437, #804 ) ;
#243 = CARTESIAN_POINT ( 'NONE',  ( 17.30000000000000071, 1.000000000000001776, 18.50000000000000000 ) ) ;
#244 = ORIENTED_EDGE ( 'NONE', *, *, #954, .F. ) ;
#245 = DIRECTION ( 'NONE',  ( -0.000000000000000000, -0.000000000000000000, -1.000000000000000000 ) ) ;
#246 = FACE_OUTER_BOUND ( 'NONE', #135, .T. ) ;
#247 = EDGE_CURVE ( 'NONE', #201, #396, #10, .T. ) ;
#248 = CARTESIAN_POINT ( 'NONE',  ( 3.700000000000001510, 1.000000000000001776, 17.49999999999999645 ) ) ;
#249 = EDGE_CURVE ( 'NONE', #1138, #1061, #1098, .T. ) ;
#250 = ORIENTED_EDGE ( 'NONE', *, *, #377, .F. ) ;
#251 = DATE_TIME_ROLE ( 'classification_date' ) ;
#252 = CARTESIAN_POINT ( 'NONE',  ( 17.30000000000000071, 10.94000000000000128, 18.50000000000000000 ) ) ;
#253 = CARTESIAN_POINT ( 'NONE',  ( 20.00000000000000000, 6.900000000000000355, -1.500000000000000000 ) ) ;
#254 = CARTESIAN_POINT ( 'NONE',  ( 4.700000000000000178, 4.599999999999999645, -1.500000000000000000 ) ) ;
#255 = ORIENTED_EDGE ( 'NONE', *, *, #25, .F. ) ;
#256 = EDGE_CURVE ( 'NONE', #962, #709, #215, .T. ) ;
#257 = PERSON_AND_ORGANIZATION_ROLE ( 'classification_officer' ) ;
#258 = CARTESIAN_POINT ( 'NONE',  ( 4.700000000000000178, 9.000000000000001776, 18.50000000000000000 ) ) ;
#259 = ORGANIZATION ( 'UNSPECIFIED', 'UNSPECIFIED', '' ) ;
#260 = AXIS2_PLACEMENT_3D ( 'NONE', #381, #906, #15 ) ;
#261 = CARTESIAN_POINT ( 'NONE',  ( 0.000000000000000000, 4.599999999999999645, -1.500000000000000000 ) ) ;
#262 = FACE_OUTER_BOUND ( 'NONE', #537, .T. ) ;
#263 = ORIENTED_EDGE ( 'NONE', *, *, #1118, .F. ) ;
#264 = AXIS2_PLACEMENT_3D ( 'NONE', #789, #266, #534 ) ;
#265 = EDGE_CURVE ( 'NONE', #1138, #392, #38, .T. ) ;
#266 = DIRECTION ( 'NONE',  ( -0.000000000000000000, 0.000000000000000000, 1.000000000000000000 ) ) ;
#267 = PLANE ( 'NONE',  #520 ) ;
#268 = ORIENTED_EDGE ( 'NONE', *, *, #572, .F. ) ;
#269 = VECTOR ( 'NONE', #604, 1000.000000000000000 ) ;
#270 = LINE ( 'NONE', #635, #1003 ) ;
#271 = LINE ( 'NONE', #916, #104 ) ;
#272 = DIRECTION ( 'NONE',  ( -0.000000000000000000, 0.000000000000000000, 1.000000000000000000 ) ) ;
#273 = ORIENTED_EDGE ( 'NONE', *, *, #183, .T. ) ;
#274 = ORIENTED_EDGE ( 'NONE', *, *, #1165, .F. ) ;
#275 = DIRECTION ( 'NONE',  ( -0.000000000000000000, -0.000000000000000000, -1.000000000000000000 ) ) ;
#276 = CARTESIAN_POINT ( 'NONE',  ( 15.30000000000000071, 4.599999999999999645, 8.900000000000000355 ) ) ;
#277 = LINE ( 'NONE', #463, #405 ) ;
#278 = ADVANCED_FACE ( 'NONE', ( #583 ), #941, .T. ) ;
#279 = ORIENTED_EDGE ( 'NONE', *, *, #469, .T. ) ;
#280 = ORIENTED_EDGE ( 'NONE', *, *, #1167, .T. ) ;
#281 = CIRCLE ( 'NONE', #643, 1.000000000000000000 ) ;
#282 = DIRECTION ( 'NONE',  ( 1.000000000000000000, 0.000000000000000000, 0.000000000000000000 ) ) ;
#283 = DIRECTION ( 'NONE',  ( 0.000000000000000000, 1.000000000000000000, 0.000000000000000000 ) ) ;
#284 = CARTESIAN_POINT ( 'NONE',  ( 0.000000000000000000, 0.000000000000000000, -1.500000000000000000 ) ) ;
#285 = ORIENTED_EDGE ( 'NONE', *, *, #1084, .T. ) ;
#286 = DIRECTION ( 'NONE',  ( 0.000000000000000000, 0.000000000000000000, 1.000000000000000000 ) ) ;
#287 = CARTESIAN_POINT ( 'NONE',  ( 16.29999999999999716, 9.940000000000001279, 17.49999999999999645 ) ) ;
#288 = DIRECTION ( 'NONE',  ( 0.000000000000000000, 1.000000000000000000, -0.000000000000000000 ) ) ;
#289 = EDGE_LOOP ( 'NONE', ( #273, #21, #303, #780, #886, #382 ) ) ;
#290 = ADVANCED_FACE ( 'NONE', ( #948 ), #209, .T. ) ;
#291 = DIRECTION ( 'NONE',  ( -0.000000000000000000, -0.000000000000000000, 1.000000000000000000 ) ) ;
#292 = DIRECTION ( 'NONE',  ( 0.000000000000000000, 0.000000000000000000, 1.000000000000000000 ) ) ;
#293 = ORIENTED_EDGE ( 'NONE', *, *, #513, .F. ) ;
#294 = AXIS2_PLACEMENT_3D ( 'NONE', #1161, #1066, #696 ) ;
#295 = PLANE ( 'NONE',  #348 ) ;
#296 = DIRECTION ( 'NONE',  ( -1.000000000000000000, -0.000000000000000000, -0.000000000000000000 ) ) ;
#297 = VECTOR ( 'NONE', #363, 1000.000000000000000 ) ;
#298 = ORIENTED_EDGE ( 'NONE', *, *, #168, .F. ) ;
#299 = CARTESIAN_POINT ( 'NONE',  ( 16.29999999999999716, 1.000000000000001776, 17.49999999999999645 ) ) ;
#300 = LINE ( 'NONE', #933, #453 ) ;
#301 = DIRECTION ( 'NONE',  ( 1.000000000000000000, 0.000000000000000000, 0.000000000000000000 ) ) ;
#302 = AXIS2_PLACEMENT_3D ( 'NONE', #1126, #321, #28 ) ;
#303 = ORIENTED_EDGE ( 'NONE', *, *, #843, .T. ) ;
#304 = ORIENTED_EDGE ( 'NONE', *, *, #249, .T. ) ;
#305 = AXIS2_PLACEMENT_3D ( 'NONE', #492, #407, #498 ) ;
#306 = APPROVAL_ROLE ( '' ) ;
#307 = DIRECTION ( 'NONE',  ( 0.000000000000000000, 0.000000000000000000, -1.000000000000000000 ) ) ;
#308 = CARTESIAN_POINT ( 'NONE',  ( 16.29999999999999716, 1.000000000000000888, 18.50000000000000000 ) ) ;
#309 = ADVANCED_FACE ( 'NONE', ( #861 ), #1141, .F. ) ;
#310 = EDGE_LOOP ( 'NONE', ( #964, #732, #645, #391 ) ) ;
#311 = VECTOR ( 'NONE', #375, 1000.000000000000000 ) ;
#312 = ORIENTED_EDGE ( 'NONE', *, *, #79, .F. ) ;
#313 = CARTESIAN_POINT ( 'NONE',  ( 0.000000000000000000, 2.000000000000000000, -1.500000000000000000 ) ) ;
#314 = CARTESIAN_POINT ( 'NONE',  ( 15.30000000000000071, 2.000000000000000000, -1.500000000000000000 ) ) ;
#315 = CARTESIAN_POINT ( 'NONE',  ( 15.30000000000000071, 2.000000000000000000, -1.500000000000000000 ) ) ;
#316 = LINE ( 'NONE', #254, #716 ) ;
#317 = VERTEX_POINT ( 'NONE', #126 ) ;
#318 = EDGE_CURVE ( 'NONE', #990, #482, #27, .T. ) ;
#319 = DIRECTION ( 'NONE',  ( 0.000000000000000000, -1.000000000000000000, 0.000000000000000000 ) ) ;
#320 = CARTESIAN_POINT ( 'NONE',  ( 4.700000000000000178, 9.000000000000001776, 8.900000000000000355 ) ) ;
#321 = DIRECTION ( 'NONE',  ( 0.000000000000000000, 0.000000000000000000, 1.000000000000000000 ) ) ;
#322 = VERTEX_POINT ( 'NONE', #23 ) ;
#323 = VERTEX_POINT ( 'NONE', #46 ) ;
#324 = EDGE_CURVE ( 'NONE', #1061, #1100, #119, .T. ) ;
#325 = LINE ( 'NONE', #53, #565 ) ;
#326 = FACE_OUTER_BOUND ( 'NONE', #1046, .T. ) ;
#327 = LINE ( 'NONE', #74, #48 ) ;
#328 = ORIENTED_EDGE ( 'NONE', *, *, #459, .T. ) ;
#329 = DIRECTION ( 'NONE',  ( 0.000000000000000000, 0.000000000000000000, 1.000000000000000000 ) ) ;
#330 = VECTOR ( 'NONE', #910, 1000.000000000000000 ) ;
#331 = CYLINDRICAL_SURFACE ( 'NONE', #467, 1.000000000000000000 ) ;
#332 = DIRECTION ( 'NONE',  ( 1.000000000000000000, -4.336808689942019708E-16, 0.000000000000000000 ) ) ;
#333 = ORIENTED_EDGE ( 'NONE', *, *, #1099, .F. ) ;
#334 = CALENDAR_DATE ( 2026, 7, 5 ) ;
#335 = PLANE ( 'NONE',  #473 ) ;
#336 = LINE ( 'NONE', #706, #211 ) ;
#337 = FACE_OUTER_BOUND ( 'NONE', #68, .T. ) ;
#338 = EDGE_CURVE ( 'NONE', #438, #733, #213, .T. ) ;
#339 = ORIENTED_EDGE ( 'NONE', *, *, #196, .F. ) ;
#340 = LINE ( 'NONE', #474, #297 ) ;
#341 = DIRECTION ( 'NONE',  ( 1.000000000000000000, 0.000000000000000000, 0.000000000000000000 ) ) ;
#342 = LINE ( 'NONE', #711, #866 ) ;
#343 = EDGE_CURVE ( 'NONE', #24, #189, #601, .T. ) ;
#344 = EDGE_CURVE ( 'NONE', #392, #92, #768, .T. ) ;
#345 = ORIENTED_EDGE ( 'NONE', *, *, #355, .T. ) ;
#346 = COORDINATED_UNIVERSAL_TIME_OFFSET ( 1, 0, .AHEAD. ) ;
#347 = LINE ( 'NONE', #973, #776 ) ;
#348 = AXIS2_PLACEMENT_3D ( 'NONE', #939, #588, #22 ) ;
#349 = VECTOR ( 'NONE', #1108, 1000.000000000000000 ) ;
#350 = CYLINDRICAL_SURFACE ( 'NONE', #569, 1.000000000000000000 ) ;
#351 = FACE_OUTER_BOUND ( 'NONE', #526, .T. ) ;
#352 = AXIS2_PLACEMENT_3D ( 'NONE', #84, #1073, #536 ) ;
#353 = VERTEX_POINT ( 'NONE', #314 ) ;
#354 = AXIS2_PLACEMENT_3D ( 'NONE', #434, #802, #1163 ) ;
#355 = EDGE_CURVE ( 'NONE', #821, #1042, #684, .T. ) ;
#356 = CARTESIAN_POINT ( 'NONE',  ( 0.000000000000000000, 4.900000000000000355, 0.000000000000000000 ) ) ;
#357 = CARTESIAN_POINT ( 'NONE',  ( 15.30000000000000071, 9.000000000000001776, 8.900000000000000355 ) ) ;
#358 = LINE ( 'NONE', #1103, #563 ) ;
#359 = ORIENTED_EDGE ( 'NONE', *, *, #1032, .T. ) ;
#360 = ORIENTED_EDGE ( 'NONE', *, *, #73, .F. ) ;
#361 = AXIS2_PLACEMENT_3D ( 'NONE', #308, #1039, #1049 ) ;
#362 = EDGE_CURVE ( 'NONE', #1138, #1181, #481, .T. ) ;
#363 = DIRECTION ( 'NONE',  ( 1.000000000000000000, 0.000000000000000000, 0.000000000000000000 ) ) ;
#364 = DIRECTION ( 'NONE',  ( 0.000000000000000000, 0.000000000000000000, -1.000000000000000000 ) ) ;
#365 = PLANE ( 'NONE',  #37 ) ;
#366 = VERTEX_POINT ( 'NONE', #850 ) ;
#367 = ORIENTED_EDGE ( 'NONE', *, *, #9, .T. ) ;
#368 = ADVANCED_BREP_SHAPE_REPRESENTATION ( 'D5 - IR slider for the track', ( #525, #470 ), #677 ) ;
#369 = EDGE_CURVE ( 'NONE', #527, #957, #1116, .T. ) ;
#370 = AXIS2_PLACEMENT_3D ( 'NONE', #287, #1020, #831 ) ;
#371 = LINE ( 'NONE', #648, #791 ) ;
#372 = CARTESIAN_POINT ( 'NONE',  ( 17.30000000000000071, 9.940000000000001279, 18.50000000000000000 ) ) ;
#373 = EDGE_LOOP ( 'NONE', ( #1150, #345, #612, #897 ) ) ;
#374 = LINE ( 'NONE', #631, #698 ) ;
#375 = DIRECTION ( 'NONE',  ( 1.000000000000000000, 0.000000000000000000, 0.000000000000000000 ) ) ;
#376 = CARTESIAN_POINT ( 'NONE',  ( 4.700000000000000178, 2.000000000000000000, 0.000000000000000000 ) ) ;
#377 = EDGE_CURVE ( 'NONE', #92, #1069, #1030, .T. ) ;
#378 = ORIENTED_EDGE ( 'NONE', *, *, #1000, .F. ) ;
#379 = CARTESIAN_POINT ( 'NONE',  ( 3.700000000000000178, 9.940000000000001279, 17.49999999999999645 ) ) ;
#380 = CARTESIAN_POINT ( 'NONE',  ( 3.700000000000000178, 10.94000000000000128, 18.50000000000000000 ) ) ;
#381 = CARTESIAN_POINT ( 'NONE',  ( 0.000000000000000000, 2.000000000000000000, 3.000000000000000000 ) ) ;
#382 = ORIENTED_EDGE ( 'NONE', *, *, #247, .T. ) ;
#383 = EDGE_CURVE ( 'NONE', #1009, #1042, #300, .T. ) ;
#384 = DIRECTION ( 'NONE',  ( 1.000000000000000000, 0.000000000000000000, 0.000000000000000000 ) ) ;
#385 = ORIENTED_EDGE ( 'NONE', *, *, #809, .T. ) ;
#386 = CIRCLE ( 'NONE', #125, 1.000000000000000000 ) ;
#387 = CIRCLE ( 'NONE', #294, 1.000000000000000888 ) ;
#388 = PERSON_AND_ORGANIZATION ( #1062, #259 ) ;
#389 = DIRECTION ( 'NONE',  ( 0.000000000000000000, 0.000000000000000000, 1.000000000000000000 ) ) ;
#390 = CARTESIAN_POINT ( 'NONE',  ( 3.700000000000000178, 10.94000000000000128, 17.49999999999999645 ) ) ;
#391 = ORIENTED_EDGE ( 'NONE', *, *, #756, .F. ) ;
#392 = VERTEX_POINT ( 'NONE', #758 ) ;
#393 = EDGE_CURVE ( 'NONE', #412, #1040, #32, .T. ) ;
#394 = DIRECTION ( 'NONE',  ( -0.000000000000000000, -0.000000000000000000, 1.000000000000000000 ) ) ;
#395 = FACE_OUTER_BOUND ( 'NONE', #488, .T. ) ;
#396 = VERTEX_POINT ( 'NONE', #762 ) ;
#397 = ORIENTED_EDGE ( 'NONE', *, *, #1159, .F. ) ;
#398 = VECTOR ( 'NONE', #737, 1000.000000000000000 ) ;
#399 = DIRECTION ( 'NONE',  ( 0.000000000000000000, 0.000000000000000000, -1.000000000000000000 ) ) ;
#400 = DIRECTION ( 'NONE',  ( -2.168404344971008621E-16, 1.000000000000000000, -0.000000000000000000 ) ) ;
#401 = LINE ( 'NONE', #770, #823 ) ;
#402 = ORIENTED_EDGE ( 'NONE', *, *, #929, .T. ) ;
#403 = EDGE_LOOP ( 'NONE', ( #852, #250, #1104, #410, #692, #121, #712, #1121 ) ) ;
#404 = LOCAL_TIME ( 11, 34, 37.00000000000000000, #162 ) ;
#405 = VECTOR ( 'NONE', #449, 1000.000000000000000 ) ;
#406 = CARTESIAN_POINT ( 'NONE',  ( 2.700000000000001510, 1.734723475976807094E-15, 3.000000000000000000 ) ) ;
#407 = DIRECTION ( 'NONE',  ( 0.000000000000000000, -1.000000000000000000, 0.000000000000000000 ) ) ;
#408 = DIRECTION ( 'NONE',  ( 0.000000000000000000, 1.000000000000000000, 0.000000000000000000 ) ) ;
#409 = VECTOR ( 'NONE', #394, 1000.000000000000000 ) ;
#410 = ORIENTED_EDGE ( 'NONE', *, *, #572, .T. ) ;
#411 = ADVANCED_FACE ( 'NONE', ( #667 ), #1124, .F. ) ;
#412 = VERTEX_POINT ( 'NONE', #58 ) ;
#413 = SHAPE_DEFINITION_REPRESENTATION ( #655, #368 ) ;
#414 = CARTESIAN_POINT ( 'NONE',  ( 2.700000000000000178, 9.940000000000001279, 17.49999999999999645 ) ) ;
#415 = LINE ( 'NONE', #315, #902 ) ;
#416 = VERTEX_POINT ( 'NONE', #258 ) ;
#417 = VECTOR ( 'NONE', #532, 1000.000000000000000 ) ;
#418 = ORIENTED_EDGE ( 'NONE', *, *, #529, .T. ) ;
#419 = EDGE_CURVE ( 'NONE', #160, #944, #624, .T. ) ;
#420 = APPROVAL_STATUS ( 'not_yet_approved' ) ;
#421 = CARTESIAN_POINT ( 'NONE',  ( 16.29999999999999716, 1.734723475976807094E-15, 17.49999999999999645 ) ) ;
#422 = CARTESIAN_POINT ( 'NONE',  ( 17.30000000000000071, 1.000000000000000888, 3.000000000000000000 ) ) ;
#423 = FACE_OUTER_BOUND ( 'NONE', #56, .T. ) ;
#424 = ORIENTED_EDGE ( 'NONE', *, *, #594, .T. ) ;
#425 = VECTOR ( 'NONE', #652, 1000.000000000000000 ) ;
#426 = CC_DESIGN_APPROVAL ( #755, ( #863 ) ) ;
#427 = ADVANCED_FACE ( 'NONE', ( #1170 ), #142, .T. ) ;
#428 = CARTESIAN_POINT ( 'NONE',  ( 20.00000000000000000, 0.000000000000000000, 3.000000000000000000 ) ) ;
#429 = VECTOR ( 'NONE', #784, 1000.000000000000000 ) ;
#430 = CARTESIAN_POINT ( 'NONE',  ( 3.700000000000001066, 1.000000000000001776, 18.50000000000000000 ) ) ;
#431 = DIRECTION ( 'NONE',  ( -1.189252840020663057E-16, 1.000000000000000000, 0.000000000000000000 ) ) ;
#432 = ORIENTED_EDGE ( 'NONE', *, *, #1125, .F. ) ;
#433 = CALENDAR_DATE ( 2026, 7, 5 ) ;
#434 = CARTESIAN_POINT ( 'NONE',  ( 0.000000000000000000, 0.000000000000000000, 3.000000000000000000 ) ) ;
#435 = ADVANCED_FACE ( 'NONE', ( #155 ), #517, .F. ) ;
#436 = FACE_OUTER_BOUND ( 'NONE', #1002, .T. ) ;
#437 = DIRECTION ( 'NONE',  ( 0.000000000000000000, 0.000000000000000000, -1.000000000000000000 ) ) ;
#438 = VERTEX_POINT ( 'NONE', #421 ) ;
#439 = CARTESIAN_POINT ( 'NONE',  ( 4.700000000000000178, 9.000000000000001776, 18.50000000000000000 ) ) ;
#440 = DIRECTION ( 'NONE',  ( 0.000000000000000000, 0.000000000000000000, 1.000000000000000000 ) ) ;
#441 = CARTESIAN_POINT ( 'NONE',  ( 2.700000000000001510, 1.000000000000000888, 3.000000000000000000 ) ) ;
#442 = EDGE_LOOP ( 'NONE', ( #703, #418, #858 ) ) ;
#443 = ADVANCED_FACE ( 'NONE', ( #893 ), #169, .T. ) ;
#444 = ORIENTED_EDGE ( 'NONE', *, *, #343, .T. ) ;
#445 = DIRECTION ( 'NONE',  ( 0.000000000000000000, 0.000000000000000000, 1.000000000000000000 ) ) ;
#446 = AXIS2_PLACEMENT_3D ( 'NONE', #1006, #562, #556 ) ;
#447 = CARTESIAN_POINT ( 'NONE',  ( 15.30000000000000071, 0.000000000000000000, 18.50000000000000000 ) ) ;
#448 = VECTOR ( 'NONE', #812, 1000.000000000000000 ) ;
#449 = DIRECTION ( 'NONE',  ( 0.000000000000000000, 0.000000000000000000, 1.000000000000000000 ) ) ;
#450 = AXIS2_PLACEMENT_3D ( 'NONE', #248, #177, #332 ) ;
#451 = ORIENTED_EDGE ( 'NONE', *, *, #232, .T. ) ;
#452 = EDGE_CURVE ( 'NONE', #591, #1069, #325, .T. ) ;
#453 = VECTOR ( 'NONE', #844, 1000.000000000000000 ) ;
#454 = CARTESIAN_POINT ( 'NONE',  ( 20.00000000000000000, 0.000000000000000000, -1.500000000000000000 ) ) ;
#455 = DIRECTION ( 'NONE',  ( 1.000000000000000000, 0.000000000000000000, 0.000000000000000000 ) ) ;
#456 = LINE ( 'NONE', #649, #203 ) ;
#457 = VERTEX_POINT ( 'NONE', #699 ) ;
#458 = VERTEX_POINT ( 'NONE', #1158 ) ;
#459 = EDGE_CURVE ( 'NONE', #482, #416, #1064, .T. ) ;
#460 = ADVANCED_FACE ( 'NONE', ( #807 ), #335, .F. ) ;
#461 = DIRECTION ( 'NONE',  ( 1.000000000000000000, 0.000000000000000000, 0.000000000000000000 ) ) ;
#462 = LINE ( 'NONE', #380, #122 ) ;
#463 = CARTESIAN_POINT ( 'NONE',  ( 20.00000000000000000, 0.000000000000000000, -1.500000000000000000 ) ) ;
#464 = AXIS2_PLACEMENT_3D ( 'NONE', #320, #855, #1114 ) ;
#465 = ORIENTED_EDGE ( 'NONE', *, *, #669, .T. ) ;
#466 = DIRECTION ( 'NONE',  ( 1.000000000000000000, 0.000000000000000000, 0.000000000000000000 ) ) ;
#467 = AXIS2_PLACEMENT_3D ( 'NONE', #430, #176, #156 ) ;
#468 = LINE ( 'NONE', #1102, #425 ) ;
#469 = EDGE_CURVE ( 'NONE', #935, #189, #347, .T. ) ;
#470 = AXIS2_PLACEMENT_3D ( 'NONE', #231, #593, #124 ) ;
#471 = CARTESIAN_POINT ( 'NONE',  ( 0.000000000000000000, 0.000000000000000000, 3.000000000000000000 ) ) ;
#472 = ORIENTED_EDGE ( 'NONE', *, *, #787, .T. ) ;
#473 = AXIS2_PLACEMENT_3D ( 'NONE', #1054, #609, #149 ) ;
#474 = CARTESIAN_POINT ( 'NONE',  ( 0.000000000000000000, 4.900000000000000355, 3.000000000000000000 ) ) ;
#475 = CARTESIAN_POINT ( 'NONE',  ( 16.29999999999999716, 9.940000000000001279, 2.999999999999999112 ) ) ;
#476 = LINE ( 'NONE', #837, #920 ) ;
#477 = EDGE_LOOP ( 'NONE', ( #397, #848, #880, #167, #6, #744, #650, #385 ) ) ;
#478 = ADVANCED_FACE ( 'NONE', ( #65 ), #797, .F. ) ;
#479 = CIRCLE ( 'NONE', #302, 1.000000000000000888 ) ;
#480 = DIRECTION ( 'NONE',  ( -0.000000000000000000, 0.000000000000000000, 1.000000000000000000 ) ) ;
#481 = LINE ( 'NONE', #486, #1024 ) ;
#482 = VERTEX_POINT ( 'NONE', #979 ) ;
#483 = EDGE_CURVE ( 'NONE', #733, #527, #1079, .T. ) ;
#484 = DESIGN_CONTEXT ( 'detailed design', #508, 'design' ) ;
#485 =( NAMED_UNIT ( * ) PLANE_ANGLE_UNIT ( ) SI_UNIT ( $, .RADIAN. ) );
#486 = CARTESIAN_POINT ( 'NONE',  ( 0.000000000000000000, 0.000000000000000000, -1.500000000000000000 ) ) ;
#487 = DIRECTION ( 'NONE',  ( -0.000000000000000000, 0.000000000000000000, 1.000000000000000000 ) ) ;
#488 = EDGE_LOOP ( 'NONE', ( #184, #1143, #274, #1089 ) ) ;
#489 = VERTEX_POINT ( 'NONE', #414 ) ;
#490 = VECTOR ( 'NONE', #915, 1000.000000000000000 ) ;
#491 = EDGE_CURVE ( 'NONE', #1009, #901, #783, .T. ) ;
#492 = CARTESIAN_POINT ( 'NONE',  ( 0.000000000000000000, 0.000000000000000000, -1.500000000000000000 ) ) ;
#493 = DIRECTION ( 'NONE',  ( 0.000000000000000000, -0.000000000000000000, 1.000000000000000000 ) ) ;
#494 = ORIENTED_EDGE ( 'NONE', *, *, #73, .T. ) ;
#495 = ORIENTED_EDGE ( 'NONE', *, *, #763, .T. ) ;
#496 = PRODUCT_DEFINITION ( 'UNKNOWN', '', #1074, #484 ) ;
#497 = FACE_OUTER_BOUND ( 'NONE', #373, .T. ) ;
#498 = DIRECTION ( 'NONE',  ( 0.000000000000000000, -0.000000000000000000, -1.000000000000000000 ) ) ;
#499 = LINE ( 'NONE', #856, #115 ) ;
#500 = ORIENTED_EDGE ( 'NONE', *, *, #630, .T. ) ;
#501 = ORIENTED_EDGE ( 'NONE', *, *, #630, .F. ) ;
#502 = DIRECTION ( 'NONE',  ( 0.000000000000000000, -0.000000000000000000, -1.000000000000000000 ) ) ;
#503 = DIRECTION ( 'NONE',  ( 0.000000000000000000, 1.000000000000000000, -0.000000000000000000 ) ) ;
#504 = ADVANCED_FACE ( 'NONE', ( #603 ), #71, .F. ) ;
#505 = DIRECTION ( 'NONE',  ( -0.000000000000000000, -0.000000000000000000, 1.000000000000000000 ) ) ;
#506 = ORIENTED_EDGE ( 'NONE', *, *, #130, .T. ) ;
#507 = ORIENTED_EDGE ( 'NONE', *, *, #669, .F. ) ;
#508 = APPLICATION_CONTEXT ( 'configuration controlled 3d designs of mechanical parts and assemblies' ) ;
#509 = CIRCLE ( 'NONE', #657, 1.000000000000000888 ) ;
#510 = DIRECTION ( 'NONE',  ( -0.000000000000000000, 1.000000000000000000, 0.000000000000000000 ) ) ;
#511 = CARTESIAN_POINT ( 'NONE',  ( 16.29999999999999716, 10.94000000000000128, 18.50000000000000000 ) ) ;
#512 = CARTESIAN_POINT ( 'NONE',  ( 0.000000000000000000, 2.000000000000000000, 3.000000000000000000 ) ) ;
#513 = EDGE_CURVE ( 'NONE', #930, #944, #340, .T. ) ;
#514 = VECTOR ( 'NONE', #114, 1000.000000000000000 ) ;
#515 = ORIENTED_EDGE ( 'NONE', *, *, #872, .F. ) ;
#516 = ORIENTED_EDGE ( 'NONE', *, *, #1000, .T. ) ;
#517 = PLANE ( 'NONE',  #627 ) ;
#518 = CARTESIAN_POINT ( 'NONE',  ( 0.000000000000000000, 4.900000000000000355, 3.000000000000000000 ) ) ;
#519 = PLANE ( 'NONE',  #811 ) ;
#520 = AXIS2_PLACEMENT_3D ( 'NONE', #170, #876, #341 ) ;
#521 = ORIENTED_EDGE ( 'NONE', *, *, #824, .T. ) ;
#522 = DIRECTION ( 'NONE',  ( 1.189252840020663057E-16, -1.000000000000000000, 0.000000000000000000 ) ) ;
#523 = CARTESIAN_POINT ( 'NONE',  ( 15.30000000000000071, 2.000000000000000000, 8.900000000000000355 ) ) ;
#524 = LINE ( 'NONE', #891, #1177 ) ;
#525 = MANIFOLD_SOLID_BREP ( 'Fillet1', #963 ) ;
#526 = EDGE_LOOP ( 'NONE', ( #402, #997, #500, #779 ) ) ;
#527 = VERTEX_POINT ( 'NONE', #723 ) ;
#528 = VECTOR ( 'NONE', #364, 1000.000000000000000 ) ;
#529 = EDGE_CURVE ( 'NONE', #366, #189, #148, .T. ) ;
#530 = APPROVAL_ROLE ( '' ) ;
#531 = DIRECTION ( 'NONE',  ( 0.000000000000000000, 1.000000000000000000, -0.000000000000000000 ) ) ;
#532 = DIRECTION ( 'NONE',  ( 0.000000000000000000, -1.000000000000000000, 0.000000000000000000 ) ) ;
#533 = EDGE_LOOP ( 'NONE', ( #42, #925, #333, #839 ) ) ;
#534 = DIRECTION ( 'NONE',  ( 1.000000000000000000, 0.000000000000000000, 0.000000000000000000 ) ) ;
#535 = DIRECTION ( 'NONE',  ( 1.000000000000000000, 1.189252840020663057E-16, -0.000000000000000000 ) ) ;
#536 = DIRECTION ( 'NONE',  ( 0.000000000000000000, -0.000000000000000000, -1.000000000000000000 ) ) ;
#537 = EDGE_LOOP ( 'NONE', ( #806, #190, #172, #81, #892, #298 ) ) ;
#538 = DIRECTION ( 'NONE',  ( 4.336808689942013792E-16, 0.000000000000000000, 1.000000000000000000 ) ) ;
#539 = LINE ( 'NONE', #66, #938 ) ;
#540 = CARTESIAN_POINT ( 'NONE',  ( 2.700000000000001510, 1.000000000000001554, 17.49999999999999645 ) ) ;
#541 = EDGE_CURVE ( 'NONE', #24, #366, #1156, .T. ) ;
#542 = ORIENTED_EDGE ( 'NONE', *, *, #197, .F. ) ;
#543 = CARTESIAN_POINT ( 'NONE',  ( 15.30000000000000071, 2.000000000000000000, 18.50000000000000000 ) ) ;
#544 = AXIS2_PLACEMENT_3D ( 'NONE', #379, #647, #445 ) ;
#545 = DIRECTION ( 'NONE',  ( 0.000000000000000000, 0.000000000000000000, 1.000000000000000000 ) ) ;
#546 = ORIENTED_EDGE ( 'NONE', *, *, #232, .F. ) ;
#547 = VECTOR ( 'NONE', #605, 1000.000000000000000 ) ;
#548 = EDGE_CURVE ( 'NONE', #901, #208, #735, .T. ) ;
#549 = ORIENTED_EDGE ( 'NONE', *, *, #362, .T. ) ;
#550 = CARTESIAN_POINT ( 'NONE',  ( 0.000000000000000000, 2.000000000000000000, 3.000000000000000000 ) ) ;
#551 = LINE ( 'NONE', #181, #1174 ) ;
#552 = ORIENTED_EDGE ( 'NONE', *, *, #513, .T. ) ;
#553 = ADVANCED_FACE ( 'NONE', ( #729 ), #834, .T. ) ;
#554 = CARTESIAN_POINT ( 'NONE',  ( -0.000000000000000000, 2.000000000000000000, 3.000000000000000000 ) ) ;
#555 = CARTESIAN_POINT ( 'NONE',  ( 4.700000000000000178, 2.000000000000000000, -1.500000000000000000 ) ) ;
#556 = DIRECTION ( 'NONE',  ( -1.000000000000000000, 0.000000000000000000, -0.000000000000000000 ) ) ;
#557 = VECTOR ( 'NONE', #138, 1000.000000000000000 ) ;
#558 = ORIENTED_EDGE ( 'NONE', *, *, #936, .F. ) ;
#559 = DIRECTION ( 'NONE',  ( -0.000000000000000000, 1.000000000000000000, -0.000000000000000000 ) ) ;
#560 = LINE ( 'NONE', #819, #218 ) ;
#561 = LOCAL_TIME ( 11, 34, 37.00000000000000000, #1147 ) ;
#562 = DIRECTION ( 'NONE',  ( 0.000000000000000000, 0.000000000000000000, -1.000000000000000000 ) ) ;
#563 = VECTOR ( 'NONE', #288, 1000.000000000000000 ) ;
#564 = ORIENTED_EDGE ( 'NONE', *, *, #1105, .F. ) ;
#565 = VECTOR ( 'NONE', #245, 1000.000000000000000 ) ;
#566 = CARTESIAN_POINT ( 'NONE',  ( 16.29999999999999716, 10.94000000000000128, 18.50000000000000000 ) ) ;
#567 = DIRECTION ( 'NONE',  ( -0.000000000000000000, 0.000000000000000000, 1.000000000000000000 ) ) ;
#568 = EDGE_LOOP ( 'NONE', ( #195, #495, #140 ) ) ;
#569 = AXIS2_PLACEMENT_3D ( 'NONE', #899, #813, #632 ) ;
#570 = DIRECTION ( 'NONE',  ( 0.000000000000000000, 1.000000000000000000, -0.000000000000000000 ) ) ;
#571 = DIRECTION ( 'NONE',  ( -0.000000000000000000, 0.000000000000000000, 1.000000000000000000 ) ) ;
#572 = EDGE_CURVE ( 'NONE', #1181, #1100, #94, .T. ) ;
#573 = ORIENTED_EDGE ( 'NONE', *, *, #9, .F. ) ;
#574 =( LENGTH_UNIT ( ) NAMED_UNIT ( * ) SI_UNIT ( .MILLI., .METRE. ) );
#575 = CARTESIAN_POINT ( 'NONE',  ( 15.30000000000000071, 4.599999999999999645, -1.500000000000000000 ) ) ;
#576 = AXIS2_PLACEMENT_3D ( 'NONE', #550, #283, #998 ) ;
#577 = CARTESIAN_POINT ( 'NONE',  ( 16.29999999999999716, 1.000000000000001776, 18.50000000000000000 ) ) ;
#578 = APPROVAL_PERSON_ORGANIZATION ( #781, #755, #715 ) ;
#579 = ORIENTED_EDGE ( 'NONE', *, *, #369, .T. ) ;
#580 = APPROVAL ( #757, 'UNSPECIFIED' ) ;
#581 = ORIENTED_EDGE ( 'NONE', *, *, #63, .F. ) ;
#582 = CALENDAR_DATE ( 2026, 7, 5 ) ;
#583 = FACE_OUTER_BOUND ( 'NONE', #533, .T. ) ;
#584 = CYLINDRICAL_SURFACE ( 'NONE', #361, 1.000000000000000888 ) ;
#585 = ORIENTED_EDGE ( 'NONE', *, *, #1128, .T. ) ;
#586 = ORIENTED_EDGE ( 'NONE', *, *, #1125, .T. ) ;
#587 = EDGE_CURVE ( 'NONE', #990, #317, #1015, .T. ) ;
#588 = DIRECTION ( 'NONE',  ( -0.000000000000000000, 0.000000000000000000, 1.000000000000000000 ) ) ;
#589 = CARTESIAN_POINT ( 'NONE',  ( 16.29999999999999716, 1.000000000000001776, 17.49999999999999645 ) ) ;
#590 = PLANE ( 'NONE',  #972 ) ;
#591 = VERTEX_POINT ( 'NONE', #745 ) ;
#592 = ORIENTED_EDGE ( 'NONE', *, *, #923, .T. ) ;
#593 = DIRECTION ( 'NONE',  ( 0.000000000000000000, 0.000000000000000000, 1.000000000000000000 ) ) ;
#594 = EDGE_CURVE ( 'NONE', #235, #962, #374, .T. ) ;
#595 = DIRECTION ( 'NONE',  ( 0.000000000000000000, 1.000000000000000000, -0.000000000000000000 ) ) ;
#596 = LINE ( 'NONE', #961, #154 ) ;
#597 = EDGE_LOOP ( 'NONE', ( #80, #786, #546, #628, #12, #842, #263, #1122 ) ) ;
#598 = ORIENTED_EDGE ( 'NONE', *, *, #738, .T. ) ;
#599 = VECTOR ( 'NONE', #928, 1000.000000000000000 ) ;
#600 = VECTOR ( 'NONE', #466, 1000.000000000000000 ) ;
#601 = CIRCLE ( 'NONE', #159, 0.9999999999999995559 ) ;
#602 = PERSON_AND_ORGANIZATION ( #1062, #259 ) ;
#603 = FACE_OUTER_BOUND ( 'NONE', #477, .T. ) ;
#604 = DIRECTION ( 'NONE',  ( 0.000000000000000000, -1.000000000000000000, 0.000000000000000000 ) ) ;
#605 = DIRECTION ( 'NONE',  ( 1.000000000000000000, -0.000000000000000000, 0.000000000000000000 ) ) ;
#606 = EDGE_CURVE ( 'NONE', #236, #871, #992, .T. ) ;
#607 = VERTEX_POINT ( 'NONE', #641 ) ;
#608 = CALENDAR_DATE ( 2026, 7, 5 ) ;
#609 = DIRECTION ( 'NONE',  ( -0.000000000000000000, 0.000000000000000000, 1.000000000000000000 ) ) ;
#610 = CARTESIAN_POINT ( 'NONE',  ( 17.30000000000000071, 10.94000000000000128, 17.49999999999999645 ) ) ;
#611 = FACE_OUTER_BOUND ( 'NONE', #908, .T. ) ;
#612 = ORIENTED_EDGE ( 'NONE', *, *, #383, .F. ) ;
#613 = EDGE_CURVE ( 'NONE', #160, #458, #386, .T. ) ;
#614 = ORIENTED_EDGE ( 'NONE', *, *, #994, .F. ) ;
#615 = DIRECTION ( 'NONE',  ( -1.000000000000000000, 0.000000000000000000, 0.000000000000000000 ) ) ;
#616 = DIRECTION ( 'NONE',  ( 0.000000000000000000, 1.000000000000000000, -0.000000000000000000 ) ) ;
#617 = CARTESIAN_POINT ( 'NONE',  ( 16.29999999999999716, 9.940000000000001279, 18.50000000000000000 ) ) ;
#618 = ORIENTED_EDGE ( 'NONE', *, *, #1159, .T. ) ;
#619 = EDGE_CURVE ( 'NONE', #951, #1069, #1004, .T. ) ;
#620 = VECTOR ( 'NONE', #656, 1000.000000000000000 ) ;
#621 = AXIS2_PLACEMENT_3D ( 'NONE', #1111, #510, #399 ) ;
#622 = EDGE_CURVE ( 'NONE', #1129, #147, #186, .T. ) ;
#623 = DATE_AND_TIME ( #334, #561 ) ;
#624 = LINE ( 'NONE', #869, #816 ) ;
#625 = DIRECTION ( 'NONE',  ( 0.000000000000000000, -1.000000000000000000, 0.000000000000000000 ) ) ;
#626 = CARTESIAN_POINT ( 'NONE',  ( -0.000000000000000000, 4.900000000000000355, 0.000000000000000000 ) ) ;
#627 = AXIS2_PLACEMENT_3D ( 'NONE', #987, #1071, #966 ) ;
#628 = ORIENTED_EDGE ( 'NONE', *, *, #249, .F. ) ;
#629 = PERSON_AND_ORGANIZATION ( #1062, #259 ) ;
#630 = EDGE_CURVE ( 'NONE', #322, #458, #179, .T. ) ;
#631 = CARTESIAN_POINT ( 'NONE',  ( 20.00000000000000000, 4.900000000000000355, 3.000000000000000000 ) ) ;
#632 = DIRECTION ( 'NONE',  ( -1.000000000000000000, 0.000000000000000000, 0.000000000000000000 ) ) ;
#633 = EDGE_LOOP ( 'NONE', ( #501, #1023, #1028, #847, #1058, #30 ) ) ;
#634 = CIRCLE ( 'NONE', #727, 1.000000000000000888 ) ;
#635 = CARTESIAN_POINT ( 'NONE',  ( 0.000000000000000000, 4.900000000000000355, 3.000000000000000000 ) ) ;
#636 = CC_DESIGN_PERSON_AND_ORGANIZATION_ASSIGNMENT ( #214, #1123, ( #836 ) ) ;
#637 = CARTESIAN_POINT ( 'NONE',  ( 3.700000000000001066, 1.734723475976807094E-15, 18.50000000000000000 ) ) ;
#638 = DIRECTION ( 'NONE',  ( 1.000000000000000000, 0.000000000000000000, 0.000000000000000000 ) ) ;
#639 = EDGE_CURVE ( 'NONE', #871, #1009, #107, .T. ) ;
#640 = VERTEX_POINT ( 'NONE', #356 ) ;
#641 = CARTESIAN_POINT ( 'NONE',  ( 0.000000000000000000, 2.000000000000000000, 0.000000000000000000 ) ) ;
#642 = DIRECTION ( 'NONE',  ( 0.000000000000000000, -1.000000000000000000, 8.673617379884026597E-16 ) ) ;
#643 = AXIS2_PLACEMENT_3D ( 'NONE', #774, #764, #33 ) ;
#644 = DIRECTION ( 'NONE',  ( -1.000000000000000000, 0.000000000000000000, 0.000000000000000000 ) ) ;
#645 = ORIENTED_EDGE ( 'NONE', *, *, #541, .F. ) ;
#646 = ORIENTED_EDGE ( 'NONE', *, *, #452, .F. ) ;
#647 = DIRECTION ( 'NONE',  ( 1.000000000000000000, 0.000000000000000000, 0.000000000000000000 ) ) ;
#648 = CARTESIAN_POINT ( 'NONE',  ( 0.000000000000000000, 2.000000000000000000, 3.000000000000000000 ) ) ;
#649 = CARTESIAN_POINT ( 'NONE',  ( -0.000000000000000000, 2.000000000000000000, 0.000000000000000000 ) ) ;
#650 = ORIENTED_EDGE ( 'NONE', *, *, #843, .F. ) ;
#651 = EDGE_CURVE ( 'NONE', #944, #208, #270, .T. ) ;
#652 = DIRECTION ( 'NONE',  ( 0.000000000000000000, 0.000000000000000000, -1.000000000000000000 ) ) ;
#653 = CARTESIAN_POINT ( 'NONE',  ( 2.700000000000000178, 9.940000000000001279, 3.000000000000000000 ) ) ;
#654 = ORIENTED_EDGE ( 'NONE', *, *, #318, .F. ) ;
#655 = PRODUCT_DEFINITION_SHAPE ( 'NONE', 'NONE',  #496 ) ;
#656 = DIRECTION ( 'NONE',  ( 1.000000000000000000, 0.000000000000000000, 0.000000000000000000 ) ) ;
#657 = AXIS2_PLACEMENT_3D ( 'NONE', #299, #666, #36 ) ;
#658 = CARTESIAN_POINT ( 'NONE',  ( 17.30000000000000071, 9.940000000000001279, 3.000000000000000000 ) ) ;
#659 = ORIENTED_EDGE ( 'NONE', *, *, #99, .F. ) ;
#660 = AXIS2_PLACEMENT_3D ( 'NONE', #252, #615, #717 ) ;
#661 = FACE_BOUND ( 'NONE', #1175, .T. ) ;
#662 = EDGE_CURVE ( 'NONE', #236, #17, #1010, .T. ) ;
#663 = DIRECTION ( 'NONE',  ( 0.000000000000000000, 0.000000000000000000, -1.000000000000000000 ) ) ;
#664 = ORIENTED_EDGE ( 'NONE', *, *, #459, .F. ) ;
#665 = VECTOR ( 'NONE', #1142, 1000.000000000000000 ) ;
#666 = DIRECTION ( 'NONE',  ( 0.000000000000000000, 0.000000000000000000, 1.000000000000000000 ) ) ;
#667 = FACE_OUTER_BOUND ( 'NONE', #403, .T. ) ;
#668 = EDGE_CURVE ( 'NONE', #935, #772, #1112, .T. ) ;
#669 = EDGE_CURVE ( 'NONE', #1129, #353, #1131, .T. ) ;
#670 = PLANE ( 'NONE',  #1146 ) ;
#671 = VECTOR ( 'NONE', #595, 1000.000000000000000 ) ;
#672 = ORIENTED_EDGE ( 'NONE', *, *, #914, .T. ) ;
#673 = ORIENTED_EDGE ( 'NONE', *, *, #548, .F. ) ;
#674 = DIRECTION ( 'NONE',  ( 1.000000000000000000, 0.000000000000000000, 0.000000000000000000 ) ) ;
#675 = VECTOR ( 'NONE', #455, 1000.000000000000000 ) ;
#676 = FACE_OUTER_BOUND ( 'NONE', #141, .T. ) ;
#677 =( GEOMETRIC_REPRESENTATION_CONTEXT ( 3 ) GLOBAL_UNCERTAINTY_ASSIGNED_CONTEXT ( ( #754 ) ) GLOBAL_UNIT_ASSIGNED_CONTEXT ( ( #574, #485, #43 ) ) REPRESENTATION_CONTEXT ( 'NONE', 'WORKASPACE' ) );
#678 = LOCAL_TIME ( 11, 34, 37.00000000000000000, #346 ) ;
#679 = ORIENTED_EDGE ( 'NONE', *, *, #824, .F. ) ;
#680 = EDGE_CURVE ( 'NONE', #772, #489, #281, .T. ) ;
#681 = EDGE_LOOP ( 'NONE', ( #279, #117, #29, #494 ) ) ;
#682 = CARTESIAN_POINT ( 'NONE',  ( 0.000000000000000000, 2.000000000000000000, -1.500000000000000000 ) ) ;
#683 = LINE ( 'NONE', #406, #714 ) ;
#684 = LINE ( 'NONE', #227, #1080 ) ;
#685 = DIRECTION ( 'NONE',  ( 0.000000000000000000, 1.000000000000000000, 0.000000000000000000 ) ) ;
#686 = EDGE_LOOP ( 'NONE', ( #516, #592, #97, #134 ) ) ;
#687 = ORIENTED_EDGE ( 'NONE', *, *, #914, .F. ) ;
#688 = CC_DESIGN_DATE_AND_TIME_ASSIGNMENT ( #69, #251, ( #863 ) ) ;
#689 = DIRECTION ( 'NONE',  ( 1.000000000000000000, 0.000000000000000000, 0.000000000000000000 ) ) ;
#690 = DIRECTION ( 'NONE',  ( 0.000000000000000000, 1.000000000000000000, 0.000000000000000000 ) ) ;
#691 = ORIENTED_EDGE ( 'NONE', *, *, #79, .T. ) ;
#692 = ORIENTED_EDGE ( 'NONE', *, *, #865, .T. ) ;
#693 = APPROVAL_DATE_TIME ( #1070, #755 ) ;
#694 = DIRECTION ( 'NONE',  ( -1.000000000000000000, 0.000000000000000000, 0.000000000000000000 ) ) ;
#695 = CARTESIAN_POINT ( 'NONE',  ( 2.700000000000000178, 10.94000000000000128, 18.50000000000000000 ) ) ;
#696 = DIRECTION ( 'NONE',  ( 0.000000000000000000, 0.000000000000000000, 1.000000000000000000 ) ) ;
#697 = ORIENTED_EDGE ( 'NONE', *, *, #606, .F. ) ;
#698 = VECTOR ( 'NONE', #275, 1000.000000000000000 ) ;
#699 = CARTESIAN_POINT ( 'NONE',  ( 4.700000000000000178, 4.599999999999999645, 8.900000000000000355 ) ) ;
#700 = ADVANCED_FACE ( 'NONE', ( #676 ), #1027, .F. ) ;
#701 = CARTESIAN_POINT ( 'NONE',  ( 4.700000000000000178, 0.000000000000000000, -1.500000000000000000 ) ) ;
#702 = CARTESIAN_POINT ( 'NONE',  ( 0.000000000000000000, 4.900000000000000355, 3.000000000000000000 ) ) ;
#703 = ORIENTED_EDGE ( 'NONE', *, *, #541, .T. ) ;
#704 = PERSON_AND_ORGANIZATION ( #1062, #259 ) ;
#705 = DIRECTION ( 'NONE',  ( 1.000000000000000000, 0.000000000000000000, 0.000000000000000000 ) ) ;
#706 = CARTESIAN_POINT ( 'NONE',  ( 4.700000000000000178, 2.000000000000000000, -1.500000000000000000 ) ) ;
#707 = EDGE_CURVE ( 'NONE', #208, #201, #120, .T. ) ;
#708 = CYLINDRICAL_SURFACE ( 'NONE', #86, 1.000000000000000888 ) ;
#709 = VERTEX_POINT ( 'NONE', #778 ) ;
#710 = DIRECTION ( 'NONE',  ( -0.000000000000000000, -0.000000000000000000, -1.000000000000000000 ) ) ;
#711 = CARTESIAN_POINT ( 'NONE',  ( 4.700000000000000178, 2.000000000000000000, 8.900000000000000355 ) ) ;
#712 = ORIENTED_EDGE ( 'NONE', *, *, #594, .F. ) ;
#713 = EDGE_CURVE ( 'NONE', #944, #236, #54, .T. ) ;
#714 = VECTOR ( 'NONE', #854, 1000.000000000000000 ) ;
#715 = APPROVAL_ROLE ( '' ) ;
#716 = VECTOR ( 'NONE', #157, 1000.000000000000000 ) ;
#717 = DIRECTION ( 'NONE',  ( 0.000000000000000000, 0.000000000000000000, 1.000000000000000000 ) ) ;
#718 = DIRECTION ( 'NONE',  ( 0.000000000000000000, -1.000000000000000000, 0.000000000000000000 ) ) ;
#719 = FACE_OUTER_BOUND ( 'NONE', #442, .T. ) ;
#720 = VECTOR ( 'NONE', #1152, 1000.000000000000000 ) ;
#721 = ORIENTED_EDGE ( 'NONE', *, *, #763, .F. ) ;
#722 = CC_DESIGN_DATE_AND_TIME_ASSIGNMENT ( #986, #788, ( #496 ) ) ;
#723 = CARTESIAN_POINT ( 'NONE',  ( 16.29999999999999716, 9.940000000000001279, 18.50000000000000000 ) ) ;
#724 = CARTESIAN_POINT ( 'NONE',  ( 0.000000000000000000, 4.599999999999999645, 8.900000000000000355 ) ) ;
#725 = PLANE ( 'NONE',  #1019 ) ;
#726 = ORIENTED_EDGE ( 'NONE', *, *, #838, .T. ) ;
#727 = AXIS2_PLACEMENT_3D ( 'NONE', #223, #949, #133 ) ;
#728 = VECTOR ( 'NONE', #384, 1000.000000000000000 ) ;
#729 = FACE_OUTER_BOUND ( 'NONE', #739, .T. ) ;
#730 = CARTESIAN_POINT ( 'NONE',  ( 15.30000000000000071, 2.000000000000000000, 3.000000000000000000 ) ) ;
#731 = PLANE ( 'NONE',  #446 ) ;
#732 = ORIENTED_EDGE ( 'NONE', *, *, #968, .F. ) ;
#733 = VERTEX_POINT ( 'NONE', #577 ) ;
#734 = CIRCLE ( 'NONE', #769, 1.000000000000000000 ) ;
#735 = LINE ( 'NONE', #904, #1057 ) ;
#736 = CARTESIAN_POINT ( 'NONE',  ( 0.000000000000000000, 6.900000000000000355, -1.500000000000000000 ) ) ;
#737 = DIRECTION ( 'NONE',  ( -0.000000000000000000, -0.000000000000000000, 1.000000000000000000 ) ) ;
#738 = EDGE_CURVE ( 'NONE', #353, #951, #415, .T. ) ;
#739 = EDGE_LOOP ( 'NONE', ( #765, #1162, #760 ) ) ;
#740 = CARTESIAN_POINT ( 'NONE',  ( 3.700000000000000178, 9.940000000000001279, 17.49999999999999645 ) ) ;
#741 = CARTESIAN_POINT ( 'NONE',  ( 4.700000000000000178, 2.000000000000000000, -1.500000000000000000 ) ) ;
#742 = DIRECTION ( 'NONE',  ( -1.000000000000000000, 0.000000000000000000, -0.000000000000000000 ) ) ;
#743 = ADVANCED_FACE ( 'NONE', ( #1135 ), #956, .T. ) ;
#744 = ORIENTED_EDGE ( 'NONE', *, *, #491, .T. ) ;
#745 = CARTESIAN_POINT ( 'NONE',  ( 20.00000000000000000, 2.000000000000000000, 3.000000000000000000 ) ) ;
#746 = PLANE ( 'NONE',  #983 ) ;
#747 = FACE_OUTER_BOUND ( 'NONE', #800, .T. ) ;
#748 = VERTEX_POINT ( 'NONE', #1031 ) ;
#749 = ADVANCED_FACE ( 'NONE', ( #326 ), #590, .F. ) ;
#750 = MECHANICAL_CONTEXT ( 'NONE', #1036, 'mechanical' ) ;
#751 = CARTESIAN_POINT ( 'NONE',  ( 16.29999999999999716, 9.940000000000001279, 17.49999999999999645 ) ) ;
#752 = VECTOR ( 'NONE', #82, 1000.000000000000000 ) ;
#753 = ORIENTED_EDGE ( 'NONE', *, *, #756, .T. ) ;
#754 = UNCERTAINTY_MEASURE_WITH_UNIT (LENGTH_MEASURE( 1.000000000000000082E-05 ), #574, 'distance_accuracy_value', 'NONE');
#755 = APPROVAL ( #971, 'UNSPECIFIED' ) ;
#756 = EDGE_CURVE ( 'NONE', #17, #24, #47, .T. ) ;
#757 = APPROVAL_STATUS ( 'not_yet_approved' ) ;
#758 = CARTESIAN_POINT ( 'NONE',  ( 0.000000000000000000, 0.000000000000000000, 0.000000000000000000 ) ) ;
#759 = DIRECTION ( 'NONE',  ( -0.000000000000000000, 1.000000000000000000, -0.000000000000000000 ) ) ;
#760 = ORIENTED_EDGE ( 'NONE', *, *, #100, .F. ) ;
#761 = ORIENTED_EDGE ( 'NONE', *, *, #419, .T. ) ;
#762 = CARTESIAN_POINT ( 'NONE',  ( 17.30000000000000071, 9.940000000000001279, 17.49999999999999645 ) ) ;
#763 = EDGE_CURVE ( 'NONE', #396, #957, #479, .T. ) ;
#764 = DIRECTION ( 'NONE',  ( 0.000000000000000000, -0.000000000000000000, 1.000000000000000000 ) ) ;
#765 = ORIENTED_EDGE ( 'NONE', *, *, #668, .T. ) ;
#766 = ORIENTED_EDGE ( 'NONE', *, *, #929, .F. ) ;
#767 = DIRECTION ( 'NONE',  ( -1.189252840020663057E-16, 1.000000000000000000, -0.000000000000000000 ) ) ;
#768 = LINE ( 'NONE', #1134, #514 ) ;
#769 = AXIS2_PLACEMENT_3D ( 'NONE', #911, #187, #1086 ) ;
#770 = CARTESIAN_POINT ( 'NONE',  ( 15.30000000000000071, 2.000000000000000000, -1.500000000000000000 ) ) ;
#771 = LOCAL_TIME ( 11, 34, 37.00000000000000000, #1037 ) ;
#772 = VERTEX_POINT ( 'NONE', #390 ) ;
#773 = EDGE_LOOP ( 'NONE', ( #244, #1013, #1007, #224 ) ) ;
#774 = CARTESIAN_POINT ( 'NONE',  ( 3.700000000000000178, 9.940000000000001279, 17.49999999999999645 ) ) ;
#775 = APPLICATION_PROTOCOL_DEFINITION ( 'international standard', 'config_control_design', 1994, #1036 ) ;
#776 = VECTOR ( 'NONE', #522, 1000.000000000000000 ) ;
#777 = CARTESIAN_POINT ( 'NONE',  ( 3.700000000000001510, 1.000000000000001776, 17.49999999999999645 ) ) ;
#778 = CARTESIAN_POINT ( 'NONE',  ( 20.00000000000000000, 6.900000000000000355, 0.000000000000000000 ) ) ;
#779 = ORIENTED_EDGE ( 'NONE', *, *, #1105, .T. ) ;
#780 = ORIENTED_EDGE ( 'NONE', *, *, #548, .T. ) ;
#781 = PERSON_AND_ORGANIZATION ( #1062, #259 ) ;
#782 = VECTOR ( 'NONE', #440, 1000.000000000000000 ) ;
#783 = LINE ( 'NONE', #889, #868 ) ;
#784 = DIRECTION ( 'NONE',  ( 1.189252840020663057E-16, -1.000000000000000000, 0.000000000000000000 ) ) ;
#785 = LINE ( 'NONE', #1082, #144 ) ;
#786 = ORIENTED_EDGE ( 'NONE', *, *, #954, .T. ) ;
#787 = EDGE_CURVE ( 'NONE', #748, #709, #1120, .T. ) ;
#788 = DATE_TIME_ROLE ( 'creation_date' ) ;
#789 = CARTESIAN_POINT ( 'NONE',  ( 0.000000000000000000, 0.000000000000000000, 3.000000000000000000 ) ) ;
#790 = FACE_OUTER_BOUND ( 'NONE', #310, .T. ) ;
#791 = VECTOR ( 'NONE', #1011, 1000.000000000000000 ) ;
#792 = CARTESIAN_POINT ( 'NONE',  ( 2.700000000000000178, 9.940000000000001279, 18.50000000000000000 ) ) ;
#793 = EDGE_LOOP ( 'NONE', ( #378, #573, #359, #178 ) ) ;
#794 = ORIENTED_EDGE ( 'NONE', *, *, #152, .T. ) ;
#795 = VECTOR ( 'NONE', #859, 1000.000000000000000 ) ;
#796 = ADVANCED_FACE ( 'NONE', ( #862 ), #670, .T. ) ;
#797 = PLANE ( 'NONE',  #660 ) ;
#798 = LINE ( 'NONE', #447, #417 ) ;
#799 = DIRECTION ( 'NONE',  ( -1.000000000000000000, -1.189252840020662810E-16, 0.000000000000000000 ) ) ;
#800 = EDGE_LOOP ( 'NONE', ( #1075, #293, #542, #1095 ) ) ;
#801 = ORIENTED_EDGE ( 'NONE', *, *, #529, .F. ) ;
#802 = DIRECTION ( 'NONE',  ( -0.000000000000000000, 0.000000000000000000, 1.000000000000000000 ) ) ;
#803 = LINE ( 'NONE', #253, #782 ) ;
#804 = DIRECTION ( 'NONE',  ( -1.000000000000000000, 0.000000000000000000, 0.000000000000000000 ) ) ;
#805 = ADVANCED_FACE ( 'NONE', ( #395 ), #584, .T. ) ;
#806 = ORIENTED_EDGE ( 'NONE', *, *, #1084, .F. ) ;
#807 = FACE_OUTER_BOUND ( 'NONE', #633, .T. ) ;
#808 = LINE ( 'NONE', #626, #903 ) ;
#809 = EDGE_CURVE ( 'NONE', #945, #950, #634, .T. ) ;
#810 = ORIENTED_EDGE ( 'NONE', *, *, #265, .F. ) ;
#811 = AXIS2_PLACEMENT_3D ( 'NONE', #884, #78, #1166 ) ;
#812 = DIRECTION ( 'NONE',  ( -1.000000000000000000, -0.000000000000000000, -0.000000000000000000 ) ) ;
#813 = DIRECTION ( 'NONE',  ( 0.000000000000000000, 0.000000000000000000, -1.000000000000000000 ) ) ;
#814 = CARTESIAN_POINT ( 'NONE',  ( 3.700000000000001510, 1.000000000000001776, 18.50000000000000000 ) ) ;
#815 = ORIENTED_EDGE ( 'NONE', *, *, #344, .F. ) ;
#816 = VECTOR ( 'NONE', #1148, 1000.000000000000000 ) ;
#817 = EDGE_LOOP ( 'NONE', ( #1157, #1115, #507, #984 ) ) ;
#818 = CARTESIAN_POINT ( 'NONE',  ( 2.700000000000000178, 10.94000000000000128, 3.000000000000000000 ) ) ;
#819 = CARTESIAN_POINT ( 'NONE',  ( 0.000000000000000000, 0.000000000000000000, 0.000000000000000000 ) ) ;
#820 = CARTESIAN_POINT ( 'NONE',  ( 20.00000000000000000, 4.900000000000000355, 3.000000000000000000 ) ) ;
#821 = VERTEX_POINT ( 'NONE', #234 ) ;
#822 = EDGE_LOOP ( 'NONE', ( #472, #1034, #853, #451 ) ) ;
#823 = VECTOR ( 'NONE', #505, 1000.000000000000000 ) ;
#824 = EDGE_CURVE ( 'NONE', #317, #416, #499, .T. ) ;
#825 = DIRECTION ( 'NONE',  ( -0.000000000000000000, 0.000000000000000000, -1.000000000000000000 ) ) ;
#826 = DIRECTION ( 'NONE',  ( 0.000000000000000000, 0.000000000000000000, 1.000000000000000000 ) ) ;
#827 = EDGE_LOOP ( 'NONE', ( #673, #91, #794, #230 ) ) ;
#828 = CIRCLE ( 'NONE', #883, 1.000000000000000888 ) ;
#829 = CC_DESIGN_SECURITY_CLASSIFICATION ( #863, ( #1074 ) ) ;
#830 = CARTESIAN_POINT ( 'NONE',  ( 3.700000000000000178, 9.940000000000001279, 2.999999999999999112 ) ) ;
#831 = DIRECTION ( 'NONE',  ( 0.000000000000000000, 0.000000000000000000, 1.000000000000000000 ) ) ;
#832 = FACE_OUTER_BOUND ( 'NONE', #773, .T. ) ;
#833 = ORIENTED_EDGE ( 'NONE', *, *, #355, .F. ) ;
#834 = SPHERICAL_SURFACE ( 'NONE', #544, 1.000000000000000000 ) ;
#835 = DIRECTION ( 'NONE',  ( 0.000000000000000000, -0.000000000000000000, -1.000000000000000000 ) ) ;
#836 = PRODUCT ( 'D5 - IR slider for the track', 'D5 - IR slider for the track', '', ( #750 ) ) ;
#837 = CARTESIAN_POINT ( 'NONE',  ( 17.30000000000000071, 1.734723475976807094E-15, 17.49999999999999645 ) ) ;
#838 = EDGE_CURVE ( 'NONE', #951, #1009, #401, .T. ) ;
#839 = ORIENTED_EDGE ( 'NONE', *, *, #483, .F. ) ;
#840 = CARTESIAN_POINT ( 'NONE',  ( 0.000000000000000000, 0.000000000000000000, -1.500000000000000000 ) ) ;
#841 = CARTESIAN_POINT ( 'NONE',  ( 16.29999999999999716, 0.000000000000000000, 17.49999999999999645 ) ) ;
#842 = ORIENTED_EDGE ( 'NONE', *, *, #1077, .T. ) ;
#843 = EDGE_CURVE ( 'NONE', #945, #901, #596, .T. ) ;
#844 = DIRECTION ( 'NONE',  ( -0.000000000000000000, -0.000000000000000000, 1.000000000000000000 ) ) ;
#845 = CARTESIAN_POINT ( 'NONE',  ( 2.700000000000001510, 1.000000000000000888, 18.50000000000000000 ) ) ;
#846 = VECTOR ( 'NONE', #1085, 1000.000000000000000 ) ;
#847 = ORIENTED_EDGE ( 'NONE', *, *, #651, .F. ) ;
#848 = ORIENTED_EDGE ( 'NONE', *, *, #1053, .T. ) ;
#849 = FACE_OUTER_BOUND ( 'NONE', #568, .T. ) ;
#850 = CARTESIAN_POINT ( 'NONE',  ( 3.700000000000001066, 1.734723475976807094E-15, 17.49999999999999645 ) ) ;
#851 = CARTESIAN_POINT ( 'NONE',  ( 16.29999999999999716, 1.000000000000001776, 17.49999999999999645 ) ) ;
#852 = ORIENTED_EDGE ( 'NONE', *, *, #452, .T. ) ;
#853 = ORIENTED_EDGE ( 'NONE', *, *, #324, .F. ) ;
#854 = DIRECTION ( 'NONE',  ( 1.000000000000000000, 0.000000000000000000, 0.000000000000000000 ) ) ;
#855 = DIRECTION ( 'NONE',  ( -0.000000000000000000, 1.000000000000000000, 0.000000000000000000 ) ) ;
#856 = CARTESIAN_POINT ( 'NONE',  ( 4.700000000000000178, 9.000000000000001776, 8.900000000000000355 ) ) ;
#857 = ORIENTED_EDGE ( 'NONE', *, *, #952, .F. ) ;
#858 = ORIENTED_EDGE ( 'NONE', *, *, #343, .F. ) ;
#859 = DIRECTION ( 'NONE',  ( 1.000000000000000000, 0.000000000000000000, 0.000000000000000000 ) ) ;
#860 = LINE ( 'NONE', #221, #1173 ) ;
#861 = FACE_OUTER_BOUND ( 'NONE', #873, .T. ) ;
#862 = FACE_OUTER_BOUND ( 'NONE', #913, .T. ) ;
#863 = SECURITY_CLASSIFICATION ( '', '', #52 ) ;
#864 = VERTEX_POINT ( 'NONE', #512 ) ;
#865 = EDGE_CURVE ( 'NONE', #1100, #709, #803, .T. ) ;
#866 = VECTOR ( 'NONE', #1154, 1000.000000000000000 ) ;
#867 = ORIENTED_EDGE ( 'NONE', *, *, #1165, .T. ) ;
#868 = VECTOR ( 'NONE', #238, 1000.000000000000000 ) ;
#869 = CARTESIAN_POINT ( 'NONE',  ( 2.700000000000000178, 10.94000000000000128, 3.000000000000000000 ) ) ;
#870 = CARTESIAN_POINT ( 'NONE',  ( 2.700000000000001510, 1.734723475976807094E-15, 18.50000000000000000 ) ) ;
#871 = VERTEX_POINT ( 'NONE', #83 ) ;
#872 = EDGE_CURVE ( 'NONE', #323, #1129, #72, .T. ) ;
#873 = EDGE_LOOP ( 'NONE', ( #328, #679, #123, #1109 ) ) ;
#874 = VECTOR ( 'NONE', #1055, 1000.000000000000000 ) ;
#875 = DIRECTION ( 'NONE',  ( 0.000000000000000000, 0.000000000000000000, -1.000000000000000000 ) ) ;
#876 = DIRECTION ( 'NONE',  ( -0.000000000000000000, 0.000000000000000000, 1.000000000000000000 ) ) ;
#877 = CYLINDRICAL_SURFACE ( 'NONE', #1113, 1.000000000000000000 ) ;
#878 = ORIENTED_EDGE ( 'NONE', *, *, #1067, .T. ) ;
#879 = AXIS2_PLACEMENT_3D ( 'NONE', #589, #1048, #307 ) ;
#880 = ORIENTED_EDGE ( 'NONE', *, *, #662, .F. ) ;
#881 = EDGE_CURVE ( 'NONE', #482, #1042, #798, .T. ) ;
#882 = CARTESIAN_POINT ( 'NONE',  ( 15.30000000000000071, 2.000000000000000000, 0.000000000000000000 ) ) ;
#883 = AXIS2_PLACEMENT_3D ( 'NONE', #475, #835, #102 ) ;
#884 = CARTESIAN_POINT ( 'NONE',  ( 0.000000000000000000, 0.000000000000000000, 0.000000000000000000 ) ) ;
#885 = ORIENTED_EDGE ( 'NONE', *, *, #1067, .F. ) ;
#886 = ORIENTED_EDGE ( 'NONE', *, *, #707, .T. ) ;
#887 = CALENDAR_DATE ( 2026, 7, 5 ) ;
#888 = ADVANCED_FACE ( 'NONE', ( #436 ), #77, .F. ) ;
#889 = CARTESIAN_POINT ( 'NONE',  ( 0.000000000000000000, 2.000000000000000000, 3.000000000000000000 ) ) ;
#890 = CARTESIAN_POINT ( 'NONE',  ( 16.29999999999999716, 1.734723475976807094E-15, 3.000000000000000000 ) ) ;
#891 = CARTESIAN_POINT ( 'NONE',  ( 0.000000000000000000, 2.000000000000000000, 3.000000000000000000 ) ) ;
#892 = ORIENTED_EDGE ( 'NONE', *, *, #619, .F. ) ;
#893 = FACE_OUTER_BOUND ( 'NONE', #907, .T. ) ;
#894 = CC_DESIGN_PERSON_AND_ORGANIZATION_ASSIGNMENT ( #602, #173, ( #1074 ) ) ;
#895 = CARTESIAN_POINT ( 'NONE',  ( 20.00000000000000000, 4.900000000000000355, 0.000000000000000000 ) ) ;
#896 = DIRECTION ( 'NONE',  ( 0.000000000000000000, -1.000000000000000000, 0.000000000000000000 ) ) ;
#897 = ORIENTED_EDGE ( 'NONE', *, *, #639, .F. ) ;
#898 = CARTESIAN_POINT ( 'NONE',  ( 4.700000000000000178, 2.000000000000000000, -1.500000000000000000 ) ) ;
#899 = CARTESIAN_POINT ( 'NONE',  ( 3.700000000000000178, 9.940000000000001279, 18.50000000000000000 ) ) ;
#900 = CARTESIAN_POINT ( 'NONE',  ( 3.700000000000001066, 1.734723475976807094E-15, 3.000000000000000000 ) ) ;
#901 = VERTEX_POINT ( 'NONE', #1171 ) ;
#902 = VECTOR ( 'NONE', #228, 1000.000000000000000 ) ;
#903 = VECTOR ( 'NONE', #989, 1000.000000000000000 ) ;
#904 = CARTESIAN_POINT ( 'NONE',  ( 17.30000000000000071, 10.94000000000000128, 3.000000000000000000 ) ) ;
#905 = LINE ( 'NONE', #637, #64 ) ;
#906 = DIRECTION ( 'NONE',  ( 0.000000000000000000, 1.000000000000000000, 0.000000000000000000 ) ) ;
#907 = EDGE_LOOP ( 'NONE', ( #579, #766, #225, #360 ) ) ;
#908 = EDGE_LOOP ( 'NONE', ( #1033, #614, #721, #153 ) ) ;
#909 = ADVANCED_FACE ( 'NONE', ( #1059 ), #350, .T. ) ;
#910 = DIRECTION ( 'NONE',  ( -1.000000000000000000, -0.000000000000000000, -0.000000000000000000 ) ) ;
#911 = CARTESIAN_POINT ( 'NONE',  ( 3.700000000000001066, 1.000000000000001776, 2.999999999999999112 ) ) ;
#912 = FACE_OUTER_BOUND ( 'NONE', #597, .T. ) ;
#913 = EDGE_LOOP ( 'NONE', ( #659, #857, #552, #55, #506, #424 ) ) ;
#914 = EDGE_CURVE ( 'NONE', #416, #821, #241, .T. ) ;
#915 = DIRECTION ( 'NONE',  ( 1.189252840020663057E-16, -1.000000000000000000, 0.000000000000000000 ) ) ;
#916 = CARTESIAN_POINT ( 'NONE',  ( 16.29999999999999716, 1.734723475976807094E-15, 18.50000000000000000 ) ) ;
#917 = DIRECTION ( 'NONE',  ( 1.000000000000000000, 0.000000000000000000, 0.000000000000000000 ) ) ;
#918 = ORIENTED_EDGE ( 'NONE', *, *, #338, .T. ) ;
#919 = CC_DESIGN_APPROVAL ( #580, ( #496 ) ) ;
#920 = VECTOR ( 'NONE', #188, 1000.000000000000000 ) ;
#921 = DIRECTION ( 'NONE',  ( 0.000000000000000000, 0.000000000000000000, 1.000000000000000000 ) ) ;
#922 = FACE_OUTER_BOUND ( 'NONE', #1182, .T. ) ;
#923 = EDGE_CURVE ( 'NONE', #1040, #990, #1179, .T. ) ;
#924 = DIRECTION ( 'NONE',  ( 1.000000000000000000, 0.000000000000000000, 0.000000000000000000 ) ) ;
#925 = ORIENTED_EDGE ( 'NONE', *, *, #183, .F. ) ;
#926 = VECTOR ( 'NONE', #570, 1000.000000000000000 ) ;
#927 = DIRECTION ( 'NONE',  ( -1.000000000000000000, 0.000000000000000000, -0.000000000000000000 ) ) ;
#928 = DIRECTION ( 'NONE',  ( 0.000000000000000000, 0.000000000000000000, -1.000000000000000000 ) ) ;
#929 = EDGE_CURVE ( 'NONE', #772, #957, #967, .T. ) ;
#930 = VERTEX_POINT ( 'NONE', #518 ) ;
#931 = ADVANCED_FACE ( 'NONE', ( #246, #1081 ), #267, .F. ) ;
#932 = CARTESIAN_POINT ( 'NONE',  ( 20.00000000000000000, 0.000000000000000000, -1.500000000000000000 ) ) ;
#933 = CARTESIAN_POINT ( 'NONE',  ( 15.30000000000000071, 2.000000000000000000, -1.500000000000000000 ) ) ;
#934 = CARTESIAN_POINT ( 'NONE',  ( 17.30000000000000071, 10.94000000000000128, 3.000000000000000000 ) ) ;
#935 = VERTEX_POINT ( 'NONE', #993 ) ;
#936 = EDGE_CURVE ( 'NONE', #871, #821, #336, .T. ) ;
#937 = ORIENTED_EDGE ( 'NONE', *, *, #923, .F. ) ;
#938 = VECTOR ( 'NONE', #710, 1000.000000000000000 ) ;
#939 = CARTESIAN_POINT ( 'NONE',  ( 0.000000000000000000, 0.000000000000000000, 18.50000000000000000 ) ) ;
#940 = LOCAL_TIME ( 11, 34, 37.00000000000000000, #1078 ) ;
#941 = CYLINDRICAL_SURFACE ( 'NONE', #98, 1.000000000000000888 ) ;
#942 = CARTESIAN_POINT ( 'NONE',  ( 4.700000000000000178, 0.000000000000000000, -1.500000000000000000 ) ) ;
#943 = VECTOR ( 'NONE', #759, 1000.000000000000000 ) ;
#944 = VERTEX_POINT ( 'NONE', #59 ) ;
#945 = VERTEX_POINT ( 'NONE', #422 ) ;
#946 = ADVANCED_FACE ( 'NONE', ( #790 ), #331, .T. ) ;
#947 = DATE_AND_TIME ( #582, #771 ) ;
#948 = FACE_OUTER_BOUND ( 'NONE', #958, .T. ) ;
#949 = DIRECTION ( 'NONE',  ( 0.000000000000000000, -0.000000000000000000, -1.000000000000000000 ) ) ;
#950 = VERTEX_POINT ( 'NONE', #890 ) ;
#951 = VERTEX_POINT ( 'NONE', #882 ) ;
#952 = EDGE_CURVE ( 'NONE', #930, #640, #539, .T. ) ;
#953 = PLANE ( 'NONE',  #1133 ) ;
#954 = EDGE_CURVE ( 'NONE', #640, #748, #1160, .T. ) ;
#955 = CARTESIAN_POINT ( 'NONE',  ( 20.00000000000000000, 0.000000000000000000, 0.000000000000000000 ) ) ;
#956 = SPHERICAL_SURFACE ( 'NONE', #995, 1.000000000000000000 ) ;
#957 = VERTEX_POINT ( 'NONE', #980 ) ;
#958 = EDGE_LOOP ( 'NONE', ( #815, #810, #549, #1127 ) ) ;
#959 = SPHERICAL_SURFACE ( 'NONE', #621, 1.000000000000000000 ) ;
#960 = ADVANCED_FACE ( 'NONE', ( #165 ), #1072, .T. ) ;
#961 = CARTESIAN_POINT ( 'NONE',  ( 17.30000000000000071, 10.94000000000000128, 3.000000000000000000 ) ) ;
#962 = VERTEX_POINT ( 'NONE', #895 ) ;
#963 = CLOSED_SHELL ( 'NONE', ( #1047, #931, #1145, #191, #240, #161, #411, #796, #427, #93, #435, #290, #226, #504, #888, #700, #478, #39, #460, #1151, #1137, #1183, #749, #960, #309, #175, #85, #278, #805, #1176, #743, #909, #443, #146, #946, #553, #111, #137 ) ) ;
#964 = ORIENTED_EDGE ( 'NONE', *, *, #1053, .F. ) ;
#965 = AXIS2_PLACEMENT_3D ( 'NONE', #7, #1106, #538 ) ;
#966 = DIRECTION ( 'NONE',  ( 0.000000000000000000, -0.000000000000000000, -1.000000000000000000 ) ) ;
#967 = LINE ( 'NONE', #610, #1087 ) ;
#968 = EDGE_CURVE ( 'NONE', #366, #62, #905, .T. ) ;
#969 = LINE ( 'NONE', #702, #1076 ) ;
#970 = ORIENTED_EDGE ( 'NONE', *, *, #713, .T. ) ;
#971 = APPROVAL_STATUS ( 'not_yet_approved' ) ;
#972 = AXIS2_PLACEMENT_3D ( 'NONE', #942, #1044, #487 ) ;
#973 = CARTESIAN_POINT ( 'NONE',  ( 3.700000000000001510, 1.853648759978873400E-15, 18.50000000000000000 ) ) ;
#974 = DIRECTION ( 'NONE',  ( -0.000000000000000000, -0.000000000000000000, 1.000000000000000000 ) ) ;
#975 = SPHERICAL_SURFACE ( 'NONE', #450, 1.000000000000000000 ) ;
#976 = ORIENTED_EDGE ( 'NONE', *, *, #338, .F. ) ;
#977 = EDGE_CURVE ( 'NONE', #49, #733, #163, .T. ) ;
#978 = PERSON_AND_ORGANIZATION_ROLE ( 'creator' ) ;
#979 = CARTESIAN_POINT ( 'NONE',  ( 15.30000000000000071, 9.000000000000001776, 18.50000000000000000 ) ) ;
#980 = CARTESIAN_POINT ( 'NONE',  ( 16.29999999999999716, 10.94000000000000128, 17.49999999999999645 ) ) ;
#981 = CIRCLE ( 'NONE', #370, 1.000000000000000888 ) ;
#982 = CARTESIAN_POINT ( 'NONE',  ( 17.30000000000000071, 1.000000000000000888, 17.49999999999999645 ) ) ;
#983 = AXIS2_PLACEMENT_3D ( 'NONE', #204, #927, #480 ) ;
#984 = ORIENTED_EDGE ( 'NONE', *, *, #622, .T. ) ;
#985 = CC_DESIGN_PERSON_AND_ORGANIZATION_ASSIGNMENT ( #1052, #237, ( #1074 ) ) ;
#986 = DATE_AND_TIME ( #608, #404 ) ;
#987 = CARTESIAN_POINT ( 'NONE',  ( 0.000000000000000000, 6.900000000000000355, -1.500000000000000000 ) ) ;
#988 = DIRECTION ( 'NONE',  ( 0.000000000000000000, -0.000000000000000000, -1.000000000000000000 ) ) ;
#989 = DIRECTION ( 'NONE',  ( 1.000000000000000000, 0.000000000000000000, 0.000000000000000000 ) ) ;
#990 = VERTEX_POINT ( 'NONE', #357 ) ;
#991 = APPROVAL_DATE_TIME ( #623, #16 ) ;
#992 = LINE ( 'NONE', #174, #846 ) ;
#993 = CARTESIAN_POINT ( 'NONE',  ( 3.700000000000000178, 9.940000000000001279, 18.50000000000000000 ) ) ;
#994 = EDGE_CURVE ( 'NONE', #957, #322, #8, .T. ) ;
#995 = AXIS2_PLACEMENT_3D ( 'NONE', #851, #571, #685 ) ;
#996 = DIRECTION ( 'NONE',  ( 1.000000000000000000, 0.000000000000000000, 0.000000000000000000 ) ) ;
#997 = ORIENTED_EDGE ( 'NONE', *, *, #994, .T. ) ;
#998 = DIRECTION ( 'NONE',  ( 0.000000000000000000, -0.000000000000000000, 1.000000000000000000 ) ) ;
#999 = CARTESIAN_POINT ( 'NONE',  ( 0.000000000000000000, 2.000000000000000000, 3.000000000000000000 ) ) ;
#1000 = EDGE_CURVE ( 'NONE', #457, #1040, #180, .T. ) ;
#1001 = ORIENTED_EDGE ( 'NONE', *, *, #116, .F. ) ;
#1002 = EDGE_LOOP ( 'NONE', ( #1050, #753, #280, #878, #761, #970 ) ) ;
#1003 = VECTOR ( 'NONE', #461, 1000.000000000000000 ) ;
#1004 = LINE ( 'NONE', #13, #1096 ) ;
#1005 = DIRECTION ( 'NONE',  ( 0.000000000000000000, -8.673617379884027583E-16, -1.000000000000000000 ) ) ;
#1006 = CARTESIAN_POINT ( 'NONE',  ( 0.000000000000000000, 0.000000000000000000, 8.900000000000000355 ) ) ;
#1007 = ORIENTED_EDGE ( 'NONE', *, *, #256, .T. ) ;
#1008 = PRODUCT_RELATED_PRODUCT_CATEGORY ( 'detail', '', ( #836 ) ) ;
#1009 = VERTEX_POINT ( 'NONE', #730 ) ;
#1010 = LINE ( 'NONE', #192, #490 ) ;
#1011 = DIRECTION ( 'NONE',  ( -0.000000000000000000, -0.000000000000000000, -1.000000000000000000 ) ) ;
#1012 = LINE ( 'NONE', #999, #45 ) ;
#1013 = ORIENTED_EDGE ( 'NONE', *, *, #99, .T. ) ;
#1014 = EDGE_CURVE ( 'NONE', #322, #201, #828, .T. ) ;
#1015 = LINE ( 'NONE', #1178, #448 ) ;
#1016 = DIRECTION ( 'NONE',  ( 0.000000000000000000, 1.000000000000000000, -0.000000000000000000 ) ) ;
#1017 = FACE_OUTER_BOUND ( 'NONE', #5, .T. ) ;
#1018 = ORIENTED_EDGE ( 'NONE', *, *, #1118, .T. ) ;
#1019 = AXIS2_PLACEMENT_3D ( 'NONE', #1088, #272, #638 ) ;
#1020 = DIRECTION ( 'NONE',  ( 0.000000000000000000, 1.000000000000000000, 0.000000000000000000 ) ) ;
#1021 = VECTOR ( 'NONE', #151, 1000.000000000000000 ) ;
#1022 = CARTESIAN_POINT ( 'NONE',  ( 0.000000000000000000, 0.000000000000000000, 3.000000000000000000 ) ) ;
#1023 = ORIENTED_EDGE ( 'NONE', *, *, #1014, .T. ) ;
#1024 = VECTOR ( 'NONE', #674, 1000.000000000000000 ) ;
#1025 = PLANE ( 'NONE',  #164 ) ;
#1026 = CARTESIAN_POINT ( 'NONE',  ( 15.30000000000000071, 9.000000000000001776, 8.900000000000000355 ) ) ;
#1027 = PLANE ( 'NONE',  #239 ) ;
#1028 = ORIENTED_EDGE ( 'NONE', *, *, #707, .F. ) ;
#1029 = VECTOR ( 'NONE', #301, 1000.000000000000000 ) ;
#1030 = LINE ( 'NONE', #1038, #926 ) ;
#1031 = CARTESIAN_POINT ( 'NONE',  ( 0.000000000000000000, 6.900000000000000355, 0.000000000000000000 ) ) ;
#1032 = EDGE_CURVE ( 'NONE', #323, #412, #108, .T. ) ;
#1033 = ORIENTED_EDGE ( 'NONE', *, *, #1014, .F. ) ;
#1034 = ORIENTED_EDGE ( 'NONE', *, *, #865, .F. ) ;
#1035 = VECTOR ( 'NONE', #616, 1000.000000000000000 ) ;
#1036 = APPLICATION_CONTEXT ( 'configuration controlled 3d designs of mechanical parts and assemblies' ) ;
#1037 = COORDINATED_UNIVERSAL_TIME_OFFSET ( 1, 0, .AHEAD. ) ;
#1038 = CARTESIAN_POINT ( 'NONE',  ( 20.00000000000000000, 0.000000000000000000, 0.000000000000000000 ) ) ;
#1039 = DIRECTION ( 'NONE',  ( 0.000000000000000000, 0.000000000000000000, -1.000000000000000000 ) ) ;
#1040 = VERTEX_POINT ( 'NONE', #276 ) ;
#1041 = CC_DESIGN_PERSON_AND_ORGANIZATION_ASSIGNMENT ( #704, #257, ( #863 ) ) ;
#1042 = VERTEX_POINT ( 'NONE', #543 ) ;
#1043 = DIRECTION ( 'NONE',  ( 1.000000000000000000, 2.168404344971009854E-16, 0.000000000000000000 ) ) ;
#1044 = DIRECTION ( 'NONE',  ( -1.000000000000000000, 0.000000000000000000, -0.000000000000000000 ) ) ;
#1045 = ORIENTED_EDGE ( 'NONE', *, *, #70, .T. ) ;
#1046 = EDGE_LOOP ( 'NONE', ( #367, #255, #521, #672, #558, #432, #112, #515 ) ) ;
#1047 = ADVANCED_FACE ( 'NONE', ( #1097 ), #113, .F. ) ;
#1048 = DIRECTION ( 'NONE',  ( -1.000000000000000000, -0.000000000000000000, 0.000000000000000000 ) ) ;
#1049 = DIRECTION ( 'NONE',  ( -1.000000000000000000, 0.000000000000000000, 0.000000000000000000 ) ) ;
#1050 = ORIENTED_EDGE ( 'NONE', *, *, #662, .T. ) ;
#1051 = ORIENTED_EDGE ( 'NONE', *, *, #872, .T. ) ;
#1052 = PERSON_AND_ORGANIZATION ( #1062, #259 ) ;
#1053 = EDGE_CURVE ( 'NONE', #62, #17, #734, .T. ) ;
#1054 = CARTESIAN_POINT ( 'NONE',  ( 0.000000000000000000, 0.000000000000000000, 3.000000000000000000 ) ) ;
#1055 = DIRECTION ( 'NONE',  ( 0.000000000000000000, 1.000000000000000000, 0.000000000000000000 ) ) ;
#1056 = LINE ( 'NONE', #243, #547 ) ;
#1057 = VECTOR ( 'NONE', #559, 1000.000000000000000 ) ;
#1058 = ORIENTED_EDGE ( 'NONE', *, *, #419, .F. ) ;
#1059 = FACE_OUTER_BOUND ( 'NONE', #35, .T. ) ;
#1060 = DIRECTION ( 'NONE',  ( 1.000000000000000000, 0.000000000000000000, 0.000000000000000000 ) ) ;
#1061 = VERTEX_POINT ( 'NONE', #736 ) ;
#1062 = PERSON ( 'UNSPECIFIED', 'UNSPECIFIED', 'UNSPECIFIED', ('UNSPECIFIED'), ('UNSPECIFIED'), ('UNSPECIFIED') ) ;
#1063 = APPROVAL_DATE_TIME ( #947, #580 ) ;
#1064 = LINE ( 'NONE', #439, #720 ) ;
#1065 = CARTESIAN_POINT ( 'NONE',  ( 0.000000000000000000, 0.000000000000000000, 0.000000000000000000 ) ) ;
#1066 = DIRECTION ( 'NONE',  ( -0.000000000000000000, -1.000000000000000000, 0.000000000000000000 ) ) ;
#1067 = EDGE_CURVE ( 'NONE', #489, #160, #468, .T. ) ;
#1068 = VECTOR ( 'NONE', #503, 1000.000000000000000 ) ;
#1069 = VERTEX_POINT ( 'NONE', #89 ) ;
#1070 = DATE_AND_TIME ( #433, #940 ) ;
#1071 = DIRECTION ( 'NONE',  ( 0.000000000000000000, -1.000000000000000000, 0.000000000000000000 ) ) ;
#1072 = PLANE ( 'NONE',  #1130 ) ;
#1073 = DIRECTION ( 'NONE',  ( 0.000000000000000000, -1.000000000000000000, 0.000000000000000000 ) ) ;
#1074 = PRODUCT_DEFINITION_FORMATION_WITH_SPECIFIED_SOURCE ( 'ANY', '', #836, .NOT_KNOWN. ) ;
#1075 = ORIENTED_EDGE ( 'NONE', *, *, #713, .F. ) ;
#1076 = VECTOR ( 'NONE', #1060, 1000.000000000000000 ) ;
#1077 = EDGE_CURVE ( 'NONE', #392, #607, #560, .T. ) ;
#1078 = COORDINATED_UNIVERSAL_TIME_OFFSET ( 1, 0, .AHEAD. ) ;
#1079 = LINE ( 'NONE', #511, #207 ) ;
#1080 = VECTOR ( 'NONE', #689, 1000.000000000000000 ) ;
#1081 = FACE_BOUND ( 'NONE', #1083, .T. ) ;
#1082 = CARTESIAN_POINT ( 'NONE',  ( 2.700000000000001510, 1.734723475976807094E-15, 17.49999999999999645 ) ) ;
#1083 = EDGE_LOOP ( 'NONE', ( #1168, #217, #1051, #465 ) ) ;
#1084 = EDGE_CURVE ( 'NONE', #607, #147, #19, .T. ) ;
#1085 = DIRECTION ( 'NONE',  ( 1.000000000000000000, 0.000000000000000000, 0.000000000000000000 ) ) ;
#1086 = DIRECTION ( 'NONE',  ( 1.000000000000000000, 0.000000000000000000, 0.000000000000000000 ) ) ;
#1087 = VECTOR ( 'NONE', #150, 1000.000000000000000 ) ;
#1088 = CARTESIAN_POINT ( 'NONE',  ( 0.000000000000000000, 0.000000000000000000, 0.000000000000000000 ) ) ;
#1089 = ORIENTED_EDGE ( 'NONE', *, *, #1128, .F. ) ;
#1090 = DIRECTION ( 'NONE',  ( 1.000000000000000000, 0.000000000000000000, 0.000000000000000000 ) ) ;
#1091 = CARTESIAN_POINT ( 'NONE',  ( 0.000000000000000000, 4.599999999999999645, -1.500000000000000000 ) ) ;
#1092 = CARTESIAN_POINT ( 'NONE',  ( 0.000000000000000000, 0.000000000000000000, 3.000000000000000000 ) ) ;
#1093 = EDGE_LOOP ( 'NONE', ( #867, #75, #976 ) ) ;
#1094 = VECTOR ( 'NONE', #291, 1000.000000000000000 ) ;
#1095 = ORIENTED_EDGE ( 'NONE', *, *, #196, .T. ) ;
#1096 = VECTOR ( 'NONE', #282, 1000.000000000000000 ) ;
#1097 = FACE_OUTER_BOUND ( 'NONE', #87, .T. ) ;
#1098 = LINE ( 'NONE', #284, #671 ) ;
#1099 = EDGE_CURVE ( 'NONE', #527, #396, #981, .T. ) ;
#1100 = VERTEX_POINT ( 'NONE', #95 ) ;
#1101 = DIRECTION ( 'NONE',  ( -1.000000000000000000, 0.000000000000000000, 0.000000000000000000 ) ) ;
#1102 = CARTESIAN_POINT ( 'NONE',  ( 2.700000000000000178, 9.940000000000001279, 18.50000000000000000 ) ) ;
#1103 = CARTESIAN_POINT ( 'NONE',  ( 20.00000000000000000, 0.000000000000000000, 3.000000000000000000 ) ) ;
#1104 = ORIENTED_EDGE ( 'NONE', *, *, #219, .F. ) ;
#1105 = EDGE_CURVE ( 'NONE', #458, #772, #462, .T. ) ;
#1106 = DIRECTION ( 'NONE',  ( -1.000000000000000000, 0.000000000000000000, 4.336808689942013299E-16 ) ) ;
#1107 = CARTESIAN_POINT ( 'NONE',  ( 16.29999999999999716, 1.000000000000000888, 17.49999999999999645 ) ) ;
#1108 = DIRECTION ( 'NONE',  ( 0.000000000000000000, 1.000000000000000000, -0.000000000000000000 ) ) ;
#1109 = ORIENTED_EDGE ( 'NONE', *, *, #318, .T. ) ;
#1110 = AXIS2_PLACEMENT_3D ( 'NONE', #471, #567, #917 ) ;
#1111 = CARTESIAN_POINT ( 'NONE',  ( 16.29999999999999716, 9.940000000000001279, 17.49999999999999645 ) ) ;
#1112 = CIRCLE ( 'NONE', #88, 1.000000000000000888 ) ;
#1113 = AXIS2_PLACEMENT_3D ( 'NONE', #61, #431, #799 ) ;
#1114 = DIRECTION ( 'NONE',  ( 0.000000000000000000, -0.000000000000000000, 1.000000000000000000 ) ) ;
#1115 = ORIENTED_EDGE ( 'NONE', *, *, #738, .F. ) ;
#1116 = CIRCLE ( 'NONE', #1139, 1.000000000000000888 ) ;
#1117 = APPLICATION_PROTOCOL_DEFINITION ( 'international standard', 'config_control_design', 1994, #508 ) ;
#1118 = EDGE_CURVE ( 'NONE', #864, #607, #371, .T. ) ;
#1119 = CARTESIAN_POINT ( 'NONE',  ( -0.000000000000000000, 6.900000000000000355, -1.500000000000000000 ) ) ;
#1120 = LINE ( 'NONE', #139, #1029 ) ;
#1121 = ORIENTED_EDGE ( 'NONE', *, *, #152, .F. ) ;
#1122 = ORIENTED_EDGE ( 'NONE', *, *, #197, .T. ) ;
#1123 = PERSON_AND_ORGANIZATION_ROLE ( 'design_owner' ) ;
#1124 = PLANE ( 'NONE',  #51 ) ;
#1125 = EDGE_CURVE ( 'NONE', #147, #871, #193, .T. ) ;
#1126 = CARTESIAN_POINT ( 'NONE',  ( 16.29999999999999716, 9.940000000000001279, 17.49999999999999645 ) ) ;
#1127 = ORIENTED_EDGE ( 'NONE', *, *, #219, .T. ) ;
#1128 = EDGE_CURVE ( 'NONE', #950, #438, #271, .T. ) ;
#1129 = VERTEX_POINT ( 'NONE', #741 ) ;
#1130 = AXIS2_PLACEMENT_3D ( 'NONE', #261, #625, #988 ) ;
#1131 = LINE ( 'NONE', #682, #795 ) ;
#1132 = CARTESIAN_POINT ( 'NONE',  ( 0.000000000000000000, 2.000000000000000000, -1.500000000000000000 ) ) ;
#1133 = AXIS2_PLACEMENT_3D ( 'NONE', #1132, #319, #131 ) ;
#1134 = CARTESIAN_POINT ( 'NONE',  ( 0.000000000000000000, 0.000000000000000000, 0.000000000000000000 ) ) ;
#1135 = FACE_OUTER_BOUND ( 'NONE', #1093, .T. ) ;
#1136 = ORIENTED_EDGE ( 'NONE', *, *, #324, .T. ) ;
#1137 = ADVANCED_FACE ( 'NONE', ( #922 ), #746, .T. ) ;
#1138 = VERTEX_POINT ( 'NONE', #840 ) ;
#1139 = AXIS2_PLACEMENT_3D ( 'NONE', #751, #296, #663 ) ;
#1140 = FACE_OUTER_BOUND ( 'NONE', #681, .T. ) ;
#1141 = PLANE ( 'NONE',  #464 ) ;
#1142 = DIRECTION ( 'NONE',  ( 0.000000000000000000, -0.000000000000000000, 1.000000000000000000 ) ) ;
#1143 = ORIENTED_EDGE ( 'NONE', *, *, #205, .F. ) ;
#1144 = ORIENTED_EDGE ( 'NONE', *, *, #362, .F. ) ;
#1145 = ADVANCED_FACE ( 'NONE', ( #1140, #661 ), #295, .T. ) ;
#1146 = AXIS2_PLACEMENT_3D ( 'NONE', #216, #690, #493 ) ;
#1147 = COORDINATED_UNIVERSAL_TIME_OFFSET ( 1, 0, .AHEAD. ) ;
#1148 = DIRECTION ( 'NONE',  ( 1.189252840020663057E-16, -1.000000000000000000, 0.000000000000000000 ) ) ;
#1149 = CYLINDRICAL_SURFACE ( 'NONE', #242, 1.000000000000000888 ) ;
#1150 = ORIENTED_EDGE ( 'NONE', *, *, #936, .T. ) ;
#1151 = ADVANCED_FACE ( 'NONE', ( #497 ), #953, .F. ) ;
#1152 = DIRECTION ( 'NONE',  ( -1.000000000000000000, -0.000000000000000000, -0.000000000000000000 ) ) ;
#1153 = DIRECTION ( 'NONE',  ( -1.189252840020663057E-16, 1.000000000000000000, 0.000000000000000000 ) ) ;
#1154 = DIRECTION ( 'NONE',  ( -0.000000000000000000, -1.000000000000000000, -0.000000000000000000 ) ) ;
#1155 = ORIENTED_EDGE ( 'NONE', *, *, #968, .T. ) ;
#1156 = CIRCLE ( 'NONE', #185, 0.9999999999999995559 ) ;
#1157 = ORIENTED_EDGE ( 'NONE', *, *, #168, .T. ) ;
#1158 = CARTESIAN_POINT ( 'NONE',  ( 3.700000000000000178, 10.94000000000000128, 3.000000000000000000 ) ) ;
#1159 = EDGE_CURVE ( 'NONE', #62, #950, #683, .T. ) ;
#1160 = LINE ( 'NONE', #1065, #1035 ) ;
#1161 = CARTESIAN_POINT ( 'NONE',  ( 3.700000000000000178, 9.940000000000001279, 17.49999999999999645 ) ) ;
#1162 = ORIENTED_EDGE ( 'NONE', *, *, #680, .T. ) ;
#1163 = DIRECTION ( 'NONE',  ( 1.000000000000000000, 0.000000000000000000, 0.000000000000000000 ) ) ;
#1164 = CARTESIAN_POINT ( 'NONE',  ( 4.700000000000000178, 0.000000000000000000, 18.50000000000000000 ) ) ;
#1165 = EDGE_CURVE ( 'NONE', #438, #49, #509, .T. ) ;
#1166 = DIRECTION ( 'NONE',  ( 1.000000000000000000, 0.000000000000000000, 0.000000000000000000 ) ) ;
#1167 = EDGE_CURVE ( 'NONE', #24, #489, #860, .T. ) ;
#1168 = ORIENTED_EDGE ( 'NONE', *, *, #70, .F. ) ;
#1169 = PERSON_AND_ORGANIZATION ( #1062, #259 ) ;
#1170 = FACE_OUTER_BOUND ( 'NONE', #827, .T. ) ;
#1171 = CARTESIAN_POINT ( 'NONE',  ( 17.30000000000000071, 2.000000000000000000, 3.000000000000000000 ) ) ;
#1172 = CARTESIAN_POINT ( 'NONE',  ( 20.00000000000000000, 0.000000000000000000, 0.000000000000000000 ) ) ;
#1173 = VECTOR ( 'NONE', #767, 1000.000000000000000 ) ;
#1174 = VECTOR ( 'NONE', #545, 1000.000000000000000 ) ;
#1175 = EDGE_LOOP ( 'NONE', ( #687, #664, #182, #833 ) ) ;
#1176 = ADVANCED_FACE ( 'NONE', ( #849 ), #959, .T. ) ;
#1177 = VECTOR ( 'NONE', #996, 1000.000000000000000 ) ;
#1178 = CARTESIAN_POINT ( 'NONE',  ( 4.700000000000000178, 9.000000000000001776, 8.900000000000000355 ) ) ;
#1179 = LINE ( 'NONE', #523, #874 ) ;
#1180 = PLANE ( 'NONE',  #1110 ) ;
#1181 = VERTEX_POINT ( 'NONE', #932 ) ;
#1182 = EDGE_LOOP ( 'NONE', ( #220, #129, #654, #937, #105, #1045, #598, #726 ) ) ;
#1183 = ADVANCED_FACE ( 'NONE', ( #118 ), #1025, .F. ) ;
ENDSEC;
END-ISO-10303-21;
